<?xml version="1.0" encoding="utf-8"?><svg xml:space="preserve" viewBox="0 0 100 100" y="0px" x="0px" xmlns:xlink="http://www.w3.org/1999/xlink" xmlns="http://www.w3.org/2000/svg" id="圖層_1" version="1.1" width="200px" height="200px" style="width:100%;height:100%;background-size:initial;background-repeat-y:initial;background-repeat-x:initial;background-position-y:initial;background-position-x:initial;background-origin:initial;background-image:initial;background-color:rgb(255, 255, 255);background-clip:initial;background-attachment:initial;animation-play-state:paused" ><g class="ldl-scale" style="transform-origin:50% 50%;transform:rotate(0deg) scale(0.8, 0.8);animation-play-state:paused" ><g style="animation-play-state:paused" ><circle r="13" cy="42.42" cx="84" fill="#8C6239" style="fill:rgb(140, 98, 57);animation-play-state:paused" ></circle>
<circle r="7.5" cy="42.42" cx="84" fill="#FFFFFF" style="fill:rgb(255, 255, 255);animation-play-state:paused" ></circle></g>
<g style="animation-play-state:paused" ><circle r="13" cy="42.42" cx="16" fill="#8C6239" style="fill:rgb(140, 98, 57);animation-play-state:paused" ></circle>
<circle r="7.5" cy="42.42" cx="16" fill="#FFFFFF" style="fill:rgb(255, 255, 255);animation-play-state:paused" ></circle></g>
<g style="animation-play-state:paused" ><path d="M60.5,90h-21C25.97,90,15,79.03,15,65.5V27.91C15,18.02,23.02,10,32.91,10h34.18 C76.98,10,85,18.02,85,27.91V65.5C85,79.03,74.03,90,60.5,90z" fill="#8C6239" style="fill:rgb(140, 98, 57);animation-play-state:paused" ></path>
<path d="M79.47,36.19c-0.33-8.55-7.34-15.39-15.97-15.39c-5.68,0-10.66,2.97-13.5,7.44 c-2.84-4.47-7.82-7.44-13.5-7.44c-8.63,0-15.64,6.84-15.97,15.39H20.5v13.55c0,11.57,9.38,20.95,20.95,20.95h17.11 c11.57,0,20.95-9.38,20.95-20.95V36.19H79.47z" fill="#F4E6C8" style="fill:rgb(244, 230, 200);animation-play-state:paused" ></path>
<path d="M60.35,77.14h-20.7c-5.86,0-10.65,4.53-11.08,10.28c3.29,1.65,7,2.58,10.93,2.58h21 c3.93,0,7.64-0.93,10.93-2.58C71,81.68,66.21,77.14,60.35,77.14z" fill="#F4E6C8" style="fill:rgb(244, 230, 200);animation-play-state:paused" ></path></g>
<g style="animation-play-state:paused" ><ellipse ry="5.54" rx="5.69" cy="40.22" cx="37.47" style="animation-play-state:paused" ></ellipse>
<ellipse ry="5.54" rx="5.69" cy="40.22" cx="62.53" style="animation-play-state:paused" ></ellipse></g>
<g style="animation-play-state:paused" ><line y2="57.27" x2="50" y1="50.21" x1="50" stroke-miterlimit="10" stroke-linecap="round" stroke-width="3.5" stroke="#000000" fill="none" style="animation-play-state:paused" ></line>
<path d="M40,57.27 c4.08,5.51,5.27,2.45,8.61,0.4c0.82-0.5,2.01-0.58,2.78,0c2.75,2.05,4.52,5.11,8.61-0.4" stroke-miterlimit="10" stroke-linecap="round" stroke-width="3.5" stroke="#000000" fill="none" style="animation-play-state:paused" ></path>
<ellipse ry="3.88" rx="5" cy="49.69" cx="50" style="animation-play-state:paused" ></ellipse></g>
<metadata xmlns:d="https://loading.io/stock/" style="animation-play-state:paused" ><d:name style="animation-play-state:paused" >animal</d:name>


<d:tags style="animation-play-state:paused" >animal,monkey,primates,cute,zoo</d:tags>


<d:license style="animation-play-state:paused" >by</d:license>


<d:slug style="animation-play-state:paused" >irer0l</d:slug></metadata></g><!-- generated by https://loading.io/ --></svg>