<?xml version="1.0" encoding="utf-8"?><svg xmlns="http://www.w3.org/2000/svg" xmlns:xlink="http://www.w3.org/1999/xlink" width="1366" height="657" preserveAspectRatio="xMidYMid" viewBox="0 0 1366 657" style="z-index:1;margin-right:-2px;display:block;background-repeat-y:initial;background-repeat-x:initial;background-color:rgb(255, 255, 255);animation-play-state:paused" ><g transform="translate(683,328.5) scale(1,1) translate(-683,-328.5)" style="transform:matrix(1, 0, 0, 1, 0, 0);animation-play-state:paused" ><g transform="translate(1060.7731114168175,35.469137648512) scale(100)" opacity="0.4" style="transform:matrix(100, 0, 0, 100, 1060.77, 35.4691);opacity:0.4;animation-play-state:paused" ><path d="M4.637569999999999 0 C4.637569999999999 1.0996299999999999 4.814496479158203 1.5099074852365173 4.264681479158203 2.4622149999999996 S3.271092514763482 3.4664384318285983 2.318785 4.0162534318285985 S1.09963 4.92443 3.0153437185626e-16 4.92443 S-1.3664774852365165 4.566068431828598 -2.3187849999999988 4.0162534318285985 S-3.7148664791582022 3.4145225147634837 -4.264681479158202 2.462215000000002 S-4.637569999999999 1.0996300000000006 -4.637569999999999 5.67938525632179e-16 S-4.814496479158204 -1.5099074852365164 -4.264681479158204 -2.4622149999999987 S-3.2710925147634837 -3.466438431828597 -2.318785000000002 -4.016253431828598 S-1.0996300000000008 -4.92443 -9.046031155687801e-16 -4.92443 S1.3664774852365138 -4.566068431828599 2.3187849999999965 -4.0162534318286 S3.714866479158201 -3.414522514763484 4.2646814791582015 -2.4622150000000023 S4.637569999999999 -1.099630000000001 4.637569999999999 -1.135877051264358e-15" fill="#4a00e0" stroke-width="0" transform="matrix(1,0,0,1,0,0)" style="transform:matrix(1, 0, 0, 1, 0, 0);animation-play-state:paused" ></path></g>
<g transform="translate(1136.327733700181,-23.137034821785562) scale(100)" opacity="0.4" style="transform:matrix(100, 0, 0, 100, 1136.33, -23.137);opacity:0.4;animation-play-state:paused" ><path d="M5.565083999999999 0 C5.565083999999999 1.3195559999999995 5.777395774989842 1.8118889822838204 5.117617774989843 2.954657999999999 S3.925311017716178 4.1597261181943175 2.782542 4.819504118194318 S1.319556 5.909315999999999 3.6184124622751194e-16 5.909315999999999 S-1.6397729822838196 5.479282118194318 -2.782541999999998 4.819504118194319 S-4.457839774989842 4.097427017716179 -5.117617774989842 2.954658000000001 S-5.565083999999999 1.3195560000000002 -5.565083999999999 6.815262307586147e-16 S-5.777395774989843 -1.8118889822838191 -5.117617774989844 -2.9546579999999976 S-3.9253110177161803 -4.159726118194317 -2.782542000000002 -4.819504118194317 S-1.3195560000000006 -5.909315999999999 -1.0855237386825359e-15 -5.909315999999999 S1.639772982283817 -5.47928211819432 2.782541999999996 -4.81950411819432 S4.457839774989841 -4.09742701771618 5.117617774989841 -2.954658000000002 S5.565083999999999 -1.3195560000000008 5.565083999999999 -1.3630524615172295e-15" fill="#4a00e0" stroke-width="0" transform="matrix(1,0,0,1,0,0)" style="transform:matrix(1, 0, 0, 1, 0, 0);animation-play-state:paused" ></path></g>
<g transform="translate(1317.6588271802534,-163.79184875049975) scale(100)" opacity="0.4" style="transform:matrix(100, 0, 0, 100, 1317.66, -163.792);opacity:0.4;animation-play-state:paused" ><path d="M7.791117599999999 0 C7.791117599999999 1.8473783999999995 8.088354084985781 2.536644575197349 7.164664884985782 4.136521199999999 S5.4954354248026505 5.823616565472045 3.8955588000000003 6.747305765472045 S1.8473784 8.2730424 5.065777447185168e-16 8.2730424 S-2.2956821751973475 7.670994965472045 -3.8955587999999977 6.747305765472046 S-6.24097568498578 5.736397824802652 -7.16466488498578 4.1365212000000025 S-7.791117599999999 1.8473784000000004 -7.791117599999999 9.541367230620608e-16 S-8.088354084985781 -2.536644575197347 -7.164664884985783 -4.136521199999997 S-5.495435424802652 -5.823616565472044 -3.895558800000003 -6.747305765472045 S-1.847378400000001 -8.2730424 -1.5197332341555504e-15 -8.2730424 S2.2956821751973435 -7.670994965472047 3.895558799999994 -6.747305765472048 S6.240975684985779 -5.736397824802653 7.164664884985779 -4.136521200000003 S7.791117599999998 -1.8473784000000015 7.791117599999999 -1.9082734461241216e-15" fill="#4a00e0" stroke-width="0" transform="matrix(1,0,0,1,0,0)" style="transform:matrix(1, 0, 0, 1, 0, 0);animation-play-state:paused" ></path></g></g></svg>