<?xml version="1.0" standalone="no"?>
<!DOCTYPE svg PUBLIC "-//W3C//DTD SVG 20010904//EN"
 "http://www.w3.org/TR/2001/REC-SVG-20010904/DTD/svg10.dtd">
<svg version="1.0" xmlns="http://www.w3.org/2000/svg"
 width="128.000000pt" height="128.000000pt" viewBox="0 0 128.000000 128.000000"
 preserveAspectRatio="xMidYMid meet">

<g transform="translate(0.000000,128.000000) scale(0.100000,-0.100000)"
fill="#000000" stroke="none">
<path d="M829 1038 c5 -13 43 -103 85 -201 42 -99 74 -188 73 -198 -2 -11 -60
-77 -130 -148 -141 -141 -148 -157 -104 -222 27 -40 60 -59 106 -59 29 0 48
14 145 108 61 59 146 140 189 180 126 121 119 150 -80 342 -179 174 -235 220
-266 220 -23 0 -25 -3 -18 -22z"/>
<path d="M185 859 c-81 -79 -156 -161 -167 -183 -23 -44 -18 -97 11 -124 10
-9 87 -85 172 -168 85 -83 164 -157 176 -163 41 -21 83 -13 118 22 37 37 50
74 41 111 -3 13 -61 80 -129 149 -106 108 -122 130 -120 154 2 15 14 98 27
183 13 85 22 156 20 158 -1 2 -68 -61 -149 -139z"/>
</g>
</svg>
