<?xml version="1.0" encoding="utf-8"?><svg xmlns="http://www.w3.org/2000/svg" xmlns:xlink="http://www.w3.org/1999/xlink" width="1366" height="600" preserveAspectRatio="xMidYMid" viewBox="0 0 1366 600" style="z-index:1;margin-right:-2px;display:block;background-repeat-y:initial;background-repeat-x:initial;animation-play-state:paused" ><g transform="translate(683,300) scale(1,1) translate(-683,-300)" style="transform:matrix(1, 0, 0, 1, 0, 0);animation-play-state:paused" ><defs style="animation-play-state:paused" ><linearGradient id="ldbk-photon-69jlchxe8v-lg" x1="658" x2="1366" y1="0" y2="0" gradientUnits="userSpaceOnUse" style="animation-play-state:paused" ><stop stop-color="#1d3f72" offset="0" style="animation-play-state:paused" ></stop>

    
<stop stop-color="#34ffef" offset="1" style="animation-play-state:paused" ></stop></linearGradient>

  
<mask id="ldbk-photon-69jlchxe8v-mask" style="animation-play-state:paused" ><g style="animation-play-state:paused" ><path d="M1666 -0.5 L668.1405317538747 -0.5 A15 15 0 0 1 668.1405317538747 30.5 L1666 30.5" fill="#fff" transform="matrix(1,0,0,1,45.835914611816406,0)" style="transform:matrix(1, 0, 0, 1, 45.8359, 0);animation-play-state:paused" ></path>
<path d="M1432.5807652437754 -0.5 L1469.1615304875509 -0.5 A15 15 0 0 1 1469.1615304875509 30.5 L1432.5807652437754 30.5 A15 15 0 0 1 1432.5807652437754 -0.5" fill="#000" transform="matrix(1,0,0,1,0,0)" opacity="1" style="transform:matrix(1, 0, 0, 1, 0, 0);animation-play-state:paused" ></path>
<path d="M1666 29.5 L650.1771847558535 29.5 A15 15 0 0 0 650.1771847558535 60.5 L1666 60.5" fill="#fff" transform="matrix(1,0,0,1,-27.806217193603516,0)" style="transform:matrix(1, 0, 0, 1, -27.8062, 0);animation-play-state:paused" ></path>
<path d="M713.4356159141947 29.5 L727.2491611940023 29.5 A15 15 0 0 1 727.2491611940023 60.5 L713.4356159141947 60.5 A15 15 0 0 1 713.4356159141947 29.5" fill="#fff" transform="matrix(1,0,0,1,0,0)" opacity="1" style="transform:matrix(1, 0, 0, 1, 0, 0);animation-play-state:paused" ></path>
<path d="M1666 59.5 L656.0776206433006 59.5 A15 15 0 0 1 656.0776206433006 90.5 L1666 90.5" fill="#fff" transform="matrix(1,0,0,1,10.63595962524414,0)" style="transform:matrix(1, 0, 0, 1, 10.636, 0);animation-play-state:paused" ></path>
<path d="M1419.420695895758 59.5 L1442.841391791516 59.5 A15 15 0 0 1 1442.841391791516 90.5 L1419.420695895758 90.5 A15 15 0 0 1 1419.420695895758 59.5" fill="#000" transform="matrix(1,0,0,1,-1434.906005859375,0)" opacity="0.142857" style="transform:matrix(1, 0, 0, 1, -1434.91, 0);opacity:0.142857;animation-play-state:paused" ></path>
<path d="M1666 89.5 L614.0411257861693 89.5 A15 15 0 0 0 614.0411257861693 120.5 L1666 120.5" fill="#fff" transform="matrix(1,0,0,1,-38.8399772644043,0)" style="transform:matrix(1, 0, 0, 1, -38.84, 0);animation-play-state:paused" ></path>
<path d="M697.8758860178858 89.5 L722.2455266977596 89.5 A15 15 0 0 1 722.2455266977596 120.5 L697.8758860178858 120.5 A15 15 0 0 1 697.8758860178858 89.5" fill="#fff" transform="matrix(1,0,0,1,0,0)" opacity="0.928571" style="transform:matrix(1, 0, 0, 1, 0, 0);opacity:0.928571;animation-play-state:paused" ></path>
<path d="M1666 119.5 L643.4036364969095 119.5 A15 15 0 0 1 643.4036364969095 150.5 L1666 150.5" fill="#fff" transform="matrix(1,0,0,1,21.299907684326172,0)" style="transform:matrix(1, 0, 0, 1, 21.2999, 0);animation-play-state:paused" ></path>
<path d="M1406.0742094836876 119.5 L1416.1484189673752 119.5 A15 15 0 0 1 1416.1484189673752 150.5 L1406.0742094836876 150.5 A15 15 0 0 1 1406.0742094836876 119.5" fill="#000" transform="matrix(1,0,0,1,-1149.9000244140625,0)" opacity="0.285714" style="transform:matrix(1, 0, 0, 1, -1149.9, 0);opacity:0.285714;animation-play-state:paused" ></path>
<path d="M1666 149.5 L605.2214632364646 149.5 A15 15 0 0 0 605.2214632364646 180.5 L1666 180.5" fill="#fff" transform="matrix(1,0,0,1,0,0)" style="transform:matrix(1, 0, 0, 1, 0, 0);animation-play-state:paused" ></path>
<path d="M682.2545731008072 149.5 L707.8858440188401 149.5 A15 15 0 0 1 707.8858440188401 180.5 L682.2545731008072 180.5 A15 15 0 0 1 682.2545731008072 149.5" fill="#fff" transform="matrix(1,0,0,1,0,0)" opacity="0.714286" style="transform:matrix(1, 0, 0, 1, 0, 0);opacity:0.714286;animation-play-state:paused" ></path>
<path d="M1666 179.5 L653.8590712538222 179.5 A15 15 0 0 1 653.8590712538222 210.5 L1666 210.5" fill="#fff" transform="matrix(1,0,0,1,10.247251510620117,0)" style="transform:matrix(1, 0, 0, 1, 10.2473, 0);animation-play-state:paused" ></path>
<path d="M1433.7530507051565 179.5 L1471.506101410313 179.5 A15 15 0 0 1 1471.506101410313 210.5 L1433.7530507051565 210.5 A15 15 0 0 1 1433.7530507051565 179.5" fill="#000" transform="matrix(1,0,0,1,-1240.5164794921875,0)" opacity="0.285714" style="transform:matrix(1, 0, 0, 1, -1240.52, 0);opacity:0.285714;animation-play-state:paused" ></path>
<path d="M1666 209.5 L609.8808124720704 209.5 A15 15 0 0 0 609.8808124720704 240.5 L1666 240.5" fill="#fff" transform="matrix(1,0,0,1,-28.367704391479492,0)" style="transform:matrix(1, 0, 0, 1, -28.3677, 0);animation-play-state:paused" ></path>
<path d="M734.5982850270134 209.5 L758.5085686586834 209.5 A15 15 0 0 1 758.5085686586834 240.5 L734.5982850270134 240.5 A15 15 0 0 1 734.5982850270134 209.5" fill="#fff" transform="matrix(1,0,0,1,0,0)" opacity="1" style="transform:matrix(1, 0, 0, 1, 0, 0);animation-play-state:paused" ></path>
<path d="M1666 239.5 L641.8432460454953 239.5 A15 15 0 0 1 641.8432460454953 270.5 L1666 270.5" fill="#fff" transform="matrix(1,0,0,1,2.443265199661255,0)" style="transform:matrix(1, 0, 0, 1, 2.44327, 0);animation-play-state:paused" ></path>
<path d="M1412.5443143010514 239.5 L1429.0886286021027 239.5 A15 15 0 0 1 1429.0886286021027 270.5 L1412.5443143010514 270.5 A15 15 0 0 1 1412.5443143010514 239.5" fill="#000" transform="matrix(1,0,0,1,-700.626220703125,0)" opacity="0.571428" style="transform:matrix(1, 0, 0, 1, -700.626, 0);opacity:0.571428;animation-play-state:paused" ></path>
<path d="M1666 269.5 L612.1587187666177 269.5 A15 15 0 0 0 612.1587187666177 300.5 L1666 300.5" fill="#fff" transform="matrix(1,0,0,1,-30.522031784057617,0)" style="transform:matrix(1, 0, 0, 1, -30.522, 0);animation-play-state:paused" ></path>
<path d="M716.8229891894179 269.5 L732.1637486826064 269.5 A15 15 0 0 1 732.1637486826064 300.5 L716.8229891894179 300.5 A15 15 0 0 1 716.8229891894179 269.5" fill="#fff" transform="matrix(1,0,0,1,0,0)" opacity="1" style="transform:matrix(1, 0, 0, 1, 0, 0);animation-play-state:paused" ></path>
<path d="M1666 299.5 L670.5552437747472 299.5 A15 15 0 0 1 670.5552437747472 330.5 L1666 330.5" fill="#fff" transform="matrix(1,0,0,1,0,0)" style="transform:matrix(1, 0, 0, 1, 0, 0);animation-play-state:paused" ></path>
<path d="M1417.3485082148395 299.5 L1438.697016429679 299.5 A15 15 0 0 1 1438.697016429679 330.5 L1417.3485082148395 330.5 A15 15 0 0 1 1417.3485082148395 299.5" fill="#000" transform="matrix(1,0,0,1,-763.5087280273438,0)" opacity="0.714286" style="transform:matrix(1, 0, 0, 1, -763.509, 0);opacity:0.714286;animation-play-state:paused" ></path>
<path d="M1666 329.5 L658.4758328530475 329.5 A15 15 0 0 0 658.4758328530475 360.5 L1666 360.5" fill="#fff" transform="matrix(1,0,0,1,-32.26434326171875,0)" style="transform:matrix(1, 0, 0, 1, -32.2643, 0);animation-play-state:paused" ></path>
<path d="M751.6845305333745 329.5 L775.343655596524 329.5 A15 15 0 0 1 775.343655596524 360.5 L751.6845305333745 360.5 A15 15 0 0 1 751.6845305333745 329.5" fill="#fff" transform="matrix(1,0,0,1,0,0)" opacity="1" style="transform:matrix(1, 0, 0, 1, 0, 0);animation-play-state:paused" ></path>
<path d="M1666 359.5 L687.8009603732859 359.5 A15 15 0 0 1 687.8009603732859 390.5 L1666 390.5" fill="#fff" transform="matrix(1,0,0,1,2.8437864780426025,0)" style="transform:matrix(1, 0, 0, 1, 2.84379, 0);animation-play-state:paused" ></path>
<path d="M1413.363315747994 359.5 L1430.726631495988 359.5 A15 15 0 0 1 1430.726631495988 390.5 L1413.363315747994 390.5 A15 15 0 0 1 1413.363315747994 359.5" fill="#000" transform="matrix(1,0,0,1,-563.3395385742188,0)" opacity="0.857142" style="transform:matrix(1, 0, 0, 1, -563.34, 0);opacity:0.857142;animation-play-state:paused" ></path>
<path d="M1666 389.5 L633.9986392074675 389.5 A15 15 0 0 0 633.9986392074675 420.5 L1666 420.5" fill="#fff" transform="matrix(1,0,0,1,-28.94247055053711,0)" style="transform:matrix(1, 0, 0, 1, -28.9425, 0);animation-play-state:paused" ></path>
<path d="M775.7977742046596 389.5 L800.2144288919237 389.5 A15 15 0 0 1 800.2144288919237 420.5 L775.7977742046596 420.5 A15 15 0 0 1 775.7977742046596 389.5" fill="#fff" transform="matrix(1,0,0,1,0,0)" opacity="0.142857" style="transform:matrix(1, 0, 0, 1, 0, 0);opacity:0.142857;animation-play-state:paused" ></path>
<path d="M1666 419.5 L693.6857261651552 419.5 A15 15 0 0 1 693.6857261651552 450.5 L1666 450.5" fill="#fff" transform="matrix(1,0,0,1,14.588569641113281,0)" style="transform:matrix(1, 0, 0, 1, 14.5886, 0);animation-play-state:paused" ></path>
<path d="M1407.2802806211118 419.5 L1418.5605612422237 419.5 A15 15 0 0 1 1418.5605612422237 450.5 L1407.2802806211118 450.5 A15 15 0 0 1 1407.2802806211118 419.5" fill="#000" transform="matrix(1,0,0,1,-125.42005920410156,0)" opacity="1" style="transform:matrix(1, 0, 0, 1, -125.42, 0);animation-play-state:paused" ></path>
<path d="M1666 449.5 L671.2952222377087 449.5 A15 15 0 0 0 671.2952222377087 480.5 L1666 480.5" fill="#fff" transform="matrix(1,0,0,1,-14.86121654510498,0)" style="transform:matrix(1, 0, 0, 1, -14.8612, 0);animation-play-state:paused" ></path>
<path d="M765.6735004330965 449.5 L787.3040195631187 449.5 A15 15 0 0 1 787.3040195631187 480.5 L765.6735004330965 480.5 A15 15 0 0 1 765.6735004330965 449.5" fill="#fff" transform="matrix(1,0,0,1,0,0)" opacity="1" style="transform:matrix(1, 0, 0, 1, 0, 0);animation-play-state:paused" ></path>
<path d="M1666 479.5 L707.5612047008896 479.5 A15 15 0 0 1 707.5612047008896 510.5 L1666 510.5" fill="#fff" transform="matrix(1,0,0,1,22.354074478149414,0)" style="transform:matrix(1, 0, 0, 1, 22.3541, 0);animation-play-state:paused" ></path>
<path d="M1417.7128977478678 479.5 L1439.4257954957357 479.5 A15 15 0 0 1 1439.4257954957357 510.5 L1417.7128977478678 510.5 A15 15 0 0 1 1417.7128977478678 479.5" fill="#000" transform="matrix(1,0,0,1,-1194.288330078125,0)" opacity="0.285714" style="transform:matrix(1, 0, 0, 1, -1194.29, 0);opacity:0.285714;animation-play-state:paused" ></path>
<path d="M1666 509.5 L688.2098130529993 509.5 A15 15 0 0 0 688.2098130529993 540.5 L1666 540.5" fill="#fff" transform="matrix(1,0,0,1,-42.43075942993164,0)" style="transform:matrix(1, 0, 0, 1, -42.4308, 0);animation-play-state:paused" ></path>
<path d="M739.483557685183 509.5 L770.8554581262821 509.5 A15 15 0 0 1 770.8554581262821 540.5 L739.483557685183 540.5 A15 15 0 0 1 739.483557685183 509.5" fill="#fff" transform="matrix(1,0,0,1,0,0)" opacity="0.642857" style="transform:matrix(1, 0, 0, 1, 0, 0);opacity:0.642857;animation-play-state:paused" ></path>
<path d="M1666 539.5 L711.9494900219879 539.5 A15 15 0 0 1 711.9494900219879 570.5 L1666 570.5" fill="#fff" transform="matrix(1,0,0,1,2.3079452514648438,0)" style="transform:matrix(1, 0, 0, 1, 2.30795, 0);animation-play-state:paused" ></path>
<path d="M1431.3894569825588 539.5 L1466.7789139651177 539.5 A15 15 0 0 1 1466.7789139651177 570.5 L1431.3894569825588 570.5 A15 15 0 0 1 1431.3894569825588 539.5" fill="#000" transform="matrix(1,0,0,1,-877.1343994140625,0)" opacity="0.428571" style="transform:matrix(1, 0, 0, 1, -877.134, 0);opacity:0.428571;animation-play-state:paused" ></path>
<path d="M1666 569.5 L651.4845418568303 569.5 A15 15 0 0 0 651.4845418568303 600.5 L1666 600.5" fill="#fff" transform="matrix(1,0,0,1,-35.634552001953125,0)" style="transform:matrix(1, 0, 0, 1, -35.6346, 0);animation-play-state:paused" ></path>
<path d="M734.7645839079099 569.5 L763.0536947241009 569.5 A15 15 0 0 1 763.0536947241009 600.5 L734.7645839079099 600.5 A15 15 0 0 1 734.7645839079099 569.5" fill="#fff" transform="matrix(1,0,0,1,0,0)" opacity="0.428572" style="transform:matrix(1, 0, 0, 1, 0, 0);opacity:0.428572;animation-play-state:paused" ></path></g></mask></defs>


<rect x="0" y="0" width="1366" height="600" fill="url(#ldbk-photon-69jlchxe8v-lg)" mask="url(#ldbk-photon-69jlchxe8v-mask)" style="animation-play-state:paused" ></rect></g></svg>