<?xml version="1.0" encoding="utf-8"?><svg xmlns="http://www.w3.org/2000/svg" xmlns:xlink="http://www.w3.org/1999/xlink" width="1366" height="657" preserveAspectRatio="xMidYMid" viewBox="0 0 1366 657" style="z-index:1;margin-right:-2px;display:block;background-repeat-y:initial;background-repeat-x:initial;background-color:rgb(7, 6, 22);animation-play-state:paused" ><g transform="translate(683,328.5) scale(1,1) translate(-683,-328.5)" style="transform:matrix(1, 0, 0, 1, 0, 0);animation-play-state:paused" ><defs style="animation-play-state:paused" ><path id="path-jg0va0wuf7d-1" d="M-35 -35L35 -35L35 35L-35 35Z" fill="none" stroke="inherit" stroke-width="4.333333333333334" transform="scale(0.3)" style="transform:matrix(0.3, 0, 0, 0.3, 0, 0);animation-play-state:paused" ></path>

  
<path id="path-jg0va0wuf7d-2" d="M0 -37A37 37 0 0 1 0 37A37 37 0 0 1 0 -37" fill="none" stroke="inherit" stroke-width="4.333333333333334" transform="scale(0.3)" style="transform:matrix(0.3, 0, 0, 0.3, 0, 0);animation-play-state:paused" ></path>

  
<path id="path-jg0va0wuf7d-3" d="M0 -34.641L40 34.641L-40 34.641Z" fill="none" stroke="inherit" stroke-width="4.333333333333334" transform="scale(0.3)" style="transform:matrix(0.3, 0, 0, 0.3, 0, 0);animation-play-state:paused" ></path></defs>
<path id="path0" d="M 60.90071873122292 491.9985427247788
c 0 55.329190796636944 -13.537993492794143 15.892427143714867 -29.430420636509012 15.892427143714867
S 2.039877458204895 547.3277335214158 2.039877458204895 491.9985427247788
s 13.537993492794143 -15.892427143714867 29.430420636509012 -15.892427143714867
S 60.90071873122292 436.66935192814185 60.90071873122292 491.9985427247788
z" fill="none" stroke="none" style="animation-play-state:paused" ></path>


<use xlink:href="#path-jg0va0wuf7d-2" x="0" y="0" stroke="#cb53ae" transform="translate(4.363434791564941 517.7144165039062)" style="animation-play-state:paused" ></use>
<path id="path1" d="M 90.73923778017112 256.4094329786986
c 0 30.065209438346837 -7.356381032786992 8.63575164718473 -15.992132679971721 8.63575164718473
S 58.75497242022769 286.4746424170454 58.75497242022769 256.4094329786986
s 7.356381032786992 -8.63575164718473 15.992132679971721 -8.63575164718473
S 90.73923778017112 226.34422354035175 90.73923778017112 256.4094329786986
z" fill="none" stroke="none" style="animation-play-state:paused" ></path>


<use xlink:href="#path-jg0va0wuf7d-2" x="0" y="0" stroke="#cb53ae" transform="translate(88.14366149902344 272.2711486816406)" style="animation-play-state:paused" ></use>
<path id="path2" d="M 125.22884518523037 143.76627956150406
c 0 62.890691564554366 -15.388147936007982 18.06434757705285 -33.45249551306083 18.06434757705285
S 58.32385415910871 206.65697112605844 58.32385415910871 143.76627956150406
s 15.388147936007982 -18.06434757705285 33.45249551306083 -18.06434757705285
S 125.22884518523037 80.87558799694969 125.22884518523037 143.76627956150406
z" fill="none" stroke="none" style="animation-play-state:paused" ></path>


<use xlink:href="#path-jg0va0wuf7d-1" x="0" y="0" stroke="#cb53ae" transform="translate(125.22864532470703 143.97286987304688)" style="animation-play-state:paused" ></use>
<path id="path3" d="M 147.87921519417822 239.31888047319404
c 0 37.077549853088655 -9.072166453415308 10.649934532270146 -19.722100985685454 10.649934532270146
S 108.43501322280731 276.3964303262827 108.43501322280731 239.31888047319404
s 9.072166453415308 -10.649934532270146 19.722100985685454 -10.649934532270146
S 147.87921519417822 202.24133062010537 147.87921519417822 239.31888047319404
z" fill="none" stroke="none" style="animation-play-state:paused" ></path>


<use xlink:href="#path-jg0va0wuf7d-3" x="0" y="0" stroke="#cb53ae" transform="translate(147.8667449951172 241.5870819091797)" style="animation-play-state:paused" ></use>
<path id="path4" d="M 178.91646305106428 253.45201158086738
c 0 56.31621370402414 -13.77949909779314 16.175933723496296 -29.95543282128944 16.175933723496296
S 119.00559740848541 309.7682252848915 119.00559740848541 253.45201158086738
s 13.77949909779314 -16.175933723496296 29.95543282128944 -16.175933723496296
S 178.91646305106428 197.13579787684324 178.91646305106428 253.45201158086738
z" fill="none" stroke="none" style="animation-play-state:paused" ></path>


<use xlink:href="#path-jg0va0wuf7d-2" x="0" y="0" stroke="#3587c6" transform="translate(125.79782104492188 283.4478454589844)" style="animation-play-state:paused" ></use>
<path id="path5" d="M 200.74589095336574 66.04160131167048
c 0 20.17117877605957 -4.935501189886915 5.793849222910727 -10.729350412797643 5.793849222910727
S 179.28719012777043 86.21278008773004 179.28719012777043 66.04160131167048
s 4.935501189886915 -5.793849222910727 10.729350412797643 -5.793849222910727
S 200.74589095336574 45.870422535610906 200.74589095336574 66.04160131167048
z" fill="none" stroke="none" style="animation-play-state:paused" ></path>


<use xlink:href="#path-jg0va0wuf7d-3" x="0" y="0" stroke="#3587c6" transform="translate(200.25425720214844 74.05595397949219)" style="animation-play-state:paused" ></use>
<path id="path6" d="M 238.91922367934725 447.8364353854881
c 0 54.1983791055536 -13.261305525826943 15.567619530318586 -28.82892505614553 15.567619530318586
S 181.2613735670562 502.0348144910417 181.2613735670562 447.8364353854881
s 13.261305525826943 -15.567619530318586 28.82892505614553 -15.567619530318586
S 238.91922367934725 393.63805627993446 238.91922367934725 447.8364353854881
z" fill="none" stroke="none" style="animation-play-state:paused" ></path>


<use xlink:href="#path-jg0va0wuf7d-1" x="0" y="0" stroke="#cb53ae" transform="translate(228.62400817871094 474.8323669433594)" style="animation-play-state:paused" ></use>
<path id="path7" d="M 263.08608338340076 347.7128445761743
c 0 22.938241456446146 -5.612548441470865 6.588643822596233 -12.201192264067098 6.588643822596233
S 238.68369885526656 370.6510860326204 238.68369885526656 347.7128445761743
s 5.612548441470865 -6.588643822596233 12.201192264067098 -6.588643822596233
S 263.08608338340076 324.77460311972817 263.08608338340076 347.7128445761743
z" fill="none" stroke="none" style="animation-play-state:paused" ></path>


<use xlink:href="#path-jg0va0wuf7d-3" x="0" y="0" stroke="#cb53ae" transform="translate(250.8524932861328 354.3016662597656)" style="animation-play-state:paused" ></use>
<path id="path8" d="M 318.36672437453615 446.8022408356087
c 0 57.64374309317689 -14.10432011854328 16.55724535655081 -30.661565475094086 16.55724535655081
S 257.04359342434793 504.4459839287856 257.04359342434793 446.8022408356087
s 14.10432011854328 -16.55724535655081 30.661565475094086 -16.55724535655081
S 318.36672437453615 389.1584977424318 318.36672437453615 446.8022408356087
z" fill="none" stroke="none" style="animation-play-state:paused" ></path>


<use xlink:href="#path-jg0va0wuf7d-2" x="0" y="0" stroke="#cb53ae" transform="translate(317.43212890625 466.71868896484375)" style="animation-play-state:paused" ></use>
<path id="path9" d="M 304.6900922646289 428.9384272078995
c 0 39.33145365392236 -9.623653553619299 11.297332432509613 -20.920985986128912 11.297332432509613
S 262.84812029237105 468.2698808618219 262.84812029237105 428.9384272078995
s 9.623653553619299 -11.297332432509613 20.920985986128912 -11.297332432509613
S 304.6900922646289 389.6069735539771 304.6900922646289 428.9384272078995
z" fill="none" stroke="none" style="animation-play-state:paused" ></path>


<use xlink:href="#path-jg0va0wuf7d-1" x="0" y="0" stroke="#3587c6" transform="translate(285.98016357421875 440.57427978515625)" style="animation-play-state:paused" ></use>
<path id="path10" d="M 355.94549279465895 548.9013916434822
c 0 26.769276347102775 -6.549929318971954 7.689047461401861 -14.238976780373815 7.689047461401861
S 327.4675392339113 575.6706679905849 327.4675392339113 548.9013916434822
s 6.549929318971954 -7.689047461401861 14.238976780373815 -7.689047461401861
S 355.94549279465895 522.1321152963794 355.94549279465895 548.9013916434822
z" fill="none" stroke="none" style="animation-play-state:paused" ></path>


<use xlink:href="#path-jg0va0wuf7d-1" x="0" y="0" stroke="#3587c6" transform="translate(340.15948486328125 556.8336181640625)" style="animation-play-state:paused" ></use>
<path id="path11" d="M 379.85087430338604 337.43770070736616
c 0 38.542130521027545 -9.430521297698228 11.070611958167488 -20.501133255865717 11.070611958167488
S 338.84860779165456 375.9798312283937 338.84860779165456 337.43770070736616
s 9.430521297698228 -11.070611958167488 20.501133255865717 -11.070611958167488
S 379.85087430338604 298.8955701863386 379.85087430338604 337.43770070736616
z" fill="none" stroke="none" style="animation-play-state:paused" ></path>


<use xlink:href="#path-jg0va0wuf7d-3" x="0" y="0" stroke="#cb53ae" transform="translate(372.585693359375 356.6761169433594)" style="animation-play-state:paused" ></use>
<path id="path12" d="M 407.9849866248934 453.6423028422673
c 0 39.931579138361336 -9.77049276789692 11.469708901444214 -21.240201669341133 11.469708901444214
S 365.5045832862112 493.57388198062864 365.5045832862112 453.6423028422673
s 9.77049276789692 -11.469708901444214 21.240201669341133 -11.469708901444214
S 407.9849866248934 413.710723703906 407.9849866248934 453.6423028422673
z" fill="none" stroke="none" style="animation-play-state:paused" ></path>


<use xlink:href="#path-jg0va0wuf7d-1" x="0" y="0" stroke="#cb53ae" transform="translate(390.6394348144531 466.1024475097656)" style="animation-play-state:paused" ></use>
<path id="path13" d="M 459.42855754400995 280.8469213313042
c 0 49.930519256084494 -12.217041945637694 14.34174489270512 -26.558786838342815 14.34174489270512
S 406.3109838673243 330.7774405873887 406.3109838673243 280.8469213313042
s 12.217041945637694 -14.34174489270512 26.558786838342815 -14.34174489270512
S 459.42855754400995 230.9164020752197 459.42855754400995 280.8469213313042
z" fill="none" stroke="none" style="animation-play-state:paused" ></path>


<use xlink:href="#path-jg0va0wuf7d-1" x="0" y="0" stroke="#cb53ae" transform="translate(406.60760498046875 292.4540100097656)" style="animation-play-state:paused" ></use>
<path id="path14" d="M 449.86870217776556 161.87910739663488
c 0 22.282498377160127 -5.452100666751946 6.400292087056632 -11.852392753808578 6.400292087056632
S 426.16391667014835 184.161605773795 426.16391667014835 161.87910739663488
s 5.452100666751946 -6.400292087056632 11.852392753808578 -6.400292087056632
S 449.86870217776556 139.59660901947476 449.86870217776556 161.87910739663488
z" fill="none" stroke="none" style="animation-play-state:paused" ></path>


<use xlink:href="#path-jg0va0wuf7d-3" x="0" y="0" stroke="#cb53ae" transform="translate(437.6678466796875 168.29501342773438)" style="animation-play-state:paused" ></use>
<path id="path15" d="M 494.85334113155926 94.5796602539417
c 0 53.698473903396525 -13.138988295511915 15.424029738209642 -28.563018033721555 15.424029738209642
S 437.72730506411614 148.27813415733823 437.72730506411614 94.5796602539417
s 13.138988295511915 -15.424029738209642 28.563018033721555 -15.424029738209642
S 494.85334113155926 40.88118635054517 494.85334113155926 94.5796602539417
z" fill="none" stroke="none" style="animation-play-state:paused" ></path>


<use xlink:href="#path-jg0va0wuf7d-3" x="0" y="0" stroke="#3587c6" transform="translate(474.90716552734375 113.35843658447266)" style="animation-play-state:paused" ></use>
<path id="path16" d="M 519.2050301898794 526.0777567883597
c 0 29.059487117744528 -7.110300039448128 8.346873959352152 -15.457173998800279 8.346873959352152
S 488.2906821922788 555.1372439061042 488.2906821922788 526.0777567883597
s 7.110300039448128 -8.346873959352152 15.457173998800279 -8.346873959352152
S 519.2050301898794 497.01826967061515 519.2050301898794 526.0777567883597
z" fill="none" stroke="none" style="animation-play-state:paused" ></path>


<use xlink:href="#path-jg0va0wuf7d-3" x="0" y="0" stroke="#3587c6" transform="translate(501.4616394042969 534.9031982421875)" style="animation-play-state:paused" ></use>
<path id="path17" d="M 558.5612887730664 187.8574318594154
c 0 36.14229641894584 -8.843327847188874 10.38129790756955 -19.224625754758424 10.38129790756955
S 520.1120372635495 223.99972827836126 520.1120372635495 187.8574318594154
s 8.843327847188874 -10.38129790756955 19.224625754758424 -10.38129790756955
S 558.5612887730664 151.71513544046957 558.5612887730664 187.8574318594154
z" fill="none" stroke="none" style="animation-play-state:paused" ></path>


<use xlink:href="#path-jg0va0wuf7d-2" x="0" y="0" stroke="#3587c6" transform="translate(521.7965698242188 205.08126831054688)" style="animation-play-state:paused" ></use>
<path id="path18" d="M 570.8176804565521 475.7502947003272
c 0 27.265287743919977 -6.671293809682547 7.831518820062121 -14.502812629744668 7.831518820062121
S 541.8120551970628 503.0155824442472 541.8120551970628 475.7502947003272
s 6.671293809682547 -7.831518820062121 14.502812629744668 -7.831518820062121
S 570.8176804565521 448.4850069564072 570.8176804565521 475.7502947003272
z" fill="none" stroke="none" style="animation-play-state:paused" ></path>


<use xlink:href="#path-jg0va0wuf7d-2" x="0" y="0" stroke="#47b33a" transform="translate(546.9035034179688 489.3943176269531)" style="animation-play-state:paused" ></use>
<path id="path19" d="M 630.7919560829109 80.43677990124652
c 0 61.52071927852185 -15.052941951127686 17.670844899149895 -32.72378685027758 17.670844899149895
S 565.3443823823557 141.95749917976838 565.3443823823557 80.43677990124652
s 15.052941951127686 -17.670844899149895 32.72378685027758 -17.670844899149895
S 630.7919560829109 18.91606062272467 630.7919560829109 80.43677990124652
z" fill="none" stroke="none" style="animation-play-state:paused" ></path>


<use xlink:href="#path-jg0va0wuf7d-2" x="0" y="0" stroke="#47b33a" transform="translate(605.971923828125 100.66557312011719)" style="animation-play-state:paused" ></use>
<path id="path20" d="M 667.1565925728906 214.953402729215
c 0 65.44253188802865 -16.01253439813467 18.797322989114615 -34.80985738724928 18.797322989114615
S 597.5368777983921 280.39593461724365 597.5368777983921 214.953402729215
s 16.01253439813467 -18.797322989114615 34.80985738724928 -18.797322989114615
S 667.1565925728906 149.51087084118632 667.1565925728906 214.953402729215
z" fill="none" stroke="none" style="animation-play-state:paused" ></path>


<use xlink:href="#path-jg0va0wuf7d-3" x="0" y="0" stroke="#47b33a" transform="translate(599.0983276367188 240.77490234375)" style="animation-play-state:paused" ></use>
<path id="path21" d="M 662.6126975398504 287.11089422499754
c 0 19.95517751295718 -4.882649817000161 5.731806306913233 -10.614456123913394 5.731806306913233
S 641.3837852920235 307.0660717379547 641.3837852920235 287.11089422499754
s 4.882649817000161 -5.731806306913233 10.614456123913394 -5.731806306913233
S 662.6126975398504 267.1557167120404 662.6126975398504 287.11089422499754
z" fill="none" stroke="none" style="animation-play-state:paused" ></path>


<use xlink:href="#path-jg0va0wuf7d-1" x="0" y="0" stroke="#cb53ae" transform="translate(662.5866088867188 289.4598083496094)" style="animation-play-state:paused" ></use>
<path id="path22" d="M 709.8527007520761 318.8466765107951
c 0 35.432602406700454 -8.66967931227777 10.177449627456514 -18.847128939734283 10.177449627456514
S 672.1584428726076 354.2792789174955 672.1584428726076 318.8466765107951
s 8.66967931227777 -10.177449627456514 18.847128939734283 -10.177449627456514
S 709.8527007520761 283.41407410409465 709.8527007520761 318.8466765107951
z" fill="none" stroke="none" style="animation-play-state:paused" ></path>


<use xlink:href="#path-jg0va0wuf7d-2" x="0" y="0" stroke="#3587c6" transform="translate(699.9422607421875 333.8486022949219)" style="animation-play-state:paused" ></use>
<path id="path23" d="M 727.4585987649812 451.7985467040875
c 0 38.31142572304706 -9.374072251383852 11.004345686407135 -20.378417937790985 11.004345686407135
S 686.7017628893991 490.1099724271346 686.7017628893991 451.7985467040875
s 9.374072251383852 -11.004345686407135 20.378417937790985 -11.004345686407135
S 727.4585987649812 413.48712098104045 727.4585987649812 451.7985467040875
z" fill="none" stroke="none" style="animation-play-state:paused" ></path>


<use xlink:href="#path-jg0va0wuf7d-1" x="0" y="0" stroke="#47b33a" transform="translate(700.9985961914062 465.1504821777344)" style="animation-play-state:paused" ></use>
<path id="path24" d="M 768.3335660499245 488.5408307390867
c 0 64.60375000820484 -15.80730053392246 18.556396278952455 -34.36369681287491 18.556396278952455
S 699.6061724241747 553.1445807472916 699.6061724241747 488.5408307390867
s 15.80730053392246 -18.556396278952455 34.36369681287491 -18.556396278952455
S 768.3335660499245 423.93708073088186 768.3335660499245 488.5408307390867
z" fill="none" stroke="none" style="animation-play-state:paused" ></path>


<use xlink:href="#path-jg0va0wuf7d-1" x="0" y="0" stroke="#47b33a" transform="translate(768.2838745117188 494.4763488769531)" style="animation-play-state:paused" ></use>
<path id="path25" d="M 818.3234626158326 464.28768411125975
c 0 63.02533911294273 -15.421093612741306 18.103022936696316 -33.52411654943762 18.103022936696316
S 751.2752295169573 527.3130232242024 751.2752295169573 464.28768411125975
s 15.421093612741306 -18.103022936696316 33.52411654943762 -18.103022936696316
S 818.3234626158326 401.262344998317 818.3234626158326 464.28768411125975
z" fill="none" stroke="none" style="animation-play-state:paused" ></path>


<use xlink:href="#path-jg0va0wuf7d-1" x="0" y="0" stroke="#cb53ae" transform="translate(818.0200805664062 477.6701965332031)" style="animation-play-state:paused" ></use>
<path id="path26" d="M 835.9386958790927 237.53751406950724
c 0 54.27098653251449 -13.279071172849289 15.58847485508395 -28.86754602793324 15.58847485508395
S 778.2036038232262 291.80850060202175 778.2036038232262 237.53751406950724
s 13.279071172849289 -15.58847485508395 28.86754602793324 -15.58847485508395
S 835.9386958790927 183.26652753699275 835.9386958790927 237.53751406950724
z" fill="none" stroke="none" style="animation-play-state:paused" ></path>


<use xlink:href="#path-jg0va0wuf7d-3" x="0" y="0" stroke="#3587c6" transform="translate(835.677734375 249.05538940429688)" style="animation-play-state:paused" ></use>
<path id="path27" d="M 842.2594526163435 110.46012499915642
c 0 41.73117219968082 -10.210818729709136 11.986613291397683 -22.197432021106817 11.986613291397683
S 797.8645885741299 152.19129719883725 797.8645885741299 110.46012499915642
s 10.210818729709136 -11.986613291397683 22.197432021106817 -11.986613291397683
S 842.2594526163435 68.72895279947559 842.2594526163435 110.46012499915642
z" fill="none" stroke="none" style="animation-play-state:paused" ></path>


<use xlink:href="#path-jg0va0wuf7d-3" x="0" y="0" stroke="#47b33a" transform="translate(829.2039184570312 126.94908142089844)" style="animation-play-state:paused" ></use>
<path id="path28" d="M 875.362277509204 465.03045796892104
c 0 22.58024311900807 -5.52495310358708 6.485814512906574 -12.010767616493654 6.485814512906574
S 851.3407422762166 487.6107010879291 851.3407422762166 465.03045796892104
s 5.52495310358708 -6.485814512906574 12.010767616493654 -6.485814512906574
S 875.362277509204 442.450214849913 875.362277509204 465.03045796892104
z" fill="none" stroke="none" style="animation-play-state:paused" ></path>


<use xlink:href="#path-jg0va0wuf7d-3" x="0" y="0" stroke="#cb53ae" transform="translate(875.3071899414062 468.5776672363281)" style="animation-play-state:paused" ></use>
<path id="path29" d="M 892.3591747007947 205.08604919080872
c 0 26.994780985369864 -6.605105985781988 7.753820070265813 -14.3589260560478 7.753820070265813
S 863.641322588699 232.08083017617858 863.641322588699 205.08604919080872
s 6.605105985781988 -7.753820070265813 14.3589260560478 -7.753820070265813
S 892.3591747007947 178.09126820543887 892.3591747007947 205.08604919080872
z" fill="none" stroke="none" style="animation-play-state:paused" ></path>


<use xlink:href="#path-jg0va0wuf7d-2" x="0" y="0" stroke="#3587c6" transform="translate(885.657470703125 217.2523193359375)" style="animation-play-state:paused" ></use>
<path id="path30" d="M 932.0123481415039 609.92129470673
c 0 33.17742234591504 -8.117879935702614 9.529685141911767 -17.64756507761438 9.529685141911767
S 896.7172179862753 643.098717052645 896.7172179862753 609.92129470673
s 8.117879935702614 -9.529685141911767 17.64756507761438 -9.529685141911767
S 932.0123481415039 576.743872360815 932.0123481415039 609.92129470673
z" fill="none" stroke="none" style="animation-play-state:paused" ></path>


<use xlink:href="#path-jg0va0wuf7d-1" x="0" y="0" stroke="#47b33a" transform="translate(911.9533081054688 619.9202270507812)" style="animation-play-state:paused" ></use>
<path id="path31" d="M 961.4386509204173 420.2687141198389
c 0 33.0477153451692 -8.086143116371186 9.49242887574009 -17.578571992111275 9.49242887574009
S 926.2815069361948 453.31642946500807 926.2815069361948 420.2687141198389
s 8.086143116371186 -9.49242887574009 17.578571992111275 -9.49242887574009
S 961.4386509204173 387.2209987746697 961.4386509204173 420.2687141198389
z" fill="none" stroke="none" style="animation-play-state:paused" ></path>


<use xlink:href="#path-jg0va0wuf7d-1" x="0" y="0" stroke="#3587c6" transform="translate(953.8175659179688 435.66082763671875)" style="animation-play-state:paused" ></use>
<path id="path32" d="M 995.6634138783894 214.1754654191398
c 0 40.41808626737449 -9.889531746272482 11.60945031084161 -21.49898205711409 11.60945031084161
S 952.6654497641613 254.5935516865143 952.6654497641613 214.1754654191398
s 9.889531746272482 -11.60945031084161 21.49898205711409 -11.60945031084161
S 995.6634138783894 173.75737915176532 995.6634138783894 214.1754654191398
z" fill="none" stroke="none" style="animation-play-state:paused" ></path>


<use xlink:href="#path-jg0va0wuf7d-3" x="0" y="0" stroke="#cb53ae" transform="translate(995.6581420898438 215.69393920898438)" style="animation-play-state:paused" ></use>
<path id="path33" d="M 1035.117830807223 139.08242832304632
c 0 33.766732600555535 -8.262072870348694 9.698955108670209 -17.9610279790189 9.698955108670209
S 999.1957748491852 172.84916092360186 999.1957748491852 139.08242832304632
s 8.262072870348694 -9.698955108670209 17.9610279790189 -9.698955108670209
S 1035.117830807223 105.31569572249077 1035.117830807223 139.08242832304632
z" fill="none" stroke="none" style="animation-play-state:paused" ></path>


<use xlink:href="#path-jg0va0wuf7d-3" x="0" y="0" stroke="#cb53ae" transform="translate(1024.5245361328125 152.4001922607422)" style="animation-play-state:paused" ></use>
<path id="path34" d="M 1046.6708529643863 143.2834951392382
c 0 22.91224246149961 -5.606186985260542 6.581176026175419 -12.187363011435961 6.581176026175419
S 1022.2961269415143 166.1957376007378 1022.2961269415143 143.2834951392382
s 5.606186985260542 -6.581176026175419 12.187363011435961 -6.581176026175419
S 1046.6708529643863 120.3712526777386 1046.6708529643863 143.2834951392382
z" fill="none" stroke="none" style="animation-play-state:paused" ></path>


<use xlink:href="#path-jg0va0wuf7d-3" x="0" y="0" stroke="#47b33a" transform="translate(1037.277587890625 150.7296600341797)" style="animation-play-state:paused" ></use>
<path id="path35" d="M 1077.4731666040839 312.5785063711441
c 0 29.33539384017519 -7.177809131106694 8.426123762603511 -15.603932893710207 8.426123762603511
S 1046.2653008166635 341.9139002113193 1046.2653008166635 312.5785063711441
s 7.177809131106694 -8.426123762603511 15.603932893710207 -8.426123762603511
S 1077.4731666040839 283.2431125309689 1077.4731666040839 312.5785063711441
z" fill="none" stroke="none" style="animation-play-state:paused" ></path>


<use xlink:href="#path-jg0va0wuf7d-3" x="0" y="0" stroke="#3587c6" transform="translate(1060.6087646484375 321.1541442871094)" style="animation-play-state:paused" ></use>
<path id="path36" d="M 1123.9711156801652 509.518800681085
c 0 54.78848007674043 -13.405691933670528 15.737116617787144 -29.142808551457673 15.737116617787144
S 1065.68549857725 564.3072807578254 1065.68549857725 509.518800681085
s 13.405691933670528 -15.737116617787144 29.142808551457673 -15.737116617787144
S 1123.9711156801652 454.73032060434457 1123.9711156801652 509.518800681085
z" fill="none" stroke="none" style="animation-play-state:paused" ></path>


<use xlink:href="#path-jg0va0wuf7d-2" x="0" y="0" stroke="#cb53ae" transform="translate(1080.966796875 532.7532348632812)" style="animation-play-state:paused" ></use>
<path id="path37" d="M 1147.6535864649666 605.4007043058567
c 0 35.2727833898539 -8.630574659219569 10.131544165170801 -18.76211882439037 10.131544165170801
S 1110.1293488161857 640.6734876957106 1110.1293488161857 605.4007043058567
s 8.630574659219569 -10.131544165170801 18.76211882439037 -10.131544165170801
S 1147.6535864649666 570.1279209160028 1147.6535864649666 605.4007043058567
z" fill="none" stroke="none" style="animation-play-state:paused" ></path>


<use xlink:href="#path-jg0va0wuf7d-1" x="0" y="0" stroke="#47b33a" transform="translate(1133.9781494140625 617.346923828125)" style="animation-play-state:paused" ></use>
<path id="path38" d="M 1164.336756800534 499.29068872788747
c 0 38.09096471245393 -9.320129663685535 10.941021779109107 -20.26115144279464 10.941021779109107
S 1123.8144539149446 537.3816534403414 1123.8144539149446 499.29068872788747
s 9.320129663685535 -10.941021779109107 20.26115144279464 -10.941021779109107
S 1164.336756800534 461.19972401543356 1164.336756800534 499.29068872788747
z" fill="none" stroke="none" style="animation-play-state:paused" ></path>


<use xlink:href="#path-jg0va0wuf7d-1" x="0" y="0" stroke="#47b33a" transform="translate(1154.1373291015625 515.8131713867188)" style="animation-play-state:paused" ></use>
<path id="path39" d="M 1223.1484623915087 412.23809787544747
c 0 47.109172878427756 -11.52671251280679 13.531358167207973 -25.058070680014765 13.531358167207973
S 1173.0323210314793 459.34727075387525 1173.0323210314793 412.23809787544747
s 11.52671251280679 -13.531358167207973 25.058070680014765 -13.531358167207973
S 1223.1484623915087 365.1289249970197 1223.1484623915087 412.23809787544747
z" fill="none" stroke="none" style="animation-play-state:paused" ></path>


<use xlink:href="#path-jg0va0wuf7d-1" x="0" y="0" stroke="#cb53ae" transform="translate(1222.942138671875 421.852294921875)" style="animation-play-state:paused" ></use>
<path id="path40" d="M 1230.3883420817347 117.45500263821455
c 0 45.18507412583232 -11.055922392490887 12.978691504228435 -24.03461389671932 12.978691504228435
S 1182.319114288296 162.64007676404688 1182.319114288296 117.45500263821455
s 11.055922392490887 -12.978691504228435 24.03461389671932 -12.978691504228435
S 1230.3883420817347 72.26992851238222 1230.3883420817347 117.45500263821455
z" fill="none" stroke="none" style="animation-play-state:paused" ></path>


<use xlink:href="#path-jg0va0wuf7d-2" x="0" y="0" stroke="#3587c6" transform="translate(1214.437744140625 133.8636932373047)" style="animation-play-state:paused" ></use>
<path id="path41" d="M 1281.6732703351088 358.56101293940947
c 0 64.05003474700273 -15.671817012564496 18.397350406053977 -34.06916741861848 18.397350406053977
S 1213.5349354978719 422.6110476864122 1213.5349354978719 358.56101293940947
s 15.671817012564496 -18.397350406053977 34.06916741861848 -18.397350406053977
S 1281.6732703351088 294.51097819240675 1281.6732703351088 358.56101293940947
z" fill="none" stroke="none" style="animation-play-state:paused" ></path>


<use xlink:href="#path-jg0va0wuf7d-1" x="0" y="0" stroke="#3587c6" transform="translate(1233.795166015625 383.68359375)" style="animation-play-state:paused" ></use>
<path id="path42" d="M 1302.8124946034638 67.26146272101302
c 0 29.292360443681417 -7.167279683028431 8.413763106163811 -15.581042789192242 8.413763106163811
S 1271.6504090250794 96.55382316469444 1271.6504090250794 67.26146272101302
s 7.167279683028431 -8.413763106163811 15.581042789192242 -8.413763106163811
S 1302.8124946034638 37.9691022773316 1302.8124946034638 67.26146272101302
z" fill="none" stroke="none" style="animation-play-state:paused" ></path>


<use xlink:href="#path-jg0va0wuf7d-1" x="0" y="0" stroke="#cb53ae" transform="translate(1289.65185546875 76.20498657226562)" style="animation-play-state:paused" ></use>
<path id="path43" d="M 1314.7316207982817 101.5656678800475
c 0 65.0023014043126 -15.904818428714783 18.670873807621703 -34.57569223633649 18.670873807621703
S 1245.580236325609 166.56796928436012 1245.580236325609 101.5656678800475
s 15.904818428714783 -18.670873807621703 34.57569223633649 -18.670873807621703
S 1314.7316207982817 36.563366475734895 1314.7316207982817 101.5656678800475
z" fill="none" stroke="none" style="animation-play-state:paused" ></path>


<use xlink:href="#path-jg0va0wuf7d-1" x="0" y="0" stroke="#cb53ae" transform="translate(1280.6312255859375 120.24678039550781)" style="animation-play-state:paused" ></use>
<path id="path44" d="M 1344.426893758344 207.57745846457826
c 0 24.853440170512982 -6.081160892785091 7.138754091530324 -13.219914984315416 7.138754091530324
S 1317.9870637897131 232.43089863509124 1317.9870637897131 207.57745846457826
s 6.081160892785091 -7.138754091530324 13.219914984315416 -7.138754091530324
S 1344.426893758344 182.72401829406527 1344.426893758344 207.57745846457826
z" fill="none" stroke="none" style="animation-play-state:paused" ></path>


<use xlink:href="#path-jg0va0wuf7d-2" x="0" y="0" stroke="#3587c6" transform="translate(1344.3077392578125 212.84461975097656)" style="animation-play-state:paused" ></use></g></svg>