<svg xmlns="http://www.w3.org/2000/svg" viewBox="0 0 500 500"><g id="freepik--background-simple--inject-21"><path d="M478.47,221a290.11,290.11,0,0,0-10.69-32.13C438.53,115.58,375.83,60.32,297.71,45c-77.65-15.28-212,5.67-231.61,100.2C62,164.73,65.83,185,65.73,205c-.2,38-16.47,65.93-34.18,98C18.22,327,6.87,354.74,13.2,381.57,17.3,399,28.52,414,41.54,426.22c44.08,41.52,103.12,50,161,40.52,27.44-4.51,54.18-16.5,81.31-19.89,34.75-4.35,69.84,6.81,104.44-.77,33.22-7.28,61.32-31.46,77.71-61.25C493.32,335.25,492.85,274.4,478.47,221Z" style="fill:#0EC0C1"></path><path d="M478.47,221a290.11,290.11,0,0,0-10.69-32.13C438.53,115.58,375.83,60.32,297.71,45c-77.65-15.28-212,5.67-231.61,100.2C62,164.73,65.83,185,65.73,205c-.2,38-16.47,65.93-34.18,98C18.22,327,6.87,354.74,13.2,381.57,17.3,399,28.52,414,41.54,426.22c44.08,41.52,103.12,50,161,40.52,27.44-4.51,54.18-16.5,81.31-19.89,34.75-4.35,69.84,6.81,104.44-.77,33.22-7.28,61.32-31.46,77.71-61.25C493.32,335.25,492.85,274.4,478.47,221Z" style="fill:#fff;opacity:0.7000000000000001"></path></g><g id="freepik--Graphics--inject-21"><g style="opacity:0.2"><path d="M294.5,122.51h-6.18a1.53,1.53,0,1,1,0-3.05h6.18a1.53,1.53,0,1,1,0,3.05Zm1.53,5.54a1.53,1.53,0,0,0-1.53-1.53h-6.18a1.53,1.53,0,1,0,0,3h6.18A1.53,1.53,0,0,0,296,128.05Zm0,7.06a1.53,1.53,0,0,0-1.53-1.52h-6.18a1.53,1.53,0,1,0,0,3h6.18A1.53,1.53,0,0,0,296,135.11Zm0,7.07a1.53,1.53,0,0,0-1.53-1.52h-6.18a1.53,1.53,0,1,0,0,3.05h6.18A1.54,1.54,0,0,0,296,142.18Zm0,7.07a1.53,1.53,0,0,0-1.53-1.53h-6.18a1.53,1.53,0,1,0,0,3.05h6.18A1.53,1.53,0,0,0,296,149.25Zm0,7.06a1.53,1.53,0,0,0-1.53-1.52h-6.18a1.53,1.53,0,1,0,0,3.05h6.18A1.53,1.53,0,0,0,296,156.31Zm0,7.07a1.53,1.53,0,0,0-1.53-1.52h-6.18a1.53,1.53,0,1,0,0,3h6.18A1.54,1.54,0,0,0,296,163.38Zm0,7.07a1.53,1.53,0,0,0-1.53-1.53h-6.18a1.53,1.53,0,1,0,0,3.05h6.18A1.53,1.53,0,0,0,296,170.45ZM319.16,121a1.52,1.52,0,0,0-1.53-1.52H301.4a1.53,1.53,0,0,0,0,3.05h16.23A1.53,1.53,0,0,0,319.16,121Zm0,7.07a1.52,1.52,0,0,0-1.53-1.53H301.4a1.53,1.53,0,0,0,0,3h16.23A1.52,1.52,0,0,0,319.16,128.05Zm0,7.06a1.52,1.52,0,0,0-1.53-1.52H301.4a1.53,1.53,0,0,0,0,3h16.23A1.52,1.52,0,0,0,319.16,135.11Zm0,7.07a1.52,1.52,0,0,0-1.53-1.52H301.4a1.53,1.53,0,0,0,0,3.05h16.23A1.53,1.53,0,0,0,319.16,142.18Zm0,7.07a1.52,1.52,0,0,0-1.53-1.53H301.4a1.53,1.53,0,0,0,0,3.05h16.23A1.52,1.52,0,0,0,319.16,149.25Zm19.43,7.06a1.52,1.52,0,0,0-1.52-1.52H320.84a1.53,1.53,0,1,0,0,3.05h16.23A1.52,1.52,0,0,0,338.59,156.31Zm0,7.07a1.52,1.52,0,0,0-1.52-1.52H320.84a1.53,1.53,0,1,0,0,3h16.23A1.53,1.53,0,0,0,338.59,163.38Zm0,7.07a1.52,1.52,0,0,0-1.52-1.53H320.84a1.53,1.53,0,1,0,0,3.05h16.23A1.52,1.52,0,0,0,338.59,170.45ZM326.3,121a1.77,1.77,0,1,0-1.76,1.77A1.77,1.77,0,0,0,326.3,121Zm5.3,0a1.77,1.77,0,1,0-1.76,1.77A1.77,1.77,0,0,0,331.6,121Zm5.3,0a1.77,1.77,0,1,0-1.76,1.77A1.77,1.77,0,0,0,336.9,121Zm5.3,0a1.77,1.77,0,1,0-1.76,1.77A1.77,1.77,0,0,0,342.2,121Zm5.3,0a1.77,1.77,0,1,0-1.76,1.77A1.77,1.77,0,0,0,347.5,121Zm5.3,0a1.77,1.77,0,1,0-1.76,1.77A1.77,1.77,0,0,0,352.8,121Zm-26.5,14.13a1.77,1.77,0,1,0-1.76,1.77A1.76,1.76,0,0,0,326.3,135.11Zm5.3,0a1.77,1.77,0,1,0-1.76,1.77A1.76,1.76,0,0,0,331.6,135.11Zm5.3,0a1.77,1.77,0,1,0-1.76,1.77A1.76,1.76,0,0,0,336.9,135.11Zm5.3,0a1.77,1.77,0,1,0-1.76,1.77A1.76,1.76,0,0,0,342.2,135.11Zm5.3,0a1.77,1.77,0,1,0-1.76,1.77A1.76,1.76,0,0,0,347.5,135.11Zm5.3,0a1.77,1.77,0,1,0-1.76,1.77A1.76,1.76,0,0,0,352.8,135.11Zm-8.39,20.32a1.77,1.77,0,1,0-1.77,1.77A1.77,1.77,0,0,0,344.41,155.43Zm5.3,0a1.77,1.77,0,1,0-1.77,1.77A1.77,1.77,0,0,0,349.71,155.43Zm5.3,0a1.77,1.77,0,1,0-1.77,1.77A1.77,1.77,0,0,0,355,155.43Zm5.3,0a1.77,1.77,0,1,0-1.77,1.77A1.77,1.77,0,0,0,360.31,155.43Zm5.3,0a1.77,1.77,0,1,0-1.77,1.77A1.77,1.77,0,0,0,365.61,155.43Zm5.3,0a1.77,1.77,0,1,0-1.77,1.77A1.77,1.77,0,0,0,370.91,155.43ZM344.41,170a1.77,1.77,0,1,0-1.77,1.76A1.77,1.77,0,0,0,344.41,170Zm5.3,0a1.77,1.77,0,1,0-1.77,1.76A1.77,1.77,0,0,0,349.71,170Zm5.3,0a1.77,1.77,0,1,0-1.77,1.76A1.77,1.77,0,0,0,355,170Zm5.3,0a1.77,1.77,0,1,0-1.77,1.76A1.77,1.77,0,0,0,360.31,170Zm5.3,0a1.77,1.77,0,1,0-1.77,1.76A1.77,1.77,0,0,0,365.61,170Zm5.3,0a1.77,1.77,0,1,0-1.77,1.76A1.77,1.77,0,0,0,370.91,170Z"></path><path d="M294.5,180.42h-6.18a1.53,1.53,0,1,1,0-3h6.18a1.53,1.53,0,1,1,0,3ZM296,186a1.53,1.53,0,0,0-1.53-1.52h-6.18a1.53,1.53,0,1,0,0,3.05h6.18A1.54,1.54,0,0,0,296,186Zm0,7.07a1.53,1.53,0,0,0-1.53-1.53h-6.18a1.53,1.53,0,1,0,0,3.05h6.18A1.53,1.53,0,0,0,296,193Zm0,7.06a1.53,1.53,0,0,0-1.53-1.52h-6.18a1.53,1.53,0,1,0,0,3.05h6.18A1.53,1.53,0,0,0,296,200.09Zm0,7.07a1.54,1.54,0,0,0-1.53-1.53h-6.18a1.53,1.53,0,1,0,0,3.05h6.18A1.53,1.53,0,0,0,296,207.16Zm0,7.07a1.53,1.53,0,0,0-1.53-1.53h-6.18a1.53,1.53,0,1,0,0,3.05h6.18A1.53,1.53,0,0,0,296,214.23Zm0,7.06a1.53,1.53,0,0,0-1.53-1.52h-6.18a1.53,1.53,0,1,0,0,3h6.18A1.53,1.53,0,0,0,296,221.29Zm0,7.07a1.53,1.53,0,0,0-1.53-1.52h-6.18a1.53,1.53,0,1,0,0,3h6.18A1.54,1.54,0,0,0,296,228.36Zm23.13-49.47a1.52,1.52,0,0,0-1.53-1.52H301.4a1.53,1.53,0,0,0,0,3h16.23A1.52,1.52,0,0,0,319.16,178.89Zm0,7.07a1.52,1.52,0,0,0-1.53-1.52H301.4a1.53,1.53,0,0,0,0,3.05h16.23A1.53,1.53,0,0,0,319.16,186Zm0,7.07a1.52,1.52,0,0,0-1.53-1.53H301.4a1.53,1.53,0,0,0,0,3.05h16.23A1.52,1.52,0,0,0,319.16,193Zm0,7.06a1.52,1.52,0,0,0-1.53-1.52H301.4a1.53,1.53,0,0,0,0,3.05h16.23A1.52,1.52,0,0,0,319.16,200.09Zm0,7.07a1.53,1.53,0,0,0-1.53-1.53H301.4a1.53,1.53,0,0,0,0,3.05h16.23A1.52,1.52,0,0,0,319.16,207.16Zm19.43,7.07a1.52,1.52,0,0,0-1.52-1.53H320.84a1.53,1.53,0,1,0,0,3.05h16.23A1.52,1.52,0,0,0,338.59,214.23Zm0,7.06a1.52,1.52,0,0,0-1.52-1.52H320.84a1.53,1.53,0,1,0,0,3h16.23A1.52,1.52,0,0,0,338.59,221.29Zm0,7.07a1.52,1.52,0,0,0-1.52-1.52H320.84a1.53,1.53,0,1,0,0,3h16.23A1.53,1.53,0,0,0,338.59,228.36ZM326.3,178.89a1.77,1.77,0,1,0-1.76,1.77A1.76,1.76,0,0,0,326.3,178.89Zm5.3,0a1.77,1.77,0,1,0-1.76,1.77A1.76,1.76,0,0,0,331.6,178.89Zm5.3,0a1.77,1.77,0,1,0-1.76,1.77A1.76,1.76,0,0,0,336.9,178.89Zm5.3,0a1.77,1.77,0,1,0-1.76,1.77A1.76,1.76,0,0,0,342.2,178.89Zm5.3,0a1.77,1.77,0,1,0-1.76,1.77A1.76,1.76,0,0,0,347.5,178.89Zm5.3,0a1.77,1.77,0,1,0-1.76,1.77A1.76,1.76,0,0,0,352.8,178.89ZM326.3,193a1.77,1.77,0,1,0-1.76,1.76A1.76,1.76,0,0,0,326.3,193Zm5.3,0a1.77,1.77,0,1,0-1.76,1.76A1.76,1.76,0,0,0,331.6,193Zm5.3,0a1.77,1.77,0,1,0-1.76,1.76A1.76,1.76,0,0,0,336.9,193Zm5.3,0a1.77,1.77,0,1,0-1.76,1.76A1.76,1.76,0,0,0,342.2,193Zm5.3,0a1.77,1.77,0,1,0-1.76,1.76A1.76,1.76,0,0,0,347.5,193Zm5.3,0a1.77,1.77,0,1,0-1.76,1.76A1.76,1.76,0,0,0,352.8,193Zm-8.39,20.31a1.77,1.77,0,1,0-1.77,1.77A1.76,1.76,0,0,0,344.41,213.34Zm5.3,0a1.77,1.77,0,1,0-1.77,1.77A1.76,1.76,0,0,0,349.71,213.34Zm5.3,0a1.77,1.77,0,1,0-1.77,1.77A1.76,1.76,0,0,0,355,213.34Zm5.3,0a1.77,1.77,0,1,0-1.77,1.77A1.76,1.76,0,0,0,360.31,213.34Zm5.3,0a1.77,1.77,0,1,0-1.77,1.77A1.76,1.76,0,0,0,365.61,213.34Zm5.3,0a1.77,1.77,0,1,0-1.77,1.77A1.76,1.76,0,0,0,370.91,213.34Zm-26.5,14.58a1.77,1.77,0,1,0-1.77,1.77A1.77,1.77,0,0,0,344.41,227.92Zm5.3,0a1.77,1.77,0,1,0-1.77,1.77A1.77,1.77,0,0,0,349.71,227.92Zm5.3,0a1.77,1.77,0,1,0-1.77,1.77A1.77,1.77,0,0,0,355,227.92Zm5.3,0a1.77,1.77,0,1,0-1.77,1.77A1.77,1.77,0,0,0,360.31,227.92Zm5.3,0a1.77,1.77,0,1,0-1.77,1.77A1.77,1.77,0,0,0,365.61,227.92Zm5.3,0a1.77,1.77,0,1,0-1.77,1.77A1.77,1.77,0,0,0,370.91,227.92Z"></path><path d="M389.43,66h-6.18a1.53,1.53,0,0,1,0-3h6.18a1.53,1.53,0,1,1,0,3ZM391,71.5A1.52,1.52,0,0,0,389.43,70h-6.18a1.53,1.53,0,0,0,0,3h6.18A1.53,1.53,0,0,0,391,71.5Zm0,7.07A1.52,1.52,0,0,0,389.43,77h-6.18a1.53,1.53,0,0,0,0,3h6.18A1.52,1.52,0,0,0,391,78.57Zm0,7.06a1.52,1.52,0,0,0-1.53-1.52h-6.18a1.53,1.53,0,0,0,0,3h6.18A1.52,1.52,0,0,0,391,85.63Zm0,7.07a1.53,1.53,0,0,0-1.53-1.53h-6.18a1.53,1.53,0,0,0,0,3h6.18A1.52,1.52,0,0,0,391,92.7Zm0,7.07a1.52,1.52,0,0,0-1.53-1.53h-6.18a1.53,1.53,0,0,0,0,3.05h6.18A1.52,1.52,0,0,0,391,99.77Zm0,7.06a1.52,1.52,0,0,0-1.53-1.52h-6.18a1.53,1.53,0,0,0,0,3h6.18A1.52,1.52,0,0,0,391,106.83Zm0,7.07a1.53,1.53,0,0,0-1.53-1.53h-6.18a1.53,1.53,0,0,0,0,3h6.18A1.52,1.52,0,0,0,391,113.9Zm23.13-49.47a1.52,1.52,0,0,0-1.52-1.52H396.34a1.53,1.53,0,1,0,0,3h16.23A1.52,1.52,0,0,0,414.09,64.43Zm0,7.07A1.52,1.52,0,0,0,412.57,70H396.34a1.53,1.53,0,1,0,0,3h16.23A1.53,1.53,0,0,0,414.09,71.5Zm0,7.07A1.52,1.52,0,0,0,412.57,77H396.34a1.53,1.53,0,1,0,0,3h16.23A1.52,1.52,0,0,0,414.09,78.57Zm0,7.06a1.52,1.52,0,0,0-1.52-1.52H396.34a1.53,1.53,0,1,0,0,3h16.23A1.52,1.52,0,0,0,414.09,85.63Zm0,7.07a1.53,1.53,0,0,0-1.52-1.53H396.34a1.53,1.53,0,1,0,0,3h16.23A1.52,1.52,0,0,0,414.09,92.7Zm19.43,7.07A1.52,1.52,0,0,0,432,98.24H415.77a1.53,1.53,0,1,0,0,3.05H432A1.52,1.52,0,0,0,433.52,99.77Zm0,7.06a1.52,1.52,0,0,0-1.52-1.52H415.77a1.53,1.53,0,1,0,0,3H432A1.52,1.52,0,0,0,433.52,106.83Zm0,7.07a1.53,1.53,0,0,0-1.52-1.53H415.77a1.53,1.53,0,1,0,0,3H432A1.52,1.52,0,0,0,433.52,113.9ZM421.23,64.43a1.77,1.77,0,1,0-1.76,1.77A1.76,1.76,0,0,0,421.23,64.43Zm5.3,0a1.77,1.77,0,1,0-1.76,1.77A1.76,1.76,0,0,0,426.53,64.43Zm5.3,0a1.77,1.77,0,1,0-1.76,1.77A1.76,1.76,0,0,0,431.83,64.43Zm5.3,0a1.77,1.77,0,1,0-1.76,1.77A1.76,1.76,0,0,0,437.13,64.43Zm5.3,0a1.77,1.77,0,1,0-1.76,1.77A1.76,1.76,0,0,0,442.43,64.43Zm5.3,0A1.77,1.77,0,1,0,446,66.2,1.76,1.76,0,0,0,447.73,64.43Zm-26.5,14.14a1.77,1.77,0,1,0-1.76,1.76A1.76,1.76,0,0,0,421.23,78.57Zm5.3,0a1.77,1.77,0,1,0-1.76,1.76A1.76,1.76,0,0,0,426.53,78.57Zm5.3,0a1.77,1.77,0,1,0-1.76,1.76A1.76,1.76,0,0,0,431.83,78.57Zm5.3,0a1.77,1.77,0,1,0-1.76,1.76A1.76,1.76,0,0,0,437.13,78.57Zm5.3,0a1.77,1.77,0,1,0-1.76,1.76A1.76,1.76,0,0,0,442.43,78.57Zm5.3,0A1.77,1.77,0,1,0,446,80.33,1.76,1.76,0,0,0,447.73,78.57Zm-8.39,20.31a1.77,1.77,0,1,0-1.76,1.77A1.76,1.76,0,0,0,439.34,98.88Zm5.3,0a1.77,1.77,0,1,0-1.76,1.77A1.76,1.76,0,0,0,444.64,98.88Zm5.3,0a1.77,1.77,0,1,0-1.76,1.77A1.76,1.76,0,0,0,449.94,98.88Zm5.3,0a1.77,1.77,0,1,0-1.76,1.77A1.76,1.76,0,0,0,455.24,98.88Zm5.3,0a1.77,1.77,0,1,0-1.76,1.77A1.76,1.76,0,0,0,460.54,98.88Zm5.3,0a1.77,1.77,0,1,0-1.76,1.77A1.76,1.76,0,0,0,465.84,98.88Zm-26.5,14.58a1.77,1.77,0,1,0-1.76,1.76A1.76,1.76,0,0,0,439.34,113.46Zm5.3,0a1.77,1.77,0,1,0-1.76,1.76A1.76,1.76,0,0,0,444.64,113.46Zm5.3,0a1.77,1.77,0,1,0-1.76,1.76A1.76,1.76,0,0,0,449.94,113.46Zm5.3,0a1.77,1.77,0,1,0-1.76,1.76A1.76,1.76,0,0,0,455.24,113.46Zm5.3,0a1.77,1.77,0,1,0-1.76,1.76A1.76,1.76,0,0,0,460.54,113.46Zm5.3,0a1.77,1.77,0,1,0-1.76,1.76A1.76,1.76,0,0,0,465.84,113.46Z"></path><path d="M389.43,43.31h-6.18a1.53,1.53,0,0,1,0-3.05h6.18a1.53,1.53,0,1,1,0,3.05ZM391,48.85a1.52,1.52,0,0,0-1.53-1.52h-6.18a1.53,1.53,0,0,0,0,3.05h6.18A1.53,1.53,0,0,0,391,48.85Zm23.13-7.07a1.52,1.52,0,0,0-1.52-1.52H396.34a1.53,1.53,0,1,0,0,3.05h16.23A1.52,1.52,0,0,0,414.09,41.78Zm0,7.07a1.52,1.52,0,0,0-1.52-1.52H396.34a1.53,1.53,0,1,0,0,3.05h16.23A1.53,1.53,0,0,0,414.09,48.85Zm7.14-7.07a1.77,1.77,0,1,0-1.76,1.77A1.76,1.76,0,0,0,421.23,41.78Zm5.3,0a1.77,1.77,0,1,0-1.76,1.77A1.76,1.76,0,0,0,426.53,41.78Zm5.3,0a1.77,1.77,0,1,0-1.76,1.77A1.76,1.76,0,0,0,431.83,41.78Zm5.3,0a1.77,1.77,0,1,0-1.76,1.77A1.76,1.76,0,0,0,437.13,41.78Zm5.3,0a1.77,1.77,0,1,0-1.76,1.77A1.76,1.76,0,0,0,442.43,41.78Zm5.3,0A1.77,1.77,0,1,0,446,43.55,1.76,1.76,0,0,0,447.73,41.78Z"></path><path d="M389.43,123.87h-6.18a1.53,1.53,0,0,1,0-3.05h6.18a1.53,1.53,0,1,1,0,3.05Zm1.53,5.54a1.52,1.52,0,0,0-1.53-1.52h-6.18a1.53,1.53,0,0,0,0,3h6.18A1.52,1.52,0,0,0,391,129.41Zm0,7.07a1.53,1.53,0,0,0-1.53-1.53h-6.18a1.53,1.53,0,0,0,0,3.05h6.18A1.52,1.52,0,0,0,391,136.48Zm0,7.07a1.52,1.52,0,0,0-1.53-1.53h-6.18a1.53,1.53,0,0,0,0,3h6.18A1.52,1.52,0,0,0,391,143.55Zm0,7.06a1.52,1.52,0,0,0-1.53-1.52h-6.18a1.53,1.53,0,0,0,0,3h6.18A1.53,1.53,0,0,0,391,150.61Zm0,7.07a1.53,1.53,0,0,0-1.53-1.53h-6.18a1.53,1.53,0,0,0,0,3h6.18A1.52,1.52,0,0,0,391,157.68Zm0,7.07a1.52,1.52,0,0,0-1.53-1.53h-6.18a1.53,1.53,0,0,0,0,3.05h6.18A1.52,1.52,0,0,0,391,164.75Zm0,7.06a1.52,1.52,0,0,0-1.53-1.52h-6.18a1.53,1.53,0,0,0,0,3.05h6.18A1.52,1.52,0,0,0,391,171.81Zm23.13-49.46a1.52,1.52,0,0,0-1.52-1.53H396.34a1.53,1.53,0,1,0,0,3.05h16.23A1.52,1.52,0,0,0,414.09,122.35Zm0,7.06a1.52,1.52,0,0,0-1.52-1.52H396.34a1.53,1.53,0,1,0,0,3h16.23A1.52,1.52,0,0,0,414.09,129.41Zm0,7.07a1.53,1.53,0,0,0-1.52-1.53H396.34a1.53,1.53,0,1,0,0,3.05h16.23A1.52,1.52,0,0,0,414.09,136.48Zm0,7.07a1.52,1.52,0,0,0-1.52-1.53H396.34a1.53,1.53,0,1,0,0,3h16.23A1.52,1.52,0,0,0,414.09,143.55Zm0,7.06a1.52,1.52,0,0,0-1.52-1.52H396.34a1.53,1.53,0,1,0,0,3h16.23A1.53,1.53,0,0,0,414.09,150.61Zm19.43,7.07a1.53,1.53,0,0,0-1.52-1.53H415.77a1.53,1.53,0,1,0,0,3H432A1.52,1.52,0,0,0,433.52,157.68Zm0,7.07a1.52,1.52,0,0,0-1.52-1.53H415.77a1.53,1.53,0,1,0,0,3.05H432A1.52,1.52,0,0,0,433.52,164.75Zm0,7.06a1.52,1.52,0,0,0-1.52-1.52H415.77a1.53,1.53,0,1,0,0,3.05H432A1.52,1.52,0,0,0,433.52,171.81Zm-12.29-49.46a1.77,1.77,0,1,0-1.76,1.76A1.76,1.76,0,0,0,421.23,122.35Zm5.3,0a1.77,1.77,0,1,0-1.76,1.76A1.76,1.76,0,0,0,426.53,122.35Zm5.3,0a1.77,1.77,0,1,0-1.76,1.76A1.76,1.76,0,0,0,431.83,122.35Zm5.3,0a1.77,1.77,0,1,0-1.76,1.76A1.76,1.76,0,0,0,437.13,122.35Zm5.3,0a1.77,1.77,0,1,0-1.76,1.76A1.76,1.76,0,0,0,442.43,122.35Zm5.3,0a1.77,1.77,0,1,0-1.76,1.76A1.76,1.76,0,0,0,447.73,122.35Zm-26.5,14.13a1.77,1.77,0,1,0-1.76,1.77A1.76,1.76,0,0,0,421.23,136.48Zm5.3,0a1.77,1.77,0,1,0-1.76,1.77A1.76,1.76,0,0,0,426.53,136.48Zm5.3,0a1.77,1.77,0,1,0-1.76,1.77A1.76,1.76,0,0,0,431.83,136.48Zm5.3,0a1.77,1.77,0,1,0-1.76,1.77A1.76,1.76,0,0,0,437.13,136.48Zm5.3,0a1.77,1.77,0,1,0-1.76,1.77A1.76,1.76,0,0,0,442.43,136.48Zm5.3,0a1.77,1.77,0,1,0-1.76,1.77A1.76,1.76,0,0,0,447.73,136.48Zm-8.39,20.32a1.77,1.77,0,1,0-1.76,1.76A1.76,1.76,0,0,0,439.34,156.8Zm5.3,0a1.77,1.77,0,1,0-1.76,1.76A1.76,1.76,0,0,0,444.64,156.8Zm5.3,0a1.77,1.77,0,1,0-1.76,1.76A1.76,1.76,0,0,0,449.94,156.8Zm5.3,0a1.77,1.77,0,1,0-1.76,1.76A1.76,1.76,0,0,0,455.24,156.8Zm5.3,0a1.77,1.77,0,1,0-1.76,1.76A1.76,1.76,0,0,0,460.54,156.8Zm5.3,0a1.77,1.77,0,1,0-1.76,1.76A1.76,1.76,0,0,0,465.84,156.8Zm-26.5,14.57a1.77,1.77,0,1,0-1.76,1.77A1.77,1.77,0,0,0,439.34,171.37Zm5.3,0a1.77,1.77,0,1,0-1.76,1.77A1.77,1.77,0,0,0,444.64,171.37Zm5.3,0a1.77,1.77,0,1,0-1.76,1.77A1.77,1.77,0,0,0,449.94,171.37Zm5.3,0a1.77,1.77,0,1,0-1.76,1.77A1.77,1.77,0,0,0,455.24,171.37Zm5.3,0a1.77,1.77,0,1,0-1.76,1.77A1.77,1.77,0,0,0,460.54,171.37Zm5.3,0a1.77,1.77,0,1,0-1.76,1.77A1.77,1.77,0,0,0,465.84,171.37Z"></path></g><g style="opacity:0.2"><path d="M42.07,134.94H35.88a1.53,1.53,0,0,1,0-3.05h6.19a1.53,1.53,0,0,1,0,3.05Zm1.52,5.54A1.52,1.52,0,0,0,42.07,139H35.88a1.53,1.53,0,0,0,0,3h6.19A1.53,1.53,0,0,0,43.59,140.48Zm0,7.07A1.52,1.52,0,0,0,42.07,146H35.88a1.53,1.53,0,0,0,0,3h6.19A1.52,1.52,0,0,0,43.59,147.55Zm0,7.06a1.52,1.52,0,0,0-1.52-1.52H35.88a1.53,1.53,0,0,0,0,3h6.19A1.52,1.52,0,0,0,43.59,154.61Zm0,7.07a1.52,1.52,0,0,0-1.52-1.52H35.88a1.53,1.53,0,0,0,0,3.05h6.19A1.53,1.53,0,0,0,43.59,161.68Zm0,7.07a1.53,1.53,0,0,0-1.52-1.53H35.88a1.53,1.53,0,0,0,0,3.05h6.19A1.52,1.52,0,0,0,43.59,168.75Zm0,7.06a1.52,1.52,0,0,0-1.52-1.52H35.88a1.53,1.53,0,0,0,0,3.05h6.19A1.52,1.52,0,0,0,43.59,175.81Zm0,7.07a1.52,1.52,0,0,0-1.52-1.52H35.88a1.53,1.53,0,0,0,0,3h6.19A1.53,1.53,0,0,0,43.59,182.88Zm23.13-49.47a1.52,1.52,0,0,0-1.52-1.52H49a1.53,1.53,0,1,0,0,3.05H65.2A1.52,1.52,0,0,0,66.72,133.41Zm0,7.07A1.52,1.52,0,0,0,65.2,139H49a1.53,1.53,0,1,0,0,3H65.2A1.53,1.53,0,0,0,66.72,140.48Zm0,7.07A1.52,1.52,0,0,0,65.2,146H49a1.53,1.53,0,1,0,0,3H65.2A1.52,1.52,0,0,0,66.72,147.55Zm0,7.06a1.52,1.52,0,0,0-1.52-1.52H49a1.53,1.53,0,1,0,0,3H65.2A1.52,1.52,0,0,0,66.72,154.61Zm0,7.07a1.52,1.52,0,0,0-1.52-1.52H49a1.53,1.53,0,1,0,0,3.05H65.2A1.53,1.53,0,0,0,66.72,161.68Zm19.44,7.07a1.54,1.54,0,0,0-1.53-1.53H68.4a1.53,1.53,0,0,0,0,3.05H84.63A1.53,1.53,0,0,0,86.16,168.75Zm0,7.06a1.53,1.53,0,0,0-1.53-1.52H68.4a1.53,1.53,0,0,0,0,3.05H84.63A1.53,1.53,0,0,0,86.16,175.81Zm0,7.07a1.53,1.53,0,0,0-1.53-1.52H68.4a1.53,1.53,0,0,0,0,3H84.63A1.54,1.54,0,0,0,86.16,182.88ZM73.87,133.41a1.77,1.77,0,1,0-1.77,1.77A1.76,1.76,0,0,0,73.87,133.41Zm5.3,0a1.77,1.77,0,1,0-1.77,1.77A1.76,1.76,0,0,0,79.17,133.41Zm5.3,0a1.77,1.77,0,1,0-1.77,1.77A1.76,1.76,0,0,0,84.47,133.41Zm5.3,0A1.77,1.77,0,1,0,88,135.18,1.76,1.76,0,0,0,89.77,133.41Zm5.3,0a1.77,1.77,0,1,0-1.77,1.77A1.76,1.76,0,0,0,95.07,133.41Zm5.3,0a1.77,1.77,0,1,0-1.77,1.77A1.77,1.77,0,0,0,100.37,133.41Zm-26.5,14.14a1.77,1.77,0,1,0-1.77,1.76A1.77,1.77,0,0,0,73.87,147.55Zm5.3,0a1.77,1.77,0,1,0-1.77,1.76A1.77,1.77,0,0,0,79.17,147.55Zm5.3,0a1.77,1.77,0,1,0-1.77,1.76A1.77,1.77,0,0,0,84.47,147.55Zm5.3,0A1.77,1.77,0,1,0,88,149.31,1.77,1.77,0,0,0,89.77,147.55Zm5.3,0a1.77,1.77,0,1,0-1.77,1.76A1.77,1.77,0,0,0,95.07,147.55Zm5.3,0a1.77,1.77,0,1,0-1.77,1.76A1.77,1.77,0,0,0,100.37,147.55ZM92,167.86a1.77,1.77,0,1,0-1.76,1.77A1.76,1.76,0,0,0,92,167.86Zm5.3,0a1.77,1.77,0,1,0-1.76,1.77A1.76,1.76,0,0,0,97.27,167.86Zm5.3,0a1.77,1.77,0,1,0-1.76,1.77A1.76,1.76,0,0,0,102.57,167.86Zm5.3,0a1.77,1.77,0,1,0-1.76,1.77A1.76,1.76,0,0,0,107.87,167.86Zm5.3,0a1.77,1.77,0,1,0-1.76,1.77A1.76,1.76,0,0,0,113.17,167.86Zm5.3,0a1.77,1.77,0,1,0-1.76,1.77A1.76,1.76,0,0,0,118.47,167.86ZM92,182.44a1.77,1.77,0,1,0-1.76,1.77A1.76,1.76,0,0,0,92,182.44Zm5.3,0a1.77,1.77,0,1,0-1.76,1.77A1.76,1.76,0,0,0,97.27,182.44Zm5.3,0a1.77,1.77,0,1,0-1.76,1.77A1.76,1.76,0,0,0,102.57,182.44Zm5.3,0a1.77,1.77,0,1,0-1.76,1.77A1.76,1.76,0,0,0,107.87,182.44Zm5.3,0a1.77,1.77,0,1,0-1.76,1.77A1.76,1.76,0,0,0,113.17,182.44Zm5.3,0a1.77,1.77,0,1,0-1.76,1.77A1.76,1.76,0,0,0,118.47,182.44Z"></path><path d="M42.07,191.49H35.88a1.53,1.53,0,0,1,0-3.05h6.19a1.53,1.53,0,0,1,0,3.05ZM43.59,197a1.53,1.53,0,0,0-1.52-1.53H35.88a1.53,1.53,0,0,0,0,3.05h6.19A1.52,1.52,0,0,0,43.59,197Zm0,7.07a1.52,1.52,0,0,0-1.52-1.53H35.88a1.53,1.53,0,0,0,0,3.05h6.19A1.52,1.52,0,0,0,43.59,204.1Zm0,7.06a1.52,1.52,0,0,0-1.52-1.52H35.88a1.53,1.53,0,0,0,0,3.05h6.19A1.53,1.53,0,0,0,43.59,211.16Zm0,7.07a1.53,1.53,0,0,0-1.52-1.53H35.88a1.53,1.53,0,0,0,0,3.05h6.19A1.52,1.52,0,0,0,43.59,218.23Zm0,7.07a1.52,1.52,0,0,0-1.52-1.53H35.88a1.53,1.53,0,0,0,0,3h6.19A1.52,1.52,0,0,0,43.59,225.3Zm0,7.06a1.52,1.52,0,0,0-1.52-1.52H35.88a1.53,1.53,0,0,0,0,3h6.19A1.52,1.52,0,0,0,43.59,232.36Zm0,7.07a1.53,1.53,0,0,0-1.52-1.53H35.88a1.53,1.53,0,0,0,0,3h6.19A1.52,1.52,0,0,0,43.59,239.43ZM66.72,190a1.52,1.52,0,0,0-1.52-1.52H49a1.53,1.53,0,1,0,0,3.05H65.2A1.52,1.52,0,0,0,66.72,190Zm0,7.07a1.53,1.53,0,0,0-1.52-1.53H49a1.53,1.53,0,1,0,0,3.05H65.2A1.52,1.52,0,0,0,66.72,197Zm0,7.07a1.52,1.52,0,0,0-1.52-1.53H49a1.53,1.53,0,1,0,0,3.05H65.2A1.52,1.52,0,0,0,66.72,204.1Zm0,7.06a1.52,1.52,0,0,0-1.52-1.52H49a1.53,1.53,0,1,0,0,3.05H65.2A1.53,1.53,0,0,0,66.72,211.16Zm0,7.07a1.53,1.53,0,0,0-1.52-1.53H49a1.53,1.53,0,1,0,0,3.05H65.2A1.52,1.52,0,0,0,66.72,218.23Zm19.44,7.07a1.53,1.53,0,0,0-1.53-1.53H68.4a1.53,1.53,0,0,0,0,3H84.63A1.53,1.53,0,0,0,86.16,225.3Zm0,7.06a1.53,1.53,0,0,0-1.53-1.52H68.4a1.53,1.53,0,0,0,0,3H84.63A1.53,1.53,0,0,0,86.16,232.36Zm0,7.07a1.54,1.54,0,0,0-1.53-1.53H68.4a1.53,1.53,0,0,0,0,3H84.63A1.53,1.53,0,0,0,86.16,239.43ZM73.87,190a1.77,1.77,0,1,0-1.77,1.77A1.76,1.76,0,0,0,73.87,190Zm5.3,0a1.77,1.77,0,1,0-1.77,1.77A1.76,1.76,0,0,0,79.17,190Zm5.3,0a1.77,1.77,0,1,0-1.77,1.77A1.76,1.76,0,0,0,84.47,190Zm5.3,0A1.77,1.77,0,1,0,88,191.73,1.76,1.76,0,0,0,89.77,190Zm5.3,0a1.77,1.77,0,1,0-1.77,1.77A1.76,1.76,0,0,0,95.07,190Zm5.3,0a1.77,1.77,0,1,0-1.77,1.77A1.77,1.77,0,0,0,100.37,190ZM73.87,204.1a1.77,1.77,0,1,0-1.77,1.76A1.77,1.77,0,0,0,73.87,204.1Zm5.3,0a1.77,1.77,0,1,0-1.77,1.76A1.77,1.77,0,0,0,79.17,204.1Zm5.3,0a1.77,1.77,0,1,0-1.77,1.76A1.77,1.77,0,0,0,84.47,204.1Zm5.3,0A1.77,1.77,0,1,0,88,205.86,1.77,1.77,0,0,0,89.77,204.1Zm5.3,0a1.77,1.77,0,1,0-1.77,1.76A1.77,1.77,0,0,0,95.07,204.1Zm5.3,0a1.77,1.77,0,1,0-1.77,1.76A1.77,1.77,0,0,0,100.37,204.1ZM92,224.41a1.77,1.77,0,1,0-1.76,1.77A1.76,1.76,0,0,0,92,224.41Zm5.3,0a1.77,1.77,0,1,0-1.76,1.77A1.76,1.76,0,0,0,97.27,224.41Zm5.3,0a1.77,1.77,0,1,0-1.76,1.77A1.76,1.76,0,0,0,102.57,224.41Zm5.3,0a1.77,1.77,0,1,0-1.76,1.77A1.76,1.76,0,0,0,107.87,224.41Zm5.3,0a1.77,1.77,0,1,0-1.76,1.77A1.76,1.76,0,0,0,113.17,224.41Zm5.3,0a1.77,1.77,0,1,0-1.76,1.77A1.76,1.76,0,0,0,118.47,224.41ZM92,239a1.77,1.77,0,1,0-1.76,1.76A1.76,1.76,0,0,0,92,239Zm5.3,0a1.77,1.77,0,1,0-1.76,1.76A1.76,1.76,0,0,0,97.27,239Zm5.3,0a1.77,1.77,0,1,0-1.76,1.76A1.76,1.76,0,0,0,102.57,239Zm5.3,0a1.77,1.77,0,1,0-1.76,1.76A1.76,1.76,0,0,0,107.87,239Zm5.3,0a1.77,1.77,0,1,0-1.76,1.76A1.76,1.76,0,0,0,113.17,239Zm5.3,0a1.77,1.77,0,1,0-1.76,1.76A1.76,1.76,0,0,0,118.47,239Z"></path><path d="M42.07,249.4H35.88a1.53,1.53,0,0,1,0-3.05h6.19a1.53,1.53,0,0,1,0,3.05Zm1.52,5.54a1.52,1.52,0,0,0-1.52-1.52H35.88a1.53,1.53,0,0,0,0,3.05h6.19A1.53,1.53,0,0,0,43.59,254.94Zm0,7.07a1.53,1.53,0,0,0-1.52-1.53H35.88a1.53,1.53,0,0,0,0,3h6.19A1.52,1.52,0,0,0,43.59,262Zm0,7.06a1.52,1.52,0,0,0-1.52-1.52H35.88a1.53,1.53,0,0,0,0,3.05h6.19A1.52,1.52,0,0,0,43.59,269.07Zm0,7.07a1.52,1.52,0,0,0-1.52-1.52H35.88a1.53,1.53,0,0,0,0,3.05h6.19A1.53,1.53,0,0,0,43.59,276.14Zm0,7.07a1.53,1.53,0,0,0-1.52-1.53H35.88a1.53,1.53,0,0,0,0,3.05h6.19A1.52,1.52,0,0,0,43.59,283.21Zm0,7.07a1.52,1.52,0,0,0-1.52-1.53H35.88a1.53,1.53,0,0,0,0,3.05h6.19A1.52,1.52,0,0,0,43.59,290.28Zm0,7.06a1.52,1.52,0,0,0-1.52-1.52H35.88a1.53,1.53,0,0,0,0,3.05h6.19A1.53,1.53,0,0,0,43.59,297.34Zm23.13-49.46a1.52,1.52,0,0,0-1.52-1.53H49a1.53,1.53,0,1,0,0,3.05H65.2A1.52,1.52,0,0,0,66.72,247.88Zm0,7.06a1.52,1.52,0,0,0-1.52-1.52H49a1.53,1.53,0,1,0,0,3.05H65.2A1.53,1.53,0,0,0,66.72,254.94Zm0,7.07a1.53,1.53,0,0,0-1.52-1.53H49a1.53,1.53,0,1,0,0,3H65.2A1.52,1.52,0,0,0,66.72,262Zm0,7.06a1.52,1.52,0,0,0-1.52-1.52H49a1.53,1.53,0,1,0,0,3.05H65.2A1.52,1.52,0,0,0,66.72,269.07Zm0,7.07a1.52,1.52,0,0,0-1.52-1.52H49a1.53,1.53,0,1,0,0,3.05H65.2A1.53,1.53,0,0,0,66.72,276.14Zm19.44,7.07a1.54,1.54,0,0,0-1.53-1.53H68.4a1.53,1.53,0,0,0,0,3.05H84.63A1.53,1.53,0,0,0,86.16,283.21Zm0,7.07a1.53,1.53,0,0,0-1.53-1.53H68.4a1.53,1.53,0,0,0,0,3.05H84.63A1.53,1.53,0,0,0,86.16,290.28Zm0,7.06a1.53,1.53,0,0,0-1.53-1.52H68.4a1.53,1.53,0,0,0,0,3.05H84.63A1.54,1.54,0,0,0,86.16,297.34ZM73.87,247.87a1.77,1.77,0,1,0-1.77,1.77A1.76,1.76,0,0,0,73.87,247.87Zm5.3,0a1.77,1.77,0,1,0-1.77,1.77A1.76,1.76,0,0,0,79.17,247.87Zm5.3,0a1.77,1.77,0,1,0-1.77,1.77A1.76,1.76,0,0,0,84.47,247.87Zm5.3,0A1.77,1.77,0,1,0,88,249.64,1.76,1.76,0,0,0,89.77,247.87Zm5.3,0a1.77,1.77,0,1,0-1.77,1.77A1.76,1.76,0,0,0,95.07,247.87Zm5.3,0a1.77,1.77,0,1,0-1.77,1.77A1.77,1.77,0,0,0,100.37,247.87ZM73.87,262a1.77,1.77,0,1,0-1.77,1.76A1.77,1.77,0,0,0,73.87,262Zm5.3,0a1.77,1.77,0,1,0-1.77,1.76A1.77,1.77,0,0,0,79.17,262Zm5.3,0a1.77,1.77,0,1,0-1.77,1.76A1.77,1.77,0,0,0,84.47,262Zm5.3,0A1.77,1.77,0,1,0,88,263.77,1.77,1.77,0,0,0,89.77,262Zm5.3,0a1.77,1.77,0,1,0-1.77,1.76A1.77,1.77,0,0,0,95.07,262Zm5.3,0a1.77,1.77,0,1,0-1.77,1.76A1.77,1.77,0,0,0,100.37,262ZM92,282.32a1.77,1.77,0,1,0-1.76,1.77A1.76,1.76,0,0,0,92,282.32Zm5.3,0a1.77,1.77,0,1,0-1.76,1.77A1.76,1.76,0,0,0,97.27,282.32Zm5.3,0a1.77,1.77,0,1,0-1.76,1.77A1.76,1.76,0,0,0,102.57,282.32Zm5.3,0a1.77,1.77,0,1,0-1.76,1.77A1.76,1.76,0,0,0,107.87,282.32Zm5.3,0a1.77,1.77,0,1,0-1.76,1.77A1.76,1.76,0,0,0,113.17,282.32Zm5.3,0a1.77,1.77,0,1,0-1.76,1.77A1.76,1.76,0,0,0,118.47,282.32ZM92,296.9a1.77,1.77,0,1,0-1.76,1.77A1.76,1.76,0,0,0,92,296.9Zm5.3,0a1.77,1.77,0,1,0-1.76,1.77A1.76,1.76,0,0,0,97.27,296.9Zm5.3,0a1.77,1.77,0,1,0-1.76,1.77A1.76,1.76,0,0,0,102.57,296.9Zm5.3,0a1.77,1.77,0,1,0-1.76,1.77A1.76,1.76,0,0,0,107.87,296.9Zm5.3,0a1.77,1.77,0,1,0-1.76,1.77A1.76,1.76,0,0,0,113.17,296.9Zm5.3,0a1.77,1.77,0,1,0-1.76,1.77A1.76,1.76,0,0,0,118.47,296.9Z"></path><path d="M137,134.94h-6.19a1.53,1.53,0,0,1,0-3.05H137a1.53,1.53,0,0,1,0,3.05Zm1.52,5.54A1.52,1.52,0,0,0,137,139h-6.19a1.53,1.53,0,0,0,0,3H137A1.53,1.53,0,0,0,138.52,140.48Zm0,7.07A1.52,1.52,0,0,0,137,146h-6.19a1.53,1.53,0,0,0,0,3H137A1.52,1.52,0,0,0,138.52,147.55Zm0,7.06a1.52,1.52,0,0,0-1.52-1.52h-6.19a1.53,1.53,0,0,0,0,3H137A1.52,1.52,0,0,0,138.52,154.61Zm0,7.07a1.52,1.52,0,0,0-1.52-1.52h-6.19a1.53,1.53,0,0,0,0,3.05H137A1.53,1.53,0,0,0,138.52,161.68Zm0,7.07a1.53,1.53,0,0,0-1.52-1.53h-6.19a1.53,1.53,0,0,0,0,3.05H137A1.52,1.52,0,0,0,138.52,168.75Zm0,7.06a1.52,1.52,0,0,0-1.52-1.52h-6.19a1.53,1.53,0,0,0,0,3.05H137A1.52,1.52,0,0,0,138.52,175.81Zm0,7.07a1.52,1.52,0,0,0-1.52-1.52h-6.19a1.53,1.53,0,0,0,0,3H137A1.53,1.53,0,0,0,138.52,182.88Zm23.14-49.47a1.53,1.53,0,0,0-1.53-1.52H143.9a1.53,1.53,0,1,0,0,3.05h16.23A1.53,1.53,0,0,0,161.66,133.41Zm0,7.07a1.53,1.53,0,0,0-1.53-1.52H143.9a1.53,1.53,0,1,0,0,3h16.23A1.54,1.54,0,0,0,161.66,140.48Zm0,7.07a1.53,1.53,0,0,0-1.53-1.53H143.9a1.53,1.53,0,1,0,0,3h16.23A1.53,1.53,0,0,0,161.66,147.55Zm0,7.06a1.53,1.53,0,0,0-1.53-1.52H143.9a1.53,1.53,0,1,0,0,3h16.23A1.53,1.53,0,0,0,161.66,154.61Zm0,7.07a1.53,1.53,0,0,0-1.53-1.52H143.9a1.53,1.53,0,1,0,0,3.05h16.23A1.54,1.54,0,0,0,161.66,161.68Zm19.43,7.07a1.53,1.53,0,0,0-1.53-1.53H163.33a1.53,1.53,0,0,0,0,3.05h16.23A1.52,1.52,0,0,0,181.09,168.75Zm0,7.06a1.52,1.52,0,0,0-1.53-1.52H163.33a1.53,1.53,0,0,0,0,3.05h16.23A1.52,1.52,0,0,0,181.09,175.81Zm0,7.07a1.52,1.52,0,0,0-1.53-1.52H163.33a1.53,1.53,0,0,0,0,3h16.23A1.53,1.53,0,0,0,181.09,182.88ZM168.8,133.41a1.77,1.77,0,1,0-1.77,1.77A1.76,1.76,0,0,0,168.8,133.41Zm5.3,0a1.77,1.77,0,1,0-1.77,1.77A1.76,1.76,0,0,0,174.1,133.41Zm5.3,0a1.77,1.77,0,1,0-1.77,1.77A1.76,1.76,0,0,0,179.4,133.41Zm5.3,0a1.77,1.77,0,1,0-1.77,1.77A1.76,1.76,0,0,0,184.7,133.41Zm5.3,0a1.77,1.77,0,1,0-1.77,1.77A1.76,1.76,0,0,0,190,133.41Zm5.3,0a1.77,1.77,0,1,0-1.77,1.77A1.76,1.76,0,0,0,195.3,133.41Zm-26.5,14.14a1.77,1.77,0,1,0-1.77,1.76A1.77,1.77,0,0,0,168.8,147.55Zm5.3,0a1.77,1.77,0,1,0-1.77,1.76A1.77,1.77,0,0,0,174.1,147.55Zm5.3,0a1.77,1.77,0,1,0-1.77,1.76A1.77,1.77,0,0,0,179.4,147.55Zm5.3,0a1.77,1.77,0,1,0-1.77,1.76A1.77,1.77,0,0,0,184.7,147.55Zm5.3,0a1.77,1.77,0,1,0-1.77,1.76A1.77,1.77,0,0,0,190,147.55Zm5.3,0a1.77,1.77,0,1,0-1.77,1.76A1.77,1.77,0,0,0,195.3,147.55Zm-8.39,20.31a1.77,1.77,0,1,0-1.77,1.77A1.76,1.76,0,0,0,186.91,167.86Zm5.3,0a1.77,1.77,0,1,0-1.77,1.77A1.76,1.76,0,0,0,192.21,167.86Zm5.3,0a1.77,1.77,0,1,0-1.77,1.77A1.76,1.76,0,0,0,197.51,167.86Zm5.3,0a1.77,1.77,0,1,0-1.77,1.77A1.76,1.76,0,0,0,202.81,167.86Zm5.3,0a1.77,1.77,0,1,0-1.77,1.77A1.76,1.76,0,0,0,208.11,167.86Zm5.3,0a1.77,1.77,0,1,0-1.77,1.77A1.76,1.76,0,0,0,213.41,167.86Zm-26.5,14.58a1.77,1.77,0,1,0-1.77,1.77A1.77,1.77,0,0,0,186.91,182.44Zm5.3,0a1.77,1.77,0,1,0-1.77,1.77A1.77,1.77,0,0,0,192.21,182.44Zm5.3,0a1.77,1.77,0,1,0-1.77,1.77A1.77,1.77,0,0,0,197.51,182.44Zm5.3,0a1.77,1.77,0,1,0-1.77,1.77A1.77,1.77,0,0,0,202.81,182.44Zm5.3,0a1.77,1.77,0,1,0-1.77,1.77A1.77,1.77,0,0,0,208.11,182.44Zm5.3,0a1.77,1.77,0,1,0-1.77,1.77A1.77,1.77,0,0,0,213.41,182.44Z"></path><path d="M42.07,112.29H35.88a1.53,1.53,0,0,1,0-3.05h6.19a1.53,1.53,0,0,1,0,3.05Zm1.52,5.54a1.52,1.52,0,0,0-1.52-1.52H35.88a1.53,1.53,0,0,0,0,3h6.19A1.53,1.53,0,0,0,43.59,117.83Zm23.13-7.06a1.52,1.52,0,0,0-1.52-1.53H49a1.53,1.53,0,1,0,0,3.05H65.2A1.52,1.52,0,0,0,66.72,110.77Zm0,7.06a1.52,1.52,0,0,0-1.52-1.52H49a1.53,1.53,0,1,0,0,3H65.2A1.53,1.53,0,0,0,66.72,117.83Zm7.15-7.06a1.77,1.77,0,1,0-1.77,1.76A1.77,1.77,0,0,0,73.87,110.77Zm5.3,0a1.77,1.77,0,1,0-1.77,1.76A1.77,1.77,0,0,0,79.17,110.77Zm5.3,0a1.77,1.77,0,1,0-1.77,1.76A1.77,1.77,0,0,0,84.47,110.77Zm5.3,0A1.77,1.77,0,1,0,88,112.53,1.77,1.77,0,0,0,89.77,110.77Zm5.3,0a1.77,1.77,0,1,0-1.77,1.76A1.77,1.77,0,0,0,95.07,110.77Zm5.3,0a1.77,1.77,0,1,0-1.77,1.76A1.77,1.77,0,0,0,100.37,110.77Z"></path><path d="M137,112.29h-6.19a1.53,1.53,0,0,1,0-3.05H137a1.53,1.53,0,0,1,0,3.05Zm1.52,5.54a1.52,1.52,0,0,0-1.52-1.52h-6.19a1.53,1.53,0,0,0,0,3H137A1.53,1.53,0,0,0,138.52,117.83Zm23.14-7.06a1.53,1.53,0,0,0-1.53-1.53H143.9a1.53,1.53,0,1,0,0,3.05h16.23A1.53,1.53,0,0,0,161.66,110.77Zm0,7.06a1.53,1.53,0,0,0-1.53-1.52H143.9a1.53,1.53,0,1,0,0,3h16.23A1.54,1.54,0,0,0,161.66,117.83Zm7.14-7.06a1.77,1.77,0,1,0-1.77,1.76A1.77,1.77,0,0,0,168.8,110.77Zm5.3,0a1.77,1.77,0,1,0-1.77,1.76A1.77,1.77,0,0,0,174.1,110.77Zm5.3,0a1.77,1.77,0,1,0-1.77,1.76A1.77,1.77,0,0,0,179.4,110.77Zm5.3,0a1.77,1.77,0,1,0-1.77,1.76A1.77,1.77,0,0,0,184.7,110.77Zm5.3,0a1.77,1.77,0,1,0-1.77,1.76A1.77,1.77,0,0,0,190,110.77Zm5.3,0a1.77,1.77,0,1,0-1.77,1.76A1.77,1.77,0,0,0,195.3,110.77Z"></path><path d="M137,192.85h-6.19a1.53,1.53,0,0,1,0-3H137a1.53,1.53,0,0,1,0,3Zm1.52,5.54a1.52,1.52,0,0,0-1.52-1.52h-6.19a1.53,1.53,0,0,0,0,3H137A1.52,1.52,0,0,0,138.52,198.39Zm0,7.07a1.52,1.52,0,0,0-1.52-1.52h-6.19a1.53,1.53,0,0,0,0,3.05H137A1.53,1.53,0,0,0,138.52,205.46Zm0,7.07A1.52,1.52,0,0,0,137,211h-6.19a1.53,1.53,0,0,0,0,3.05H137A1.52,1.52,0,0,0,138.52,212.53Zm0,7.06a1.52,1.52,0,0,0-1.52-1.52h-6.19a1.53,1.53,0,0,0,0,3.05H137A1.52,1.52,0,0,0,138.52,219.59Zm0,7.07a1.52,1.52,0,0,0-1.52-1.52h-6.19a1.53,1.53,0,0,0,0,3.05H137A1.53,1.53,0,0,0,138.52,226.66Zm0,7.07A1.52,1.52,0,0,0,137,232.2h-6.19a1.53,1.53,0,0,0,0,3.05H137A1.52,1.52,0,0,0,138.52,233.73Zm0,7.06a1.52,1.52,0,0,0-1.52-1.52h-6.19a1.53,1.53,0,0,0,0,3H137A1.52,1.52,0,0,0,138.52,240.79Zm23.14-49.46a1.53,1.53,0,0,0-1.53-1.53H143.9a1.53,1.53,0,1,0,0,3h16.23A1.53,1.53,0,0,0,161.66,191.33Zm0,7.06a1.53,1.53,0,0,0-1.53-1.52H143.9a1.53,1.53,0,1,0,0,3h16.23A1.53,1.53,0,0,0,161.66,198.39Zm0,7.07a1.53,1.53,0,0,0-1.53-1.52H143.9a1.53,1.53,0,1,0,0,3.05h16.23A1.54,1.54,0,0,0,161.66,205.46Zm0,7.07a1.53,1.53,0,0,0-1.53-1.53H143.9a1.53,1.53,0,1,0,0,3.05h16.23A1.53,1.53,0,0,0,161.66,212.53Zm0,7.06a1.53,1.53,0,0,0-1.53-1.52H143.9a1.53,1.53,0,1,0,0,3.05h16.23A1.53,1.53,0,0,0,161.66,219.59Zm19.43,7.07a1.52,1.52,0,0,0-1.53-1.52H163.33a1.53,1.53,0,0,0,0,3.05h16.23A1.53,1.53,0,0,0,181.09,226.66Zm0,7.07a1.52,1.52,0,0,0-1.53-1.53H163.33a1.53,1.53,0,0,0,0,3.05h16.23A1.52,1.52,0,0,0,181.09,233.73Zm0,7.06a1.52,1.52,0,0,0-1.53-1.52H163.33a1.53,1.53,0,0,0,0,3h16.23A1.52,1.52,0,0,0,181.09,240.79ZM168.8,191.33a1.77,1.77,0,1,0-1.77,1.76A1.77,1.77,0,0,0,168.8,191.33Zm5.3,0a1.77,1.77,0,1,0-1.77,1.76A1.77,1.77,0,0,0,174.1,191.33Zm5.3,0a1.77,1.77,0,1,0-1.77,1.76A1.77,1.77,0,0,0,179.4,191.33Zm5.3,0a1.77,1.77,0,1,0-1.77,1.76A1.77,1.77,0,0,0,184.7,191.33Zm5.3,0a1.77,1.77,0,1,0-1.77,1.76A1.77,1.77,0,0,0,190,191.33Zm5.3,0a1.77,1.77,0,1,0-1.77,1.76A1.77,1.77,0,0,0,195.3,191.33Zm-26.5,14.13a1.77,1.77,0,1,0-1.77,1.77A1.77,1.77,0,0,0,168.8,205.46Zm5.3,0a1.77,1.77,0,1,0-1.77,1.77A1.77,1.77,0,0,0,174.1,205.46Zm5.3,0a1.77,1.77,0,1,0-1.77,1.77A1.77,1.77,0,0,0,179.4,205.46Zm5.3,0a1.77,1.77,0,1,0-1.77,1.77A1.77,1.77,0,0,0,184.7,205.46Zm5.3,0a1.77,1.77,0,1,0-1.77,1.77A1.77,1.77,0,0,0,190,205.46Zm5.3,0a1.77,1.77,0,1,0-1.77,1.77A1.77,1.77,0,0,0,195.3,205.46Zm-8.39,20.32a1.77,1.77,0,1,0-1.77,1.76A1.77,1.77,0,0,0,186.91,225.78Zm5.3,0a1.77,1.77,0,1,0-1.77,1.76A1.77,1.77,0,0,0,192.21,225.78Zm5.3,0a1.77,1.77,0,1,0-1.77,1.76A1.77,1.77,0,0,0,197.51,225.78Zm5.3,0a1.77,1.77,0,1,0-1.77,1.76A1.77,1.77,0,0,0,202.81,225.78Zm5.3,0a1.77,1.77,0,1,0-1.77,1.76A1.77,1.77,0,0,0,208.11,225.78Zm5.3,0a1.77,1.77,0,1,0-1.77,1.76A1.77,1.77,0,0,0,213.41,225.78Zm-26.5,14.57a1.77,1.77,0,1,0-1.77,1.77A1.76,1.76,0,0,0,186.91,240.35Zm5.3,0a1.77,1.77,0,1,0-1.77,1.77A1.76,1.76,0,0,0,192.21,240.35Zm5.3,0a1.77,1.77,0,1,0-1.77,1.77A1.76,1.76,0,0,0,197.51,240.35Zm5.3,0a1.77,1.77,0,1,0-1.77,1.77A1.76,1.76,0,0,0,202.81,240.35Zm5.3,0a1.77,1.77,0,1,0-1.77,1.77A1.76,1.76,0,0,0,208.11,240.35Zm5.3,0a1.77,1.77,0,1,0-1.77,1.77A1.76,1.76,0,0,0,213.41,240.35Z"></path></g><g style="opacity:0.2"><polyline points="456.57 247.91 449.41 253.76 456.57 259.12" style="fill:none;stroke:#000;stroke-linecap:round;stroke-miterlimit:10;stroke-width:2px"></polyline><polyline points="469.34 247.91 476.5 253.76 469.34 259.12" style="fill:none;stroke:#000;stroke-linecap:round;stroke-miterlimit:10;stroke-width:2px"></polyline><line x1="465.91" y1="245.11" x2="459.06" y2="261.92" style="fill:none;stroke:#000;stroke-linecap:round;stroke-miterlimit:10;stroke-width:2px"></line><rect x="440.05" y="225.85" width="45.86" height="52.41" style="fill:none;stroke:#000;stroke-linecap:round;stroke-miterlimit:10"></rect><rect x="440.05" y="225.85" width="45.86" height="6.94" style="fill:none;stroke:#000;stroke-linecap:round;stroke-miterlimit:10"></rect><path d="M473.58,229.31a1.54,1.54,0,1,0-1.54,1.55A1.54,1.54,0,0,0,473.58,229.31Z" style="fill:none;stroke:#000;stroke-linecap:round;stroke-miterlimit:10"></path><path d="M479.74,229.31a1.54,1.54,0,1,0-1.54,1.55A1.54,1.54,0,0,0,479.74,229.31Z" style="fill:none;stroke:#000;stroke-linecap:round;stroke-miterlimit:10"></path></g><g style="opacity:0.2"><polyline points="80.57 49.91 73.41 55.76 80.57 61.12" style="fill:none;stroke:#000;stroke-linecap:round;stroke-miterlimit:10;stroke-width:2px"></polyline><polyline points="93.34 49.91 100.5 55.76 93.34 61.12" style="fill:none;stroke:#000;stroke-linecap:round;stroke-miterlimit:10;stroke-width:2px"></polyline><line x1="89.91" y1="47.11" x2="83.06" y2="63.92" style="fill:none;stroke:#000;stroke-linecap:round;stroke-miterlimit:10;stroke-width:2px"></line><rect x="64.05" y="27.85" width="45.86" height="52.41" style="fill:none;stroke:#000;stroke-linecap:round;stroke-miterlimit:10"></rect><rect x="64.05" y="27.85" width="45.86" height="6.94" style="fill:none;stroke:#000;stroke-linecap:round;stroke-miterlimit:10"></rect><path d="M97.58,31.31A1.54,1.54,0,1,0,96,32.86,1.54,1.54,0,0,0,97.58,31.31Z" style="fill:none;stroke:#000;stroke-linecap:round;stroke-miterlimit:10"></path><path d="M103.74,31.31a1.54,1.54,0,1,0-1.54,1.55A1.54,1.54,0,0,0,103.74,31.31Z" style="fill:none;stroke:#000;stroke-linecap:round;stroke-miterlimit:10"></path></g><path d="M172.4,29.19a20.66,20.66,0,0,0-20.64,20.64,20.41,20.41,0,0,0,3,10.66L147.94,65a2.48,2.48,0,0,0-2.73,0L123.63,79.44a2.5,2.5,0,1,0,2.77,4.16L148,69.21a2.49,2.49,0,0,0,1.07-2.51l6.82-4.55a20.63,20.63,0,1,0,16.53-33Zm0,38.28A17.64,17.64,0,0,1,158,60a.82.82,0,0,0-.15-.36,1.11,1.11,0,0,0-.28-.29A17.63,17.63,0,1,1,190,49.83,17.67,17.67,0,0,1,172.4,67.47Z" style="opacity:0.2"></path></g><g id="freepik--Floor--inject-21"><line x1="102" y1="467.95" x2="472" y2="467.95" style="fill:none;stroke:#263238;stroke-linejoin:round"></line><line x1="76" y1="467.95" x2="90" y2="467.95" style="fill:none;stroke:#263238;stroke-linejoin:round"></line><line x1="18" y1="467.95" x2="66" y2="467.95" style="fill:none;stroke:#263238;stroke-linejoin:round"></line></g><g id="freepik--Screen--inject-21"><rect x="74.67" y="90.1" width="353.83" height="344.85" style="fill:#fff;stroke:#263238;stroke-linejoin:round"></rect><rect x="74.67" y="90.1" width="353.83" height="24.4" style="fill:#0EC0C1;stroke:#263238;stroke-linejoin:round"></rect><rect x="74.67" y="90.1" width="353.83" height="7.85" style="fill:#263238;stroke:#263238;stroke-linejoin:round"></rect><path d="M411.34,94.11a1.83,1.83,0,1,0-1.83,1.83A1.83,1.83,0,0,0,411.34,94.11Z" style="fill:#fff;stroke:#263238;stroke-linejoin:round"></path><path d="M416.6,94.11a1.83,1.83,0,1,0-1.82,1.83A1.82,1.82,0,0,0,416.6,94.11Z" style="fill:#fff;stroke:#263238;stroke-linejoin:round"></path><path d="M421.87,94.11A1.83,1.83,0,1,0,420,95.94,1.83,1.83,0,0,0,421.87,94.11Z" style="fill:#fff;stroke:#263238;stroke-linejoin:round"></path><rect x="99.69" y="101.42" width="144.58" height="8.25" style="fill:#fff;stroke:#263238;stroke-linejoin:round"></rect><line x1="412.03" y1="103.98" x2="422.1" y2="103.98" style="fill:none;stroke:#263238;stroke-linejoin:round"></line><line x1="412.03" y1="106.72" x2="422.1" y2="106.72" style="fill:none;stroke:#263238;stroke-linejoin:round"></line><line x1="412.03" y1="109.47" x2="422.1" y2="109.47" style="fill:none;stroke:#263238;stroke-linejoin:round"></line><path d="M101.45,155.08H95.26a1.53,1.53,0,0,1,0-3.05h6.19a1.53,1.53,0,0,1,0,3.05Zm1.52,5.54a1.52,1.52,0,0,0-1.52-1.52H95.26a1.53,1.53,0,0,0,0,3.05h6.19A1.52,1.52,0,0,0,103,160.62Zm0,7.07a1.53,1.53,0,0,0-1.52-1.53H95.26a1.53,1.53,0,0,0,0,3.05h6.19A1.52,1.52,0,0,0,103,167.69Zm0,7.07a1.52,1.52,0,0,0-1.52-1.53H95.26a1.53,1.53,0,0,0,0,3.05h6.19A1.52,1.52,0,0,0,103,174.76Zm0,7.06a1.52,1.52,0,0,0-1.52-1.52H95.26a1.53,1.53,0,0,0,0,3h6.19A1.52,1.52,0,0,0,103,181.82Zm0,7.07a1.52,1.52,0,0,0-1.52-1.52H95.26a1.52,1.52,0,0,0,0,3h6.19A1.52,1.52,0,0,0,103,188.89Zm0,7.07a1.52,1.52,0,0,0-1.52-1.53H95.26a1.53,1.53,0,0,0,0,3h6.19A1.52,1.52,0,0,0,103,196Zm0,7.06a1.52,1.52,0,0,0-1.52-1.52H95.26a1.53,1.53,0,0,0,0,3.05h6.19A1.52,1.52,0,0,0,103,203Zm23.13-49.46a1.52,1.52,0,0,0-1.52-1.53H108.35a1.53,1.53,0,1,0,0,3.05h16.23A1.52,1.52,0,0,0,126.1,153.56Zm0,7.06a1.52,1.52,0,0,0-1.52-1.52H108.35a1.53,1.53,0,1,0,0,3.05h16.23A1.52,1.52,0,0,0,126.1,160.62Zm0,7.07a1.53,1.53,0,0,0-1.52-1.53H108.35a1.53,1.53,0,1,0,0,3.05h16.23A1.52,1.52,0,0,0,126.1,167.69Zm0,7.07a1.52,1.52,0,0,0-1.52-1.53H108.35a1.53,1.53,0,1,0,0,3.05h16.23A1.52,1.52,0,0,0,126.1,174.76Zm0,7.06a1.52,1.52,0,0,0-1.52-1.52H108.35a1.53,1.53,0,1,0,0,3h16.23A1.52,1.52,0,0,0,126.1,181.82Zm19.44,7.07a1.52,1.52,0,0,0-1.53-1.52H127.78a1.52,1.52,0,1,0,0,3H144A1.52,1.52,0,0,0,145.54,188.89Zm0,7.07a1.52,1.52,0,0,0-1.53-1.53H127.78a1.53,1.53,0,0,0,0,3H144A1.52,1.52,0,0,0,145.54,196Zm0,7.06A1.52,1.52,0,0,0,144,201.5H127.78a1.53,1.53,0,0,0,0,3.05H144A1.52,1.52,0,0,0,145.54,203Zm-12.29-49.46a1.77,1.77,0,1,0-1.77,1.76A1.77,1.77,0,0,0,133.25,153.56Zm5.3,0a1.77,1.77,0,1,0-1.77,1.76A1.77,1.77,0,0,0,138.55,153.56Zm5.3,0a1.77,1.77,0,1,0-1.77,1.76A1.77,1.77,0,0,0,143.85,153.56Zm5.3,0a1.77,1.77,0,1,0-1.77,1.76A1.77,1.77,0,0,0,149.15,153.56Zm5.3,0a1.77,1.77,0,1,0-1.77,1.76A1.77,1.77,0,0,0,154.45,153.56Zm5.3,0a1.77,1.77,0,1,0-1.77,1.76A1.77,1.77,0,0,0,159.75,153.56Zm-26.5,14.13a1.77,1.77,0,1,0-1.77,1.77A1.77,1.77,0,0,0,133.25,167.69Zm5.3,0a1.77,1.77,0,1,0-1.77,1.77A1.77,1.77,0,0,0,138.55,167.69Zm5.3,0a1.77,1.77,0,1,0-1.77,1.77A1.77,1.77,0,0,0,143.85,167.69Zm5.3,0a1.77,1.77,0,1,0-1.77,1.77A1.77,1.77,0,0,0,149.15,167.69Zm5.3,0a1.77,1.77,0,1,0-1.77,1.77A1.77,1.77,0,0,0,154.45,167.69Zm5.3,0a1.77,1.77,0,1,0-1.77,1.77A1.77,1.77,0,0,0,159.75,167.69ZM151.36,188a1.77,1.77,0,1,0-1.77,1.76A1.77,1.77,0,0,0,151.36,188Zm5.3,0a1.77,1.77,0,1,0-1.77,1.76A1.77,1.77,0,0,0,156.66,188Zm5.3,0a1.77,1.77,0,1,0-1.77,1.76A1.77,1.77,0,0,0,162,188Zm5.3,0a1.77,1.77,0,1,0-1.77,1.76A1.77,1.77,0,0,0,167.26,188Zm5.3,0a1.77,1.77,0,1,0-1.77,1.76A1.77,1.77,0,0,0,172.56,188Zm5.3,0a1.77,1.77,0,1,0-1.77,1.76A1.77,1.77,0,0,0,177.86,188Zm-26.5,14.57a1.77,1.77,0,1,0-1.77,1.77A1.78,1.78,0,0,0,151.36,202.58Zm5.3,0a1.77,1.77,0,1,0-1.77,1.77A1.78,1.78,0,0,0,156.66,202.58Zm5.3,0a1.77,1.77,0,1,0-1.77,1.77A1.78,1.78,0,0,0,162,202.58Zm5.3,0a1.77,1.77,0,1,0-1.77,1.77A1.78,1.78,0,0,0,167.26,202.58Zm5.3,0a1.77,1.77,0,1,0-1.77,1.77A1.78,1.78,0,0,0,172.56,202.58Zm5.3,0a1.77,1.77,0,1,0-1.77,1.77A1.78,1.78,0,0,0,177.86,202.58Z" style="fill:#0EC0C1"></path><path d="M101.45,211.63H95.26a1.53,1.53,0,0,1,0-3h6.19a1.53,1.53,0,0,1,0,3Zm1.52,5.54a1.52,1.52,0,0,0-1.52-1.52H95.26a1.53,1.53,0,0,0,0,3h6.19A1.53,1.53,0,0,0,103,217.17Zm0,7.07a1.52,1.52,0,0,0-1.52-1.53H95.26a1.53,1.53,0,0,0,0,3h6.19A1.52,1.52,0,0,0,103,224.24Zm0,7.06a1.52,1.52,0,0,0-1.52-1.52H95.26a1.53,1.53,0,0,0,0,3.05h6.19A1.52,1.52,0,0,0,103,231.3Zm0,7.07a1.53,1.53,0,0,0-1.52-1.53H95.26a1.53,1.53,0,0,0,0,3h6.19A1.52,1.52,0,0,0,103,238.37Zm0,7.07a1.52,1.52,0,0,0-1.52-1.53H95.26a1.53,1.53,0,0,0,0,3.05h6.19A1.52,1.52,0,0,0,103,245.44Zm0,7.06a1.52,1.52,0,0,0-1.52-1.52H95.26a1.53,1.53,0,0,0,0,3.05h6.19A1.52,1.52,0,0,0,103,252.5Zm0,7.07a1.52,1.52,0,0,0-1.52-1.52H95.26a1.53,1.53,0,0,0,0,3.05h6.19A1.53,1.53,0,0,0,103,259.57ZM126.1,210.1a1.52,1.52,0,0,0-1.52-1.52H108.35a1.53,1.53,0,1,0,0,3h16.23A1.52,1.52,0,0,0,126.1,210.1Zm0,7.07a1.52,1.52,0,0,0-1.52-1.52H108.35a1.53,1.53,0,1,0,0,3h16.23A1.53,1.53,0,0,0,126.1,217.17Zm0,7.07a1.52,1.52,0,0,0-1.52-1.53H108.35a1.53,1.53,0,1,0,0,3h16.23A1.52,1.52,0,0,0,126.1,224.24Zm0,7.06a1.52,1.52,0,0,0-1.52-1.52H108.35a1.53,1.53,0,1,0,0,3.05h16.23A1.52,1.52,0,0,0,126.1,231.3Zm0,7.07a1.53,1.53,0,0,0-1.52-1.53H108.35a1.53,1.53,0,1,0,0,3h16.23A1.52,1.52,0,0,0,126.1,238.37Zm19.44,7.07a1.52,1.52,0,0,0-1.53-1.53H127.78a1.53,1.53,0,0,0,0,3.05H144A1.52,1.52,0,0,0,145.54,245.44Zm0,7.06A1.52,1.52,0,0,0,144,251H127.78a1.53,1.53,0,0,0,0,3.05H144A1.52,1.52,0,0,0,145.54,252.5Zm0,7.07a1.52,1.52,0,0,0-1.53-1.52H127.78a1.53,1.53,0,0,0,0,3.05H144A1.53,1.53,0,0,0,145.54,259.57ZM133.25,210.1a1.77,1.77,0,1,0-1.77,1.77A1.76,1.76,0,0,0,133.25,210.1Zm5.3,0a1.77,1.77,0,1,0-1.77,1.77A1.76,1.76,0,0,0,138.55,210.1Zm5.3,0a1.77,1.77,0,1,0-1.77,1.77A1.76,1.76,0,0,0,143.85,210.1Zm5.3,0a1.77,1.77,0,1,0-1.77,1.77A1.76,1.76,0,0,0,149.15,210.1Zm5.3,0a1.77,1.77,0,1,0-1.77,1.77A1.76,1.76,0,0,0,154.45,210.1Zm5.3,0a1.77,1.77,0,1,0-1.77,1.77A1.76,1.76,0,0,0,159.75,210.1Zm-26.5,14.14a1.77,1.77,0,1,0-1.77,1.76A1.77,1.77,0,0,0,133.25,224.24Zm5.3,0a1.77,1.77,0,1,0-1.77,1.76A1.77,1.77,0,0,0,138.55,224.24Zm5.3,0a1.77,1.77,0,1,0-1.77,1.76A1.77,1.77,0,0,0,143.85,224.24Zm5.3,0a1.77,1.77,0,1,0-1.77,1.76A1.77,1.77,0,0,0,149.15,224.24Zm5.3,0a1.77,1.77,0,1,0-1.77,1.76A1.77,1.77,0,0,0,154.45,224.24Zm5.3,0A1.77,1.77,0,1,0,158,226,1.77,1.77,0,0,0,159.75,224.24Zm-8.39,20.31a1.77,1.77,0,1,0-1.77,1.77A1.77,1.77,0,0,0,151.36,244.55Zm5.3,0a1.77,1.77,0,1,0-1.77,1.77A1.77,1.77,0,0,0,156.66,244.55Zm5.3,0a1.77,1.77,0,1,0-1.77,1.77A1.77,1.77,0,0,0,162,244.55Zm5.3,0a1.77,1.77,0,1,0-1.77,1.77A1.77,1.77,0,0,0,167.26,244.55Zm5.3,0a1.77,1.77,0,1,0-1.77,1.77A1.77,1.77,0,0,0,172.56,244.55Zm5.3,0a1.77,1.77,0,1,0-1.77,1.77A1.77,1.77,0,0,0,177.86,244.55Zm-26.5,14.58a1.77,1.77,0,1,0-1.77,1.77A1.77,1.77,0,0,0,151.36,259.13Zm5.3,0a1.77,1.77,0,1,0-1.77,1.77A1.77,1.77,0,0,0,156.66,259.13Zm5.3,0a1.77,1.77,0,1,0-1.77,1.77A1.77,1.77,0,0,0,162,259.13Zm5.3,0a1.77,1.77,0,1,0-1.77,1.77A1.77,1.77,0,0,0,167.26,259.13Zm5.3,0a1.77,1.77,0,1,0-1.77,1.77A1.77,1.77,0,0,0,172.56,259.13Zm5.3,0a1.77,1.77,0,1,0-1.77,1.77A1.77,1.77,0,0,0,177.86,259.13Z" style="fill:#0EC0C1"></path><path d="M101.45,269.54H95.26a1.53,1.53,0,0,1,0-3.05h6.19a1.53,1.53,0,0,1,0,3.05Zm1.52,5.54a1.52,1.52,0,0,0-1.52-1.52H95.26a1.53,1.53,0,0,0,0,3.05h6.19A1.52,1.52,0,0,0,103,275.08Zm0,7.07a1.53,1.53,0,0,0-1.52-1.53H95.26a1.53,1.53,0,0,0,0,3.05h6.19A1.52,1.52,0,0,0,103,282.15Zm0,7.07a1.52,1.52,0,0,0-1.52-1.53H95.26a1.53,1.53,0,0,0,0,3.05h6.19A1.52,1.52,0,0,0,103,289.22Zm0,7.06a1.52,1.52,0,0,0-1.52-1.52H95.26a1.53,1.53,0,0,0,0,3.05h6.19A1.52,1.52,0,0,0,103,296.28Zm0,7.07a1.52,1.52,0,0,0-1.52-1.52H95.26a1.53,1.53,0,0,0,0,3.05h6.19A1.53,1.53,0,0,0,103,303.35Zm0,7.07a1.52,1.52,0,0,0-1.52-1.53H95.26a1.53,1.53,0,0,0,0,3.05h6.19A1.52,1.52,0,0,0,103,310.42Zm0,7.06a1.52,1.52,0,0,0-1.52-1.52H95.26a1.53,1.53,0,0,0,0,3.05h6.19A1.52,1.52,0,0,0,103,317.48ZM126.1,268a1.52,1.52,0,0,0-1.52-1.53H108.35a1.53,1.53,0,1,0,0,3.05h16.23A1.52,1.52,0,0,0,126.1,268Zm0,7.06a1.52,1.52,0,0,0-1.52-1.52H108.35a1.53,1.53,0,1,0,0,3.05h16.23A1.52,1.52,0,0,0,126.1,275.08Zm0,7.07a1.53,1.53,0,0,0-1.52-1.53H108.35a1.53,1.53,0,1,0,0,3.05h16.23A1.52,1.52,0,0,0,126.1,282.15Zm0,7.07a1.52,1.52,0,0,0-1.52-1.53H108.35a1.53,1.53,0,1,0,0,3.05h16.23A1.52,1.52,0,0,0,126.1,289.22Zm0,7.06a1.52,1.52,0,0,0-1.52-1.52H108.35a1.53,1.53,0,1,0,0,3.05h16.23A1.52,1.52,0,0,0,126.1,296.28Zm19.44,7.07a1.52,1.52,0,0,0-1.53-1.52H127.78a1.53,1.53,0,0,0,0,3.05H144A1.53,1.53,0,0,0,145.54,303.35Zm0,7.07a1.52,1.52,0,0,0-1.53-1.53H127.78a1.53,1.53,0,0,0,0,3.05H144A1.52,1.52,0,0,0,145.54,310.42Zm0,7.06A1.52,1.52,0,0,0,144,316H127.78a1.53,1.53,0,0,0,0,3.05H144A1.52,1.52,0,0,0,145.54,317.48ZM133.25,268a1.77,1.77,0,1,0-1.77,1.76A1.77,1.77,0,0,0,133.25,268Zm5.3,0a1.77,1.77,0,1,0-1.77,1.76A1.77,1.77,0,0,0,138.55,268Zm5.3,0a1.77,1.77,0,1,0-1.77,1.76A1.77,1.77,0,0,0,143.85,268Zm5.3,0a1.77,1.77,0,1,0-1.77,1.76A1.77,1.77,0,0,0,149.15,268Zm5.3,0a1.77,1.77,0,1,0-1.77,1.76A1.77,1.77,0,0,0,154.45,268Zm5.3,0a1.77,1.77,0,1,0-1.77,1.76A1.77,1.77,0,0,0,159.75,268Zm-26.5,14.13a1.77,1.77,0,1,0-1.77,1.77A1.77,1.77,0,0,0,133.25,282.15Zm5.3,0a1.77,1.77,0,1,0-1.77,1.77A1.77,1.77,0,0,0,138.55,282.15Zm5.3,0a1.77,1.77,0,1,0-1.77,1.77A1.77,1.77,0,0,0,143.85,282.15Zm5.3,0a1.77,1.77,0,1,0-1.77,1.77A1.77,1.77,0,0,0,149.15,282.15Zm5.3,0a1.77,1.77,0,1,0-1.77,1.77A1.77,1.77,0,0,0,154.45,282.15Zm5.3,0a1.77,1.77,0,1,0-1.77,1.77A1.77,1.77,0,0,0,159.75,282.15Zm-8.39,20.32a1.77,1.77,0,1,0-1.77,1.76A1.77,1.77,0,0,0,151.36,302.47Zm5.3,0a1.77,1.77,0,1,0-1.77,1.76A1.77,1.77,0,0,0,156.66,302.47Zm5.3,0a1.77,1.77,0,1,0-1.77,1.76A1.77,1.77,0,0,0,162,302.47Zm5.3,0a1.77,1.77,0,1,0-1.77,1.76A1.77,1.77,0,0,0,167.26,302.47Zm5.3,0a1.77,1.77,0,1,0-1.77,1.76A1.77,1.77,0,0,0,172.56,302.47Zm5.3,0a1.77,1.77,0,1,0-1.77,1.76A1.77,1.77,0,0,0,177.86,302.47ZM151.36,317a1.77,1.77,0,1,0-1.77,1.77A1.78,1.78,0,0,0,151.36,317Zm5.3,0a1.77,1.77,0,1,0-1.77,1.77A1.78,1.78,0,0,0,156.66,317Zm5.3,0a1.77,1.77,0,1,0-1.77,1.77A1.78,1.78,0,0,0,162,317Zm5.3,0a1.77,1.77,0,1,0-1.77,1.77A1.78,1.78,0,0,0,167.26,317Zm5.3,0a1.77,1.77,0,1,0-1.77,1.77A1.78,1.78,0,0,0,172.56,317Zm5.3,0a1.77,1.77,0,1,0-1.77,1.77A1.78,1.78,0,0,0,177.86,317Z" style="fill:#0EC0C1"></path><path d="M196.38,155.08H190.2a1.53,1.53,0,1,1,0-3.05h6.18a1.53,1.53,0,0,1,0,3.05Zm1.52,5.54a1.52,1.52,0,0,0-1.52-1.52H190.2a1.53,1.53,0,1,0,0,3.05h6.18A1.52,1.52,0,0,0,197.9,160.62Zm0,7.07a1.53,1.53,0,0,0-1.52-1.53H190.2a1.53,1.53,0,1,0,0,3.05h6.18A1.52,1.52,0,0,0,197.9,167.69Zm0,7.07a1.52,1.52,0,0,0-1.52-1.53H190.2a1.53,1.53,0,1,0,0,3.05h6.18A1.52,1.52,0,0,0,197.9,174.76Zm0,7.06a1.52,1.52,0,0,0-1.52-1.52H190.2a1.53,1.53,0,1,0,0,3h6.18A1.52,1.52,0,0,0,197.9,181.82Zm0,7.07a1.52,1.52,0,0,0-1.52-1.52H190.2a1.52,1.52,0,1,0,0,3h6.18A1.52,1.52,0,0,0,197.9,188.89Zm0,7.07a1.52,1.52,0,0,0-1.52-1.53H190.2a1.53,1.53,0,1,0,0,3h6.18A1.52,1.52,0,0,0,197.9,196Zm0,7.06a1.52,1.52,0,0,0-1.52-1.52H190.2a1.53,1.53,0,1,0,0,3.05h6.18A1.52,1.52,0,0,0,197.9,203ZM221,153.56a1.53,1.53,0,0,0-1.53-1.53H203.28a1.53,1.53,0,0,0,0,3.05h16.23A1.53,1.53,0,0,0,221,153.56Zm0,7.06a1.53,1.53,0,0,0-1.53-1.52H203.28a1.53,1.53,0,0,0,0,3.05h16.23A1.53,1.53,0,0,0,221,160.62Zm0,7.07a1.54,1.54,0,0,0-1.53-1.53H203.28a1.53,1.53,0,0,0,0,3.05h16.23A1.53,1.53,0,0,0,221,167.69Zm0,7.07a1.53,1.53,0,0,0-1.53-1.53H203.28a1.53,1.53,0,0,0,0,3.05h16.23A1.53,1.53,0,0,0,221,174.76Zm0,7.06a1.53,1.53,0,0,0-1.53-1.52H203.28a1.53,1.53,0,0,0,0,3h16.23A1.53,1.53,0,0,0,221,181.82Zm19.43,7.07a1.52,1.52,0,0,0-1.53-1.52H222.71a1.52,1.52,0,1,0,0,3h16.23A1.52,1.52,0,0,0,240.47,188.89Zm0,7.07a1.52,1.52,0,0,0-1.53-1.53H222.71a1.53,1.53,0,0,0,0,3h16.23A1.52,1.52,0,0,0,240.47,196Zm0,7.06a1.52,1.52,0,0,0-1.53-1.52H222.71a1.53,1.53,0,0,0,0,3.05h16.23A1.52,1.52,0,0,0,240.47,203Zm-12.29-49.46a1.77,1.77,0,1,0-1.77,1.76A1.77,1.77,0,0,0,228.18,153.56Zm5.3,0a1.77,1.77,0,1,0-1.77,1.76A1.77,1.77,0,0,0,233.48,153.56Zm5.3,0a1.77,1.77,0,1,0-1.77,1.76A1.77,1.77,0,0,0,238.78,153.56Zm5.3,0a1.77,1.77,0,1,0-1.77,1.76A1.77,1.77,0,0,0,244.08,153.56Zm5.3,0a1.77,1.77,0,1,0-1.77,1.76A1.77,1.77,0,0,0,249.38,153.56Zm5.3,0a1.77,1.77,0,1,0-1.77,1.76A1.77,1.77,0,0,0,254.68,153.56Zm-26.5,14.13a1.77,1.77,0,1,0-1.77,1.77A1.77,1.77,0,0,0,228.18,167.69Zm5.3,0a1.77,1.77,0,1,0-1.77,1.77A1.77,1.77,0,0,0,233.48,167.69Zm5.3,0a1.77,1.77,0,1,0-1.77,1.77A1.77,1.77,0,0,0,238.78,167.69Zm5.3,0a1.77,1.77,0,1,0-1.77,1.77A1.77,1.77,0,0,0,244.08,167.69Zm5.3,0a1.77,1.77,0,1,0-1.77,1.77A1.77,1.77,0,0,0,249.38,167.69Zm5.3,0a1.77,1.77,0,1,0-1.77,1.77A1.77,1.77,0,0,0,254.68,167.69ZM246.29,188a1.77,1.77,0,1,0-1.77,1.76A1.77,1.77,0,0,0,246.29,188Zm5.3,0a1.77,1.77,0,1,0-1.77,1.76A1.77,1.77,0,0,0,251.59,188Zm5.3,0a1.77,1.77,0,1,0-1.77,1.76A1.77,1.77,0,0,0,256.89,188Zm5.3,0a1.77,1.77,0,1,0-1.77,1.76A1.77,1.77,0,0,0,262.19,188Zm5.3,0a1.77,1.77,0,1,0-1.77,1.76A1.77,1.77,0,0,0,267.49,188Zm5.3,0a1.77,1.77,0,1,0-1.77,1.76A1.77,1.77,0,0,0,272.79,188Zm-26.5,14.57a1.77,1.77,0,1,0-1.77,1.77A1.77,1.77,0,0,0,246.29,202.58Zm5.3,0a1.77,1.77,0,1,0-1.77,1.77A1.77,1.77,0,0,0,251.59,202.58Zm5.3,0a1.77,1.77,0,1,0-1.77,1.77A1.77,1.77,0,0,0,256.89,202.58Zm5.3,0a1.77,1.77,0,1,0-1.77,1.77A1.77,1.77,0,0,0,262.19,202.58Zm5.3,0a1.77,1.77,0,1,0-1.77,1.77A1.77,1.77,0,0,0,267.49,202.58Zm5.3,0a1.77,1.77,0,1,0-1.77,1.77A1.77,1.77,0,0,0,272.79,202.58Z" style="fill:#0EC0C1"></path><path d="M101.45,132.43H95.26a1.53,1.53,0,0,1,0-3.05h6.19a1.53,1.53,0,0,1,0,3.05ZM103,138a1.52,1.52,0,0,0-1.52-1.52H95.26a1.53,1.53,0,0,0,0,3.05h6.19A1.52,1.52,0,0,0,103,138Zm23.13-7.06a1.52,1.52,0,0,0-1.52-1.53H108.35a1.53,1.53,0,1,0,0,3.05h16.23A1.52,1.52,0,0,0,126.1,130.91Zm0,7.06a1.52,1.52,0,0,0-1.52-1.52H108.35a1.53,1.53,0,1,0,0,3.05h16.23A1.52,1.52,0,0,0,126.1,138Zm7.15-7.06a1.77,1.77,0,1,0-1.77,1.76A1.77,1.77,0,0,0,133.25,130.91Zm5.3,0a1.77,1.77,0,1,0-1.77,1.76A1.77,1.77,0,0,0,138.55,130.91Zm5.3,0a1.77,1.77,0,1,0-1.77,1.76A1.77,1.77,0,0,0,143.85,130.91Zm5.3,0a1.77,1.77,0,1,0-1.77,1.76A1.77,1.77,0,0,0,149.15,130.91Zm5.3,0a1.77,1.77,0,1,0-1.77,1.76A1.77,1.77,0,0,0,154.45,130.91Zm5.3,0a1.77,1.77,0,1,0-1.77,1.76A1.77,1.77,0,0,0,159.75,130.91Z" style="fill:#0EC0C1"></path><path d="M196.38,132.43H190.2a1.53,1.53,0,1,1,0-3.05h6.18a1.53,1.53,0,0,1,0,3.05ZM197.9,138a1.52,1.52,0,0,0-1.52-1.52H190.2a1.53,1.53,0,1,0,0,3.05h6.18A1.52,1.52,0,0,0,197.9,138ZM221,130.91a1.53,1.53,0,0,0-1.53-1.53H203.28a1.53,1.53,0,0,0,0,3.05h16.23A1.53,1.53,0,0,0,221,130.91Zm0,7.06a1.53,1.53,0,0,0-1.53-1.52H203.28a1.53,1.53,0,0,0,0,3.05h16.23A1.53,1.53,0,0,0,221,138Zm7.14-7.06a1.77,1.77,0,1,0-1.77,1.76A1.77,1.77,0,0,0,228.18,130.91Zm5.3,0a1.77,1.77,0,1,0-1.77,1.76A1.77,1.77,0,0,0,233.48,130.91Zm5.3,0a1.77,1.77,0,1,0-1.77,1.76A1.77,1.77,0,0,0,238.78,130.91Zm5.3,0a1.77,1.77,0,1,0-1.77,1.76A1.77,1.77,0,0,0,244.08,130.91Zm5.3,0a1.77,1.77,0,1,0-1.77,1.76A1.77,1.77,0,0,0,249.38,130.91Zm5.3,0a1.77,1.77,0,1,0-1.77,1.76A1.77,1.77,0,0,0,254.68,130.91Z" style="fill:#0EC0C1"></path><path d="M196.38,213H190.2a1.53,1.53,0,1,1,0-3.05h6.18a1.53,1.53,0,0,1,0,3.05Zm1.52,5.55a1.52,1.52,0,0,0-1.52-1.53H190.2a1.53,1.53,0,1,0,0,3.05h6.18A1.52,1.52,0,0,0,197.9,218.54Zm0,7.06a1.52,1.52,0,0,0-1.52-1.52H190.2a1.53,1.53,0,1,0,0,3h6.18A1.52,1.52,0,0,0,197.9,225.6Zm0,7.07a1.53,1.53,0,0,0-1.52-1.53H190.2a1.53,1.53,0,1,0,0,3.05h6.18A1.52,1.52,0,0,0,197.9,232.67Zm0,7.06a1.52,1.52,0,0,0-1.52-1.52H190.2a1.53,1.53,0,1,0,0,3h6.18A1.52,1.52,0,0,0,197.9,239.73Zm0,7.07a1.52,1.52,0,0,0-1.52-1.52H190.2a1.53,1.53,0,1,0,0,3.05h6.18A1.52,1.52,0,0,0,197.9,246.8Zm0,7.07a1.53,1.53,0,0,0-1.52-1.53H190.2a1.53,1.53,0,1,0,0,3h6.18A1.52,1.52,0,0,0,197.9,253.87Zm0,7.07a1.52,1.52,0,0,0-1.52-1.53H190.2a1.53,1.53,0,1,0,0,3h6.18A1.52,1.52,0,0,0,197.9,260.94ZM221,211.47a1.54,1.54,0,0,0-1.53-1.53H203.28a1.53,1.53,0,0,0,0,3.05h16.23A1.53,1.53,0,0,0,221,211.47Zm0,7.07a1.53,1.53,0,0,0-1.53-1.53H203.28a1.53,1.53,0,0,0,0,3.05h16.23A1.53,1.53,0,0,0,221,218.54Zm0,7.06a1.53,1.53,0,0,0-1.53-1.52H203.28a1.53,1.53,0,0,0,0,3h16.23A1.53,1.53,0,0,0,221,225.6Zm0,7.07a1.54,1.54,0,0,0-1.53-1.53H203.28a1.53,1.53,0,0,0,0,3.05h16.23A1.53,1.53,0,0,0,221,232.67Zm0,7.06a1.53,1.53,0,0,0-1.53-1.52H203.28a1.53,1.53,0,0,0,0,3h16.23A1.53,1.53,0,0,0,221,239.73Zm19.43,7.07a1.52,1.52,0,0,0-1.53-1.52H222.71a1.53,1.53,0,0,0,0,3.05h16.23A1.52,1.52,0,0,0,240.47,246.8Zm0,7.07a1.53,1.53,0,0,0-1.53-1.53H222.71a1.53,1.53,0,0,0,0,3h16.23A1.52,1.52,0,0,0,240.47,253.87Zm0,7.07a1.52,1.52,0,0,0-1.53-1.53H222.71a1.53,1.53,0,0,0,0,3h16.23A1.52,1.52,0,0,0,240.47,260.94Zm-12.29-49.47a1.77,1.77,0,1,0-1.77,1.77A1.77,1.77,0,0,0,228.18,211.47Zm5.3,0a1.77,1.77,0,1,0-1.77,1.77A1.77,1.77,0,0,0,233.48,211.47Zm5.3,0a1.77,1.77,0,1,0-1.77,1.77A1.77,1.77,0,0,0,238.78,211.47Zm5.3,0a1.77,1.77,0,1,0-1.77,1.77A1.77,1.77,0,0,0,244.08,211.47Zm5.3,0a1.77,1.77,0,1,0-1.77,1.77A1.77,1.77,0,0,0,249.38,211.47Zm5.3,0a1.77,1.77,0,1,0-1.77,1.77A1.77,1.77,0,0,0,254.68,211.47Zm-26.5,14.13a1.77,1.77,0,1,0-1.77,1.77A1.76,1.76,0,0,0,228.18,225.6Zm5.3,0a1.77,1.77,0,1,0-1.77,1.77A1.76,1.76,0,0,0,233.48,225.6Zm5.3,0a1.77,1.77,0,1,0-1.77,1.77A1.76,1.76,0,0,0,238.78,225.6Zm5.3,0a1.77,1.77,0,1,0-1.77,1.77A1.76,1.76,0,0,0,244.08,225.6Zm5.3,0a1.77,1.77,0,1,0-1.77,1.77A1.76,1.76,0,0,0,249.38,225.6Zm5.3,0a1.77,1.77,0,1,0-1.77,1.77A1.76,1.76,0,0,0,254.68,225.6Zm-8.39,20.32a1.77,1.77,0,1,0-1.77,1.77A1.77,1.77,0,0,0,246.29,245.92Zm5.3,0a1.77,1.77,0,1,0-1.77,1.77A1.77,1.77,0,0,0,251.59,245.92Zm5.3,0a1.77,1.77,0,1,0-1.77,1.77A1.77,1.77,0,0,0,256.89,245.92Zm5.3,0a1.77,1.77,0,1,0-1.77,1.77A1.77,1.77,0,0,0,262.19,245.92Zm5.3,0a1.77,1.77,0,1,0-1.77,1.77A1.77,1.77,0,0,0,267.49,245.92Zm5.3,0a1.77,1.77,0,1,0-1.77,1.77A1.77,1.77,0,0,0,272.79,245.92Zm-26.5,14.57a1.77,1.77,0,1,0-1.77,1.77A1.76,1.76,0,0,0,246.29,260.49Zm5.3,0a1.77,1.77,0,1,0-1.77,1.77A1.76,1.76,0,0,0,251.59,260.49Zm5.3,0a1.77,1.77,0,1,0-1.77,1.77A1.76,1.76,0,0,0,256.89,260.49Zm5.3,0a1.77,1.77,0,1,0-1.77,1.77A1.76,1.76,0,0,0,262.19,260.49Zm5.3,0a1.77,1.77,0,1,0-1.77,1.77A1.76,1.76,0,0,0,267.49,260.49Zm5.3,0a1.77,1.77,0,1,0-1.77,1.77A1.76,1.76,0,0,0,272.79,260.49Z" style="fill:#0EC0C1"></path><path d="M101.45,327.75H95.26a1.53,1.53,0,0,1,0-3.05h6.19a1.53,1.53,0,0,1,0,3.05Zm1.52,5.54a1.53,1.53,0,0,0-1.52-1.53H95.26a1.53,1.53,0,0,0,0,3.05h6.19A1.52,1.52,0,0,0,103,333.29Zm0,7.07a1.52,1.52,0,0,0-1.52-1.53H95.26a1.53,1.53,0,0,0,0,3.05h6.19A1.52,1.52,0,0,0,103,340.36Zm0,7.06a1.52,1.52,0,0,0-1.52-1.52H95.26a1.53,1.53,0,0,0,0,3.05h6.19A1.52,1.52,0,0,0,103,347.42Zm0,7.07a1.53,1.53,0,0,0-1.52-1.53H95.26a1.53,1.53,0,0,0,0,3.05h6.19A1.52,1.52,0,0,0,103,354.49Zm0,7.07a1.52,1.52,0,0,0-1.52-1.53H95.26a1.53,1.53,0,0,0,0,3.05h6.19A1.52,1.52,0,0,0,103,361.56Zm0,7.06a1.52,1.52,0,0,0-1.52-1.52H95.26a1.53,1.53,0,0,0,0,3h6.19A1.52,1.52,0,0,0,103,368.62Zm0,7.07a1.53,1.53,0,0,0-1.52-1.53H95.26a1.53,1.53,0,0,0,0,3h6.19A1.52,1.52,0,0,0,103,375.69Zm23.13-49.47a1.52,1.52,0,0,0-1.52-1.52H108.35a1.53,1.53,0,1,0,0,3.05h16.23A1.52,1.52,0,0,0,126.1,326.22Zm0,7.07a1.53,1.53,0,0,0-1.52-1.53H108.35a1.53,1.53,0,1,0,0,3.05h16.23A1.52,1.52,0,0,0,126.1,333.29Zm0,7.07a1.52,1.52,0,0,0-1.52-1.53H108.35a1.53,1.53,0,1,0,0,3.05h16.23A1.52,1.52,0,0,0,126.1,340.36Zm0,7.06a1.52,1.52,0,0,0-1.52-1.52H108.35a1.53,1.53,0,1,0,0,3.05h16.23A1.52,1.52,0,0,0,126.1,347.42Zm0,7.07a1.53,1.53,0,0,0-1.52-1.53H108.35a1.53,1.53,0,1,0,0,3.05h16.23A1.52,1.52,0,0,0,126.1,354.49Zm19.44,7.07A1.52,1.52,0,0,0,144,360H127.78a1.53,1.53,0,0,0,0,3.05H144A1.52,1.52,0,0,0,145.54,361.56Zm0,7.06A1.52,1.52,0,0,0,144,367.1H127.78a1.53,1.53,0,0,0,0,3H144A1.52,1.52,0,0,0,145.54,368.62Zm0,7.07a1.53,1.53,0,0,0-1.53-1.53H127.78a1.53,1.53,0,0,0,0,3H144A1.52,1.52,0,0,0,145.54,375.69Zm-12.29-49.47a1.77,1.77,0,1,0-1.77,1.77A1.76,1.76,0,0,0,133.25,326.22Zm5.3,0a1.77,1.77,0,1,0-1.77,1.77A1.76,1.76,0,0,0,138.55,326.22Zm5.3,0a1.77,1.77,0,1,0-1.77,1.77A1.76,1.76,0,0,0,143.85,326.22Zm5.3,0a1.77,1.77,0,1,0-1.77,1.77A1.76,1.76,0,0,0,149.15,326.22Zm5.3,0a1.77,1.77,0,1,0-1.77,1.77A1.76,1.76,0,0,0,154.45,326.22Zm5.3,0A1.77,1.77,0,1,0,158,328,1.76,1.76,0,0,0,159.75,326.22Zm-26.5,14.14a1.77,1.77,0,1,0-1.77,1.76A1.77,1.77,0,0,0,133.25,340.36Zm5.3,0a1.77,1.77,0,1,0-1.77,1.76A1.77,1.77,0,0,0,138.55,340.36Zm5.3,0a1.77,1.77,0,1,0-1.77,1.76A1.77,1.77,0,0,0,143.85,340.36Zm5.3,0a1.77,1.77,0,1,0-1.77,1.76A1.77,1.77,0,0,0,149.15,340.36Zm5.3,0a1.77,1.77,0,1,0-1.77,1.76A1.77,1.77,0,0,0,154.45,340.36Zm5.3,0a1.77,1.77,0,1,0-1.77,1.76A1.77,1.77,0,0,0,159.75,340.36Zm-8.39,20.31a1.77,1.77,0,1,0-1.77,1.77A1.77,1.77,0,0,0,151.36,360.67Zm5.3,0a1.77,1.77,0,1,0-1.77,1.77A1.77,1.77,0,0,0,156.66,360.67Zm5.3,0a1.77,1.77,0,1,0-1.77,1.77A1.77,1.77,0,0,0,162,360.67Zm5.3,0a1.77,1.77,0,1,0-1.77,1.77A1.77,1.77,0,0,0,167.26,360.67Zm5.3,0a1.77,1.77,0,1,0-1.77,1.77A1.77,1.77,0,0,0,172.56,360.67Zm5.3,0a1.77,1.77,0,1,0-1.77,1.77A1.77,1.77,0,0,0,177.86,360.67Zm-26.5,14.58a1.77,1.77,0,1,0-1.77,1.76A1.77,1.77,0,0,0,151.36,375.25Zm5.3,0a1.77,1.77,0,1,0-1.77,1.76A1.77,1.77,0,0,0,156.66,375.25Zm5.3,0a1.77,1.77,0,1,0-1.77,1.76A1.77,1.77,0,0,0,162,375.25Zm5.3,0a1.77,1.77,0,1,0-1.77,1.76A1.77,1.77,0,0,0,167.26,375.25Zm5.3,0a1.77,1.77,0,1,0-1.77,1.76A1.77,1.77,0,0,0,172.56,375.25Zm5.3,0a1.77,1.77,0,1,0-1.77,1.76A1.77,1.77,0,0,0,177.86,375.25Z" style="fill:#0EC0C1"></path><path d="M101.45,384.3H95.26a1.53,1.53,0,0,1,0-3.05h6.19a1.53,1.53,0,0,1,0,3.05Zm1.52,5.54a1.52,1.52,0,0,0-1.52-1.53H95.26a1.53,1.53,0,0,0,0,3.05h6.19A1.52,1.52,0,0,0,103,389.84Zm0,7.06a1.52,1.52,0,0,0-1.52-1.52H95.26a1.53,1.53,0,0,0,0,3.05h6.19A1.52,1.52,0,0,0,103,396.9Zm0,7.07a1.52,1.52,0,0,0-1.52-1.52H95.26a1.53,1.53,0,0,0,0,3.05h6.19A1.53,1.53,0,0,0,103,404Zm0,7.07a1.52,1.52,0,0,0-1.52-1.53H95.26a1.53,1.53,0,0,0,0,3.05h6.19A1.52,1.52,0,0,0,103,411Zm0,7.06a1.52,1.52,0,0,0-1.52-1.52H95.26a1.53,1.53,0,0,0,0,3.05h6.19A1.52,1.52,0,0,0,103,418.1Zm23.13-35.33a1.52,1.52,0,0,0-1.52-1.52H108.35a1.53,1.53,0,1,0,0,3.05h16.23A1.53,1.53,0,0,0,126.1,382.77Zm0,7.07a1.52,1.52,0,0,0-1.52-1.53H108.35a1.53,1.53,0,1,0,0,3.05h16.23A1.52,1.52,0,0,0,126.1,389.84Zm0,7.06a1.52,1.52,0,0,0-1.52-1.52H108.35a1.53,1.53,0,1,0,0,3.05h16.23A1.52,1.52,0,0,0,126.1,396.9Zm0,7.07a1.52,1.52,0,0,0-1.52-1.52H108.35a1.53,1.53,0,1,0,0,3.05h16.23A1.53,1.53,0,0,0,126.1,404Zm0,7.07a1.52,1.52,0,0,0-1.52-1.53H108.35a1.53,1.53,0,1,0,0,3.05h16.23A1.52,1.52,0,0,0,126.1,411Zm19.44,7.06a1.52,1.52,0,0,0-1.53-1.52H127.78a1.53,1.53,0,0,0,0,3.05H144A1.52,1.52,0,0,0,145.54,418.1Zm-12.29-35.33a1.77,1.77,0,1,0-1.77,1.77A1.77,1.77,0,0,0,133.25,382.77Zm5.3,0a1.77,1.77,0,1,0-1.77,1.77A1.77,1.77,0,0,0,138.55,382.77Zm5.3,0a1.77,1.77,0,1,0-1.77,1.77A1.77,1.77,0,0,0,143.85,382.77Zm5.3,0a1.77,1.77,0,1,0-1.77,1.77A1.77,1.77,0,0,0,149.15,382.77Zm5.3,0a1.77,1.77,0,1,0-1.77,1.77A1.77,1.77,0,0,0,154.45,382.77Zm5.3,0a1.77,1.77,0,1,0-1.77,1.77A1.77,1.77,0,0,0,159.75,382.77Zm-26.5,14.13a1.77,1.77,0,1,0-1.77,1.77A1.76,1.76,0,0,0,133.25,396.9Zm5.3,0a1.77,1.77,0,1,0-1.77,1.77A1.76,1.76,0,0,0,138.55,396.9Zm5.3,0a1.77,1.77,0,1,0-1.77,1.77A1.76,1.76,0,0,0,143.85,396.9Zm5.3,0a1.77,1.77,0,1,0-1.77,1.77A1.76,1.76,0,0,0,149.15,396.9Zm5.3,0a1.77,1.77,0,1,0-1.77,1.77A1.76,1.76,0,0,0,154.45,396.9Zm5.3,0a1.77,1.77,0,1,0-1.77,1.77A1.76,1.76,0,0,0,159.75,396.9Zm-8.39,20.32a1.77,1.77,0,1,0-1.77,1.77A1.77,1.77,0,0,0,151.36,417.22Zm5.3,0a1.77,1.77,0,1,0-1.77,1.77A1.77,1.77,0,0,0,156.66,417.22Zm5.3,0a1.77,1.77,0,1,0-1.77,1.77A1.77,1.77,0,0,0,162,417.22Zm5.3,0a1.77,1.77,0,1,0-1.77,1.77A1.77,1.77,0,0,0,167.26,417.22Zm5.3,0a1.77,1.77,0,1,0-1.77,1.77A1.77,1.77,0,0,0,172.56,417.22Zm5.3,0a1.77,1.77,0,1,0-1.77,1.77A1.77,1.77,0,0,0,177.86,417.22Z" style="fill:#0EC0C1"></path><path d="M196.38,327.75H190.2a1.53,1.53,0,1,1,0-3.05h6.18a1.53,1.53,0,0,1,0,3.05Zm1.52,5.54a1.53,1.53,0,0,0-1.52-1.53H190.2a1.53,1.53,0,1,0,0,3.05h6.18A1.52,1.52,0,0,0,197.9,333.29Zm0,7.07a1.52,1.52,0,0,0-1.52-1.53H190.2a1.53,1.53,0,1,0,0,3.05h6.18A1.52,1.52,0,0,0,197.9,340.36Zm0,7.06a1.52,1.52,0,0,0-1.52-1.52H190.2a1.53,1.53,0,1,0,0,3.05h6.18A1.52,1.52,0,0,0,197.9,347.42Zm0,7.07a1.53,1.53,0,0,0-1.52-1.53H190.2a1.53,1.53,0,1,0,0,3.05h6.18A1.52,1.52,0,0,0,197.9,354.49Zm0,7.07a1.52,1.52,0,0,0-1.52-1.53H190.2a1.53,1.53,0,1,0,0,3.05h6.18A1.52,1.52,0,0,0,197.9,361.56Zm0,7.06a1.52,1.52,0,0,0-1.52-1.52H190.2a1.53,1.53,0,1,0,0,3h6.18A1.52,1.52,0,0,0,197.9,368.62Zm0,7.07a1.53,1.53,0,0,0-1.52-1.53H190.2a1.53,1.53,0,1,0,0,3h6.18A1.52,1.52,0,0,0,197.9,375.69ZM221,326.22a1.53,1.53,0,0,0-1.53-1.52H203.28a1.53,1.53,0,0,0,0,3.05h16.23A1.53,1.53,0,0,0,221,326.22Zm0,7.07a1.54,1.54,0,0,0-1.53-1.53H203.28a1.53,1.53,0,0,0,0,3.05h16.23A1.53,1.53,0,0,0,221,333.29Zm0,7.07a1.53,1.53,0,0,0-1.53-1.53H203.28a1.53,1.53,0,0,0,0,3.05h16.23A1.53,1.53,0,0,0,221,340.36Zm0,7.06a1.53,1.53,0,0,0-1.53-1.52H203.28a1.53,1.53,0,0,0,0,3.05h16.23A1.53,1.53,0,0,0,221,347.42Zm0,7.07a1.54,1.54,0,0,0-1.53-1.53H203.28a1.53,1.53,0,0,0,0,3.05h16.23A1.53,1.53,0,0,0,221,354.49Zm19.43,7.07a1.52,1.52,0,0,0-1.53-1.53H222.71a1.53,1.53,0,0,0,0,3.05h16.23A1.52,1.52,0,0,0,240.47,361.56Zm0,7.06a1.52,1.52,0,0,0-1.53-1.52H222.71a1.53,1.53,0,0,0,0,3h16.23A1.52,1.52,0,0,0,240.47,368.62Zm0,7.07a1.53,1.53,0,0,0-1.53-1.53H222.71a1.53,1.53,0,0,0,0,3h16.23A1.52,1.52,0,0,0,240.47,375.69Zm-12.29-49.47a1.77,1.77,0,1,0-1.77,1.77A1.76,1.76,0,0,0,228.18,326.22Zm5.3,0a1.77,1.77,0,1,0-1.77,1.77A1.76,1.76,0,0,0,233.48,326.22Zm5.3,0A1.77,1.77,0,1,0,237,328,1.76,1.76,0,0,0,238.78,326.22Zm5.3,0a1.77,1.77,0,1,0-1.77,1.77A1.76,1.76,0,0,0,244.08,326.22Zm5.3,0a1.77,1.77,0,1,0-1.77,1.77A1.76,1.76,0,0,0,249.38,326.22Zm5.3,0a1.77,1.77,0,1,0-1.77,1.77A1.76,1.76,0,0,0,254.68,326.22Zm-26.5,14.14a1.77,1.77,0,1,0-1.77,1.76A1.77,1.77,0,0,0,228.18,340.36Zm5.3,0a1.77,1.77,0,1,0-1.77,1.76A1.77,1.77,0,0,0,233.48,340.36Zm5.3,0a1.77,1.77,0,1,0-1.77,1.76A1.77,1.77,0,0,0,238.78,340.36Zm5.3,0a1.77,1.77,0,1,0-1.77,1.76A1.77,1.77,0,0,0,244.08,340.36Zm5.3,0a1.77,1.77,0,1,0-1.77,1.76A1.77,1.77,0,0,0,249.38,340.36Zm5.3,0a1.77,1.77,0,1,0-1.77,1.76A1.77,1.77,0,0,0,254.68,340.36Zm-8.39,20.31a1.77,1.77,0,1,0-1.77,1.77A1.76,1.76,0,0,0,246.29,360.67Zm5.3,0a1.77,1.77,0,1,0-1.77,1.77A1.76,1.76,0,0,0,251.59,360.67Zm5.3,0a1.77,1.77,0,1,0-1.77,1.77A1.76,1.76,0,0,0,256.89,360.67Zm5.3,0a1.77,1.77,0,1,0-1.77,1.77A1.76,1.76,0,0,0,262.19,360.67Zm5.3,0a1.77,1.77,0,1,0-1.77,1.77A1.76,1.76,0,0,0,267.49,360.67Zm5.3,0a1.77,1.77,0,1,0-1.77,1.77A1.76,1.76,0,0,0,272.79,360.67Zm-26.5,14.58a1.77,1.77,0,1,0-1.77,1.76A1.77,1.77,0,0,0,246.29,375.25Zm5.3,0a1.77,1.77,0,1,0-1.77,1.76A1.77,1.77,0,0,0,251.59,375.25Zm5.3,0a1.77,1.77,0,1,0-1.77,1.76A1.77,1.77,0,0,0,256.89,375.25Zm5.3,0a1.77,1.77,0,1,0-1.77,1.76A1.77,1.77,0,0,0,262.19,375.25Zm5.3,0a1.77,1.77,0,1,0-1.77,1.76A1.77,1.77,0,0,0,267.49,375.25Zm5.3,0A1.77,1.77,0,1,0,271,377,1.77,1.77,0,0,0,272.79,375.25Z" style="fill:#0EC0C1"></path><path d="M196.38,385.66H190.2a1.53,1.53,0,1,1,0-3.05h6.18a1.53,1.53,0,0,1,0,3.05Zm1.52,5.54a1.52,1.52,0,0,0-1.52-1.52H190.2a1.53,1.53,0,1,0,0,3.05h6.18A1.52,1.52,0,0,0,197.9,391.2Zm0,7.07a1.53,1.53,0,0,0-1.52-1.53H190.2a1.53,1.53,0,1,0,0,3.05h6.18A1.52,1.52,0,0,0,197.9,398.27Zm0,7.07a1.52,1.52,0,0,0-1.52-1.53H190.2a1.53,1.53,0,1,0,0,3.05h6.18A1.52,1.52,0,0,0,197.9,405.34Zm0,7.06a1.52,1.52,0,0,0-1.52-1.52H190.2a1.53,1.53,0,1,0,0,3.05h6.18A1.53,1.53,0,0,0,197.9,412.4Zm0,7.07a1.53,1.53,0,0,0-1.52-1.53H190.2a1.53,1.53,0,1,0,0,3.05h6.18A1.52,1.52,0,0,0,197.9,419.47ZM221,384.14a1.53,1.53,0,0,0-1.53-1.53H203.28a1.53,1.53,0,0,0,0,3.05h16.23A1.53,1.53,0,0,0,221,384.14Zm0,7.06a1.53,1.53,0,0,0-1.53-1.52H203.28a1.53,1.53,0,0,0,0,3.05h16.23A1.53,1.53,0,0,0,221,391.2Zm0,7.07a1.54,1.54,0,0,0-1.53-1.53H203.28a1.53,1.53,0,0,0,0,3.05h16.23A1.53,1.53,0,0,0,221,398.27Zm0,7.07a1.53,1.53,0,0,0-1.53-1.53H203.28a1.53,1.53,0,0,0,0,3.05h16.23A1.53,1.53,0,0,0,221,405.34Zm0,7.06a1.53,1.53,0,0,0-1.53-1.52H203.28a1.53,1.53,0,0,0,0,3.05h16.23A1.54,1.54,0,0,0,221,412.4Zm19.43,7.07a1.53,1.53,0,0,0-1.53-1.53H222.71a1.53,1.53,0,0,0,0,3.05h16.23A1.52,1.52,0,0,0,240.47,419.47Zm-12.29-35.33a1.77,1.77,0,1,0-1.77,1.76A1.77,1.77,0,0,0,228.18,384.14Zm5.3,0a1.77,1.77,0,1,0-1.77,1.76A1.77,1.77,0,0,0,233.48,384.14Zm5.3,0A1.77,1.77,0,1,0,237,385.9,1.77,1.77,0,0,0,238.78,384.14Zm5.3,0a1.77,1.77,0,1,0-1.77,1.76A1.77,1.77,0,0,0,244.08,384.14Zm5.3,0a1.77,1.77,0,1,0-1.77,1.76A1.77,1.77,0,0,0,249.38,384.14Zm5.3,0a1.77,1.77,0,1,0-1.77,1.76A1.77,1.77,0,0,0,254.68,384.14Zm-26.5,14.13a1.77,1.77,0,1,0-1.77,1.77A1.77,1.77,0,0,0,228.18,398.27Zm5.3,0a1.77,1.77,0,1,0-1.77,1.77A1.77,1.77,0,0,0,233.48,398.27Zm5.3,0A1.77,1.77,0,1,0,237,400,1.77,1.77,0,0,0,238.78,398.27Zm5.3,0a1.77,1.77,0,1,0-1.77,1.77A1.77,1.77,0,0,0,244.08,398.27Zm5.3,0a1.77,1.77,0,1,0-1.77,1.77A1.77,1.77,0,0,0,249.38,398.27Zm5.3,0a1.77,1.77,0,1,0-1.77,1.77A1.77,1.77,0,0,0,254.68,398.27Zm-8.39,20.32a1.77,1.77,0,1,0-1.77,1.76A1.77,1.77,0,0,0,246.29,418.59Zm5.3,0a1.77,1.77,0,1,0-1.77,1.76A1.77,1.77,0,0,0,251.59,418.59Zm5.3,0a1.77,1.77,0,1,0-1.77,1.76A1.77,1.77,0,0,0,256.89,418.59Zm5.3,0a1.77,1.77,0,1,0-1.77,1.76A1.77,1.77,0,0,0,262.19,418.59Zm5.3,0a1.77,1.77,0,1,0-1.77,1.76A1.77,1.77,0,0,0,267.49,418.59Zm5.3,0a1.77,1.77,0,1,0-1.77,1.76A1.77,1.77,0,0,0,272.79,418.59Z" style="fill:#0EC0C1"></path><path d="M292.11,155.08h-6.18a1.53,1.53,0,0,1,0-3.05h6.18a1.53,1.53,0,1,1,0,3.05Zm1.53,5.54a1.52,1.52,0,0,0-1.53-1.52h-6.18a1.53,1.53,0,0,0,0,3.05h6.18A1.52,1.52,0,0,0,293.64,160.62Zm0,7.07a1.53,1.53,0,0,0-1.53-1.53h-6.18a1.53,1.53,0,0,0,0,3.05h6.18A1.52,1.52,0,0,0,293.64,167.69Zm0,7.07a1.52,1.52,0,0,0-1.53-1.53h-6.18a1.53,1.53,0,0,0,0,3.05h6.18A1.52,1.52,0,0,0,293.64,174.76Zm0,7.06a1.52,1.52,0,0,0-1.53-1.52h-6.18a1.53,1.53,0,0,0,0,3h6.18A1.52,1.52,0,0,0,293.64,181.82Zm0,7.07a1.52,1.52,0,0,0-1.53-1.52h-6.18a1.52,1.52,0,1,0,0,3h6.18A1.52,1.52,0,0,0,293.64,188.89Zm0,7.07a1.52,1.52,0,0,0-1.53-1.53h-6.18a1.53,1.53,0,0,0,0,3h6.18A1.52,1.52,0,0,0,293.64,196Zm0,7.06a1.52,1.52,0,0,0-1.53-1.52h-6.18a1.53,1.53,0,0,0,0,3.05h6.18A1.52,1.52,0,0,0,293.64,203Zm23.13-49.46a1.52,1.52,0,0,0-1.52-1.53H299a1.53,1.53,0,0,0,0,3.05h16.24A1.52,1.52,0,0,0,316.77,153.56Zm0,7.06a1.52,1.52,0,0,0-1.52-1.52H299a1.53,1.53,0,0,0,0,3.05h16.24A1.52,1.52,0,0,0,316.77,160.62Zm0,7.07a1.53,1.53,0,0,0-1.52-1.53H299a1.53,1.53,0,0,0,0,3.05h16.24A1.52,1.52,0,0,0,316.77,167.69Zm0,7.07a1.52,1.52,0,0,0-1.52-1.53H299a1.53,1.53,0,0,0,0,3.05h16.24A1.52,1.52,0,0,0,316.77,174.76Zm0,7.06a1.52,1.52,0,0,0-1.52-1.52H299a1.53,1.53,0,0,0,0,3h16.24A1.52,1.52,0,0,0,316.77,181.82Zm19.43,7.07a1.52,1.52,0,0,0-1.52-1.52H318.45a1.52,1.52,0,1,0,0,3h16.23A1.52,1.52,0,0,0,336.2,188.89Zm0,7.07a1.52,1.52,0,0,0-1.52-1.53H318.45a1.53,1.53,0,1,0,0,3h16.23A1.52,1.52,0,0,0,336.2,196Zm0,7.06a1.52,1.52,0,0,0-1.52-1.52H318.45a1.53,1.53,0,1,0,0,3.05h16.23A1.52,1.52,0,0,0,336.2,203Zm-12.29-49.46a1.77,1.77,0,1,0-1.76,1.76A1.76,1.76,0,0,0,323.91,153.56Zm5.3,0a1.77,1.77,0,1,0-1.76,1.76A1.76,1.76,0,0,0,329.21,153.56Zm5.3,0a1.77,1.77,0,1,0-1.76,1.76A1.76,1.76,0,0,0,334.51,153.56Zm5.3,0a1.77,1.77,0,1,0-1.76,1.76A1.76,1.76,0,0,0,339.81,153.56Zm5.3,0a1.77,1.77,0,1,0-1.76,1.76A1.76,1.76,0,0,0,345.11,153.56Zm5.3,0a1.77,1.77,0,1,0-1.76,1.76A1.76,1.76,0,0,0,350.41,153.56Zm-26.5,14.13a1.77,1.77,0,1,0-1.76,1.77A1.76,1.76,0,0,0,323.91,167.69Zm5.3,0a1.77,1.77,0,1,0-1.76,1.77A1.76,1.76,0,0,0,329.21,167.69Zm5.3,0a1.77,1.77,0,1,0-1.76,1.77A1.76,1.76,0,0,0,334.51,167.69Zm5.3,0a1.77,1.77,0,1,0-1.76,1.77A1.76,1.76,0,0,0,339.81,167.69Zm5.3,0a1.77,1.77,0,1,0-1.76,1.77A1.76,1.76,0,0,0,345.11,167.69Zm5.3,0a1.77,1.77,0,1,0-1.76,1.77A1.76,1.76,0,0,0,350.41,167.69ZM342,188a1.77,1.77,0,1,0-1.76,1.76A1.76,1.76,0,0,0,342,188Zm5.3,0a1.77,1.77,0,1,0-1.76,1.76A1.76,1.76,0,0,0,347.32,188Zm5.3,0a1.77,1.77,0,1,0-1.76,1.76A1.76,1.76,0,0,0,352.62,188Zm5.3,0a1.77,1.77,0,1,0-1.76,1.76A1.76,1.76,0,0,0,357.92,188Zm5.3,0a1.77,1.77,0,1,0-1.76,1.76A1.76,1.76,0,0,0,363.22,188Zm5.3,0a1.77,1.77,0,1,0-1.76,1.76A1.76,1.76,0,0,0,368.52,188ZM342,202.58a1.77,1.77,0,1,0-1.76,1.77A1.77,1.77,0,0,0,342,202.58Zm5.3,0a1.77,1.77,0,1,0-1.76,1.77A1.77,1.77,0,0,0,347.32,202.58Zm5.3,0a1.77,1.77,0,1,0-1.76,1.77A1.77,1.77,0,0,0,352.62,202.58Zm5.3,0a1.77,1.77,0,1,0-1.76,1.77A1.77,1.77,0,0,0,357.92,202.58Zm5.3,0a1.77,1.77,0,1,0-1.76,1.77A1.77,1.77,0,0,0,363.22,202.58Zm5.3,0a1.77,1.77,0,1,0-1.76,1.77A1.77,1.77,0,0,0,368.52,202.58Z" style="fill:#0EC0C1"></path><path d="M292.11,211.63h-6.18a1.53,1.53,0,0,1,0-3h6.18a1.53,1.53,0,1,1,0,3Zm1.53,5.54a1.52,1.52,0,0,0-1.53-1.52h-6.18a1.53,1.53,0,0,0,0,3h6.18A1.53,1.53,0,0,0,293.64,217.17Zm0,7.07a1.52,1.52,0,0,0-1.53-1.53h-6.18a1.53,1.53,0,0,0,0,3h6.18A1.52,1.52,0,0,0,293.64,224.24Zm0,7.06a1.52,1.52,0,0,0-1.53-1.52h-6.18a1.53,1.53,0,0,0,0,3.05h6.18A1.52,1.52,0,0,0,293.64,231.3Zm0,7.07a1.53,1.53,0,0,0-1.53-1.53h-6.18a1.53,1.53,0,0,0,0,3h6.18A1.52,1.52,0,0,0,293.64,238.37Zm0,7.07a1.52,1.52,0,0,0-1.53-1.53h-6.18a1.53,1.53,0,0,0,0,3.05h6.18A1.52,1.52,0,0,0,293.64,245.44Zm0,7.06a1.52,1.52,0,0,0-1.53-1.52h-6.18a1.53,1.53,0,0,0,0,3.05h6.18A1.52,1.52,0,0,0,293.64,252.5Zm0,7.07a1.52,1.52,0,0,0-1.53-1.52h-6.18a1.53,1.53,0,0,0,0,3.05h6.18A1.53,1.53,0,0,0,293.64,259.57Zm23.13-49.47a1.52,1.52,0,0,0-1.52-1.52H299a1.53,1.53,0,0,0,0,3h16.24A1.52,1.52,0,0,0,316.77,210.1Zm0,7.07a1.52,1.52,0,0,0-1.52-1.52H299a1.53,1.53,0,0,0,0,3h16.24A1.53,1.53,0,0,0,316.77,217.17Zm0,7.07a1.52,1.52,0,0,0-1.52-1.53H299a1.53,1.53,0,0,0,0,3h16.24A1.52,1.52,0,0,0,316.77,224.24Zm0,7.06a1.52,1.52,0,0,0-1.52-1.52H299a1.53,1.53,0,0,0,0,3.05h16.24A1.52,1.52,0,0,0,316.77,231.3Zm0,7.07a1.53,1.53,0,0,0-1.52-1.53H299a1.53,1.53,0,0,0,0,3h16.24A1.52,1.52,0,0,0,316.77,238.37Zm19.43,7.07a1.52,1.52,0,0,0-1.52-1.53H318.45a1.53,1.53,0,1,0,0,3.05h16.23A1.52,1.52,0,0,0,336.2,245.44Zm0,7.06a1.52,1.52,0,0,0-1.52-1.52H318.45a1.53,1.53,0,1,0,0,3.05h16.23A1.52,1.52,0,0,0,336.2,252.5Zm0,7.07a1.52,1.52,0,0,0-1.52-1.52H318.45a1.53,1.53,0,1,0,0,3.05h16.23A1.53,1.53,0,0,0,336.2,259.57ZM323.91,210.1a1.77,1.77,0,1,0-1.76,1.77A1.76,1.76,0,0,0,323.91,210.1Zm5.3,0a1.77,1.77,0,1,0-1.76,1.77A1.76,1.76,0,0,0,329.21,210.1Zm5.3,0a1.77,1.77,0,1,0-1.76,1.77A1.76,1.76,0,0,0,334.51,210.1Zm5.3,0a1.77,1.77,0,1,0-1.76,1.77A1.76,1.76,0,0,0,339.81,210.1Zm5.3,0a1.77,1.77,0,1,0-1.76,1.77A1.76,1.76,0,0,0,345.11,210.1Zm5.3,0a1.77,1.77,0,1,0-1.76,1.77A1.76,1.76,0,0,0,350.41,210.1Zm-26.5,14.14a1.77,1.77,0,1,0-1.76,1.76A1.76,1.76,0,0,0,323.91,224.24Zm5.3,0a1.77,1.77,0,1,0-1.76,1.76A1.76,1.76,0,0,0,329.21,224.24Zm5.3,0a1.77,1.77,0,1,0-1.76,1.76A1.76,1.76,0,0,0,334.51,224.24Zm5.3,0a1.77,1.77,0,1,0-1.76,1.76A1.76,1.76,0,0,0,339.81,224.24Zm5.3,0a1.77,1.77,0,1,0-1.76,1.76A1.76,1.76,0,0,0,345.11,224.24Zm5.3,0a1.77,1.77,0,1,0-1.76,1.76A1.76,1.76,0,0,0,350.41,224.24ZM342,244.55a1.77,1.77,0,1,0-1.76,1.77A1.76,1.76,0,0,0,342,244.55Zm5.3,0a1.77,1.77,0,1,0-1.76,1.77A1.76,1.76,0,0,0,347.32,244.55Zm5.3,0a1.77,1.77,0,1,0-1.76,1.77A1.76,1.76,0,0,0,352.62,244.55Zm5.3,0a1.77,1.77,0,1,0-1.76,1.77A1.76,1.76,0,0,0,357.92,244.55Zm5.3,0a1.77,1.77,0,1,0-1.76,1.77A1.76,1.76,0,0,0,363.22,244.55Zm5.3,0a1.77,1.77,0,1,0-1.76,1.77A1.76,1.76,0,0,0,368.52,244.55ZM342,259.13a1.77,1.77,0,1,0-1.76,1.77A1.76,1.76,0,0,0,342,259.13Zm5.3,0a1.77,1.77,0,1,0-1.76,1.77A1.76,1.76,0,0,0,347.32,259.13Zm5.3,0a1.77,1.77,0,1,0-1.76,1.77A1.76,1.76,0,0,0,352.62,259.13Zm5.3,0a1.77,1.77,0,1,0-1.76,1.77A1.76,1.76,0,0,0,357.92,259.13Zm5.3,0a1.77,1.77,0,1,0-1.76,1.77A1.76,1.76,0,0,0,363.22,259.13Zm5.3,0a1.77,1.77,0,1,0-1.76,1.77A1.76,1.76,0,0,0,368.52,259.13Z" style="fill:#0EC0C1"></path><path d="M292.11,269.54h-6.18a1.53,1.53,0,0,1,0-3.05h6.18a1.53,1.53,0,1,1,0,3.05Zm1.53,5.54a1.52,1.52,0,0,0-1.53-1.52h-6.18a1.53,1.53,0,0,0,0,3.05h6.18A1.52,1.52,0,0,0,293.64,275.08Zm0,7.07a1.53,1.53,0,0,0-1.53-1.53h-6.18a1.53,1.53,0,0,0,0,3.05h6.18A1.52,1.52,0,0,0,293.64,282.15Zm0,7.07a1.52,1.52,0,0,0-1.53-1.53h-6.18a1.53,1.53,0,0,0,0,3.05h6.18A1.52,1.52,0,0,0,293.64,289.22Zm0,7.06a1.52,1.52,0,0,0-1.53-1.52h-6.18a1.53,1.53,0,0,0,0,3.05h6.18A1.52,1.52,0,0,0,293.64,296.28Zm0,7.07a1.52,1.52,0,0,0-1.53-1.52h-6.18a1.53,1.53,0,0,0,0,3.05h6.18A1.53,1.53,0,0,0,293.64,303.35Zm0,7.07a1.52,1.52,0,0,0-1.53-1.53h-6.18a1.53,1.53,0,0,0,0,3.05h6.18A1.52,1.52,0,0,0,293.64,310.42Zm0,7.06a1.52,1.52,0,0,0-1.53-1.52h-6.18a1.53,1.53,0,0,0,0,3.05h6.18A1.52,1.52,0,0,0,293.64,317.48ZM316.77,268a1.52,1.52,0,0,0-1.52-1.53H299a1.53,1.53,0,0,0,0,3.05h16.24A1.52,1.52,0,0,0,316.77,268Zm0,7.06a1.52,1.52,0,0,0-1.52-1.52H299a1.53,1.53,0,0,0,0,3.05h16.24A1.52,1.52,0,0,0,316.77,275.08Zm0,7.07a1.53,1.53,0,0,0-1.52-1.53H299a1.53,1.53,0,0,0,0,3.05h16.24A1.52,1.52,0,0,0,316.77,282.15Zm0,7.07a1.52,1.52,0,0,0-1.52-1.53H299a1.53,1.53,0,0,0,0,3.05h16.24A1.52,1.52,0,0,0,316.77,289.22Zm0,7.06a1.52,1.52,0,0,0-1.52-1.52H299a1.53,1.53,0,0,0,0,3.05h16.24A1.52,1.52,0,0,0,316.77,296.28Zm19.43,7.07a1.52,1.52,0,0,0-1.52-1.52H318.45a1.53,1.53,0,1,0,0,3.05h16.23A1.53,1.53,0,0,0,336.2,303.35Zm0,7.07a1.52,1.52,0,0,0-1.52-1.53H318.45a1.53,1.53,0,1,0,0,3.05h16.23A1.52,1.52,0,0,0,336.2,310.42Zm0,7.06a1.52,1.52,0,0,0-1.52-1.52H318.45a1.53,1.53,0,1,0,0,3.05h16.23A1.52,1.52,0,0,0,336.2,317.48ZM323.91,268a1.77,1.77,0,1,0-1.76,1.76A1.76,1.76,0,0,0,323.91,268Zm5.3,0a1.77,1.77,0,1,0-1.76,1.76A1.76,1.76,0,0,0,329.21,268Zm5.3,0a1.77,1.77,0,1,0-1.76,1.76A1.76,1.76,0,0,0,334.51,268Zm5.3,0a1.77,1.77,0,1,0-1.76,1.76A1.76,1.76,0,0,0,339.81,268Zm5.3,0a1.77,1.77,0,1,0-1.76,1.76A1.76,1.76,0,0,0,345.11,268Zm5.3,0a1.77,1.77,0,1,0-1.76,1.76A1.76,1.76,0,0,0,350.41,268Zm-26.5,14.13a1.77,1.77,0,1,0-1.76,1.77A1.76,1.76,0,0,0,323.91,282.15Zm5.3,0a1.77,1.77,0,1,0-1.76,1.77A1.76,1.76,0,0,0,329.21,282.15Zm5.3,0a1.77,1.77,0,1,0-1.76,1.77A1.76,1.76,0,0,0,334.51,282.15Zm5.3,0a1.77,1.77,0,1,0-1.76,1.77A1.76,1.76,0,0,0,339.81,282.15Zm5.3,0a1.77,1.77,0,1,0-1.76,1.77A1.76,1.76,0,0,0,345.11,282.15Zm5.3,0a1.77,1.77,0,1,0-1.76,1.77A1.76,1.76,0,0,0,350.41,282.15ZM342,302.47a1.77,1.77,0,1,0-1.76,1.76A1.76,1.76,0,0,0,342,302.47Zm5.3,0a1.77,1.77,0,1,0-1.76,1.76A1.76,1.76,0,0,0,347.32,302.47Zm5.3,0a1.77,1.77,0,1,0-1.76,1.76A1.76,1.76,0,0,0,352.62,302.47Zm5.3,0a1.77,1.77,0,1,0-1.76,1.76A1.76,1.76,0,0,0,357.92,302.47Zm5.3,0a1.77,1.77,0,1,0-1.76,1.76A1.76,1.76,0,0,0,363.22,302.47Zm5.3,0a1.77,1.77,0,1,0-1.76,1.76A1.76,1.76,0,0,0,368.52,302.47ZM342,317a1.77,1.77,0,1,0-1.76,1.77A1.77,1.77,0,0,0,342,317Zm5.3,0a1.77,1.77,0,1,0-1.76,1.77A1.77,1.77,0,0,0,347.32,317Zm5.3,0a1.77,1.77,0,1,0-1.76,1.77A1.77,1.77,0,0,0,352.62,317Zm5.3,0a1.77,1.77,0,1,0-1.76,1.77A1.77,1.77,0,0,0,357.92,317Zm5.3,0a1.77,1.77,0,1,0-1.76,1.77A1.77,1.77,0,0,0,363.22,317Zm5.3,0a1.77,1.77,0,1,0-1.76,1.77A1.77,1.77,0,0,0,368.52,317Z" style="fill:#0EC0C1"></path><path d="M74.67,435H428.5V115.12L416.76,120l-78.83,59.2-97.66,70.24-82.94,70.23-49.5,51.5L81,410.43S73.83,428.3,74.67,435Z" style="fill:#cfcfcf;stroke:#263238;stroke-linejoin:round"></path><polygon points="421.67 117.98 421.67 434.95 428.5 434.95 428.5 115.12 421.67 117.98" style="fill:#cfcfcf;stroke:#263238;stroke-linejoin:round"></polygon><rect x="421.67" y="183.68" width="6.84" height="68" style="fill:#828282;stroke:#263238;stroke-linejoin:round"></rect><path d="M249.51,343.59H161s-16.73.76-28.52-8.5" style="fill:none;stroke:#263238;stroke-miterlimit:10"></path><line x1="261.37" y1="343.59" x2="255.94" y2="343.59" style="fill:none;stroke:#263238;stroke-miterlimit:10"></line><path d="M261.37,333.43H161a46.78,46.78,0,0,1-6.24-.28" style="fill:none;stroke:#263238;stroke-miterlimit:10"></path><line x1="261.37" y1="323.27" x2="160.95" y2="323.27" style="fill:none;stroke:#263238;stroke-miterlimit:10"></line><rect x="274.55" y="260.12" width="141.21" height="91.37" style="fill:#b0b0b0;stroke:#263238;stroke-miterlimit:10"></rect><polygon points="415.75 321.72 380.45 285.73 345.15 325.18 314.69 303.73 274.55 351.49 415.75 351.49 415.75 321.72" style="fill:#828282;stroke:#263238;stroke-miterlimit:10"></polygon><circle cx="295.57" cy="285.34" r="10.25" style="fill:#828282;stroke:#263238;stroke-miterlimit:10"></circle><polygon points="274.55 214.88 368.23 157.91 415.75 157.91 415.75 249.28 274.55 249.28 274.55 214.88" style="fill:#b0b0b0;stroke:#263238;stroke-miterlimit:10"></polygon><polygon points="274.55 249.28 314.69 201.52 345.15 222.98 380.45 183.53 415.75 219.52 415.75 249.28 274.55 249.28" style="fill:#828282;stroke:#263238;stroke-miterlimit:10"></polygon><path d="M84.2,417.94H417.83V358.41H152s-15.78-1-27-12.15C125,346.26,84.2,392.32,84.2,417.94Z" style="fill:none;stroke:#263238;stroke-miterlimit:10"></path><line x1="417.83" y1="358.41" x2="84.2" y2="417.94" style="fill:none;stroke:#263238;stroke-miterlimit:10"></line><path d="M116.14,362.29c2.6,4.1,6.94,8.32,14.19,11.32,19.34,8,287.5,44.33,287.5,44.33" style="fill:none;stroke:#263238;stroke-miterlimit:10"></path><path d="M428.5,114.5s-43.43,70.42-63.06,137.32-13.82,183.23-13.82,183.23H74.67s5.09-33.49,27.27-56.86c31.37-33,91.5-98.06,158.4-146.78s101-70.32,109.7-77.59S428.5,114.5,428.5,114.5Z" style="opacity:0.2"></path><path d="M428.5,114.5s-23.83,12.12-53.32,52.66S314,274.78,314,274.78,95.53,327.31,74.67,435C74.67,435,63,336,428.5,114.5Z" style="fill:#fff;stroke:#263238;stroke-linejoin:round"></path></g><g id="freepik--Character--inject-21"><path d="M328,458.32s-6.78,4.12-9.21,5.33-8,2.42-8,3.88,6.31,2.18,10.91,2.18,16.24-.73,17.7-1,1.45-1.7,1.21-3.88a66.45,66.45,0,0,0-2.18-8Z" style="fill:#fff;stroke:#263238;stroke-miterlimit:10"></path><path d="M370.44,456.41s.73,10.66,3.88,11.63,8,.73,8.48-2.91-2.91-12.6-2.91-12.6S372.38,456.65,370.44,456.41Z" style="fill:#fff;stroke:#263238;stroke-miterlimit:10"></path><path d="M328.2,348.45s-17.69,40-17.69,47-.73,9,1.45,14.3,12.91,43.93,12.91,43.93l1.46,5.33a11.42,11.42,0,0,0,6.78,2.19c4.12,0,5.09.24,5.58-1.94s1.21-3.88.73-5.82-1-2.67-1.94-6.06-2.67-6.55-2.91-14.79-3.57-29.79-3.57-31,13.93-25.77,13.93-25.77.24,19.64,1.7,24.24S365.83,445,365.83,445s.49,2.9,1,5.09,1.7,6.06,1.7,6.06a6.39,6.39,0,0,0,4.36,1.45c2.91,0,7.76-3.64,7.76-3.64s-.48-3.63-.73-6.78-2.42-6.55-2.42-8-2.49-20.7-4.42-26-6.79-16.48-7-18.66.72-18.18.72-18.18l1.94-16.24Z" style="fill:#263238;stroke:#263238;stroke-miterlimit:10"></path><path d="M357.55,268.85s-14.59-9.79-16.71-12.34a70.77,70.77,0,0,1-5.73-7.63c-1.27-2.13-4.57-6.33-7.11-6.33s-3.17,1.37-4.44,2-3.08,2.52-2.87,3.58-.22,2.43,1.05,3.07a7.61,7.61,0,0,1,2.39,2.65l-1.15,4s3.43-.08,4.7-.08a22.53,22.53,0,0,0,3.4-.43h1.27s11.44,15.76,13.34,18.52,3.56,5.11,4.83,7,7,7.91,7,7.91,9.05,1.36,10.54-3.52,5.45-7.5,4.39-8.78S357.55,268.85,357.55,268.85Z" style="fill:#fff;stroke:#263238;stroke-miterlimit:10"></path><path d="M363.11,272.27c-5.84,2.83-9.33,8.62-11.1,12.49,2.15,2.51,5.54,6.05,5.54,6.05s9.05,1.36,10.54-3.52,5.45-7.5,4.39-8.78C371.87,277.79,367.1,274.75,363.11,272.27Z" style="fill:#0EC0C1;stroke:#263238;stroke-miterlimit:10"></path><path d="M327.23,308.29s-7.15-20.19-8.38-23.64-1.72-4.92-1.72-4.92,2.95-5.42,2.95-7.64-3.94-4.43-3.94-4.43l-2-3.94s-3.69.25-3.94,1.72a9.3,9.3,0,0,1-.74,2.47s-4.67,2.71-4.67,4.92,5.41,9.85,5.41,9.85,4.68,23.89,6.41,30.29,8.9,12.46,11.08,10.28S327.23,308.29,327.23,308.29Z" style="fill:#fff;stroke:#263238;stroke-miterlimit:10"></path><path d="M377.17,246.9s-3.88,1-4.85,3.63a18.52,18.52,0,0,1-2.91,5.58c-.73.72-4.85.24-4.85,1.94a14.1,14.1,0,0,0,1.21,4.36s-2.9,12.12-1.45,12.6,6.3,2.67,6.3,2.67l-1,2.91,14.79,3.63,1.45-4.84s9-1,13.82-6.55,7.75-15.27,3.88-22.3-16.24-12.36-22.55-9.69S377.17,246.9,377.17,246.9Z" style="fill:#fff;stroke:#263238;stroke-miterlimit:10"></path><path d="M399.71,272.83c4.85-5.57,7.75-15.27,3.88-22.3s-16.24-12.36-22.55-9.69-3.87,6.06-3.87,6.06,3.63-2.19,2.9,0-3.87,2.66-2.66,4.36.24,4.36-.73,5.57-2.91,2.67-1.45,3.4,3.39-2.18,4.6-1,.49,5.57-1,7.27a7.22,7.22,0,0,1-3.39,2.18s-1.21,4.85,3.63,8.73,6.79,1.94,6.79,1.94S394.86,278.41,399.71,272.83Z" style="fill:#263238;stroke:#263238;stroke-miterlimit:10"></path><path d="M329.17,342.88l-1.45,6.54a43.25,43.25,0,0,0,20.12,9.7c12.12,2.18,19.39,1.45,20.84,1s2.91-7.51,2.91-7.51-5.33,4.84-18.42-.25a202.45,202.45,0,0,1-23-10.66Z" style="fill:#0EC0C1;stroke:#263238;stroke-miterlimit:10"></path><path d="M372.08,285s-8.73-3.39-13.09.73-8.73,13.81-10.43,19.39-12.11,25.45-13.81,29.08-9,4.85-7,8.25,9.7,10.9,25.69,13.08S374.5,354,376,350.64s0-6.31,1.46-8.49,15.75-24.72,17.21-33,3.39-13.33,0-17.7S372.08,285,372.08,285Z" style="fill:#0EC0C1;stroke:#263238;stroke-miterlimit:10"></path><path d="M372.61,327.66c1.1-.88,2.15-1.79,3.1-2.72" style="fill:none;stroke:#263238;stroke-miterlimit:10"></path><path d="M346.87,341.43s12.44-4.57,22.35-11.3" style="fill:none;stroke:#263238;stroke-miterlimit:10"></path><path d="M368.44,334.64s-11.15,5.82-16.72,8.24" style="fill:none;stroke:#263238;stroke-miterlimit:10"></path><path d="M361.65,310.89,343.72,316l-2.18,1.93-3.16,1.22S335,322,333.29,322h-1s-2.67,1.7-4.61,1.22-3.39-6.06-2.42-12.12.72-3.4,2.18-3.64,1.45-.48,1.45-.48,1.21-1.94,2.18-2.18a5.59,5.59,0,0,1,2.67.48s13.82-9.69,17.69-13.82a59.57,59.57,0,0,1,9-7.51s3.39-2.91,6.06.24" style="fill:#0EC0C1;stroke:#263238;stroke-miterlimit:10"></path><path d="M327.42,317.84a5.46,5.46,0,0,0,2.48,3.23" style="fill:none;stroke:#263238;stroke-miterlimit:10"></path><path d="M328.45,309a18.61,18.61,0,0,0-1.35,5.88" style="fill:none;stroke:#263238;stroke-miterlimit:10"></path><path d="M331.6,307s-1,5.09,2.66,7.75" style="fill:none;stroke:#263238;stroke-miterlimit:10"></path><path d="M393.65,287.86s-11.39-5.33-15-6.3-8.24-2.91-11.63-1.94-6.06,1.94-6.55,4.36,1.94-.73,3.39,4.12,6.31,19.39,16.24,20.12,15-7.76,15.52-12.12S395.34,289.31,393.65,287.86Z" style="fill:#fff;stroke:#263238;stroke-miterlimit:10"></path></g></svg>