<?xml version="1.0" encoding="utf-8"?><svg xmlns="http://www.w3.org/2000/svg" xmlns:xlink="http://www.w3.org/1999/xlink" width="1366" height="657" preserveAspectRatio="xMidYMid" viewBox="0 0 1366 657" style="z-index:1;margin-right:-2px;display:block;background-repeat-y:initial;background-repeat-x:initial;background-color:rgb(255, 255, 255);animation-play-state:paused" ><g transform="translate(683,328.5) scale(1,1) translate(-683,-328.5)" style="transform:matrix(1, 0, 0, 1, 0, 0);animation-play-state:paused" ><linearGradient id="lg-0.4444814269528359" x1="0" x2="1" y1="0" y2="0" style="animation-play-state:paused" ><stop stop-color="#4a00e0" offset="0" style="animation-play-state:paused" ></stop>

  
<stop stop-color="#00ffff" offset="1" style="animation-play-state:paused" ></stop></linearGradient>
<path d="M 0 0 M 0 608.406 Q 136.6 573.672 273.2 569.905 T 546.4 557.91 T 819.6 489.624 T 1092.8 525.949 T 1366 478.996 L 1366 210.447 Q 1229.4 130.169 1092.8 128.202 T 819.6 126.39 T 546.4 107.632 T 273.2 71.0483 T 0 61.6003 Z" fill="url(#lg-0.4444814269528359)" opacity="0.4" style="opacity:0.4;animation-play-state:paused" ></path>
<path d="M 0 0 M 0 570.358 Q 136.6 595.573 273.2 587.765 T 546.4 541.815 T 819.6 489.601 T 1092.8 480.837 T 1366 452.284 L 1366 200.681 Q 1229.4 151.674 1092.8 145.884 T 819.6 119.524 T 546.4 100.977 T 273.2 92.1494 T 0 89.3855 Z" fill="url(#lg-0.4444814269528359)" opacity="0.4" style="opacity:0.4;animation-play-state:paused" ></path>
<path d="M 0 0 M 0 571.687 Q 136.6 550.341 273.2 543.733 T 546.4 545.689 T 819.6 486.26 T 1092.8 493.923 T 1366 474.829 L 1366 211.084 Q 1229.4 160.203 1092.8 152.417 T 819.6 126.189 T 546.4 110.498 T 273.2 96.9391 T 0 45.4423 Z" fill="url(#lg-0.4444814269528359)" opacity="0.4" style="opacity:0.4;animation-play-state:paused" ></path>
<path d="M 0 0 M 0 588.243 Q 136.6 564.641 273.2 561.637 T 546.4 550.403 T 819.6 540.798 T 1092.8 493.378 T 1366 448.215 L 1366 203.345 Q 1229.4 195.575 1092.8 188.16 T 819.6 169.467 T 546.4 125.701 T 273.2 81.3359 T 0 76.5571 Z" fill="url(#lg-0.4444814269528359)" opacity="0.4" style="opacity:0.4;animation-play-state:paused" ></path></g></svg>