<?xml version="1.0" encoding="utf-8"?><svg xmlns="http://www.w3.org/2000/svg" xmlns:xlink="http://www.w3.org/1999/xlink" width="1366" height="657" preserveAspectRatio="xMidYMid" viewBox="0 0 1366 657" style="z-index:1;margin-right:-2px;display:block;background-repeat-y:initial;background-repeat-x:initial;background-color:rgb(255, 255, 255);animation-play-state:paused" ><g transform="translate(683,328.5) scale(1,1) translate(-683,-328.5)" style="transform:matrix(1, 0, 0, 1, 0, 0);animation-play-state:paused" ><linearGradient id="lg-0.6975237449236797" x1="0" x2="1" y1="0" y2="0" style="animation-play-state:paused" ><stop stop-color="#ff00ff" offset="0" style="animation-play-state:paused" ></stop>

  
<stop stop-color="#00ffff" offset="1" style="animation-play-state:paused" ></stop></linearGradient>
<path d="M 0 0 M 0 582.693 Q 136.6 547.402 273.2 543.355 T 546.4 579.597 T 819.6 546.82 T 1092.8 512.595 T 1366 466.582 L 1366 217.859 Q 1229.4 155.748 1092.8 146.532 T 819.6 135.71 T 546.4 148.212 T 273.2 61.5911 T 0 71.528 Z" fill="url(#lg-0.6975237449236797)" opacity="0.4" style="opacity:0.4;animation-play-state:paused" ></path>
<path d="M 0 0 M 0 568.111 Q 136.6 590.673 273.2 587.288 T 546.4 576.672 T 819.6 541.434 T 1092.8 469.808 T 1366 461.325 L 1366 196.752 Q 1229.4 140.984 1092.8 139.478 T 819.6 156.494 T 546.4 126.138 T 273.2 52.5802 T 0 86.4173 Z" fill="url(#lg-0.6975237449236797)" opacity="0.4" style="opacity:0.4;animation-play-state:paused" ></path>
<path d="M 0 0 M 0 583.517 Q 136.6 580.253 273.2 573.762 T 546.4 565.263 T 819.6 536.985 T 1092.8 497.723 T 1366 491.742 L 1366 172.83 Q 1229.4 163.667 1092.8 161.771 T 819.6 136.396 T 546.4 140.699 T 273.2 101.827 T 0 69.7575 Z" fill="url(#lg-0.6975237449236797)" opacity="0.4" style="opacity:0.4;animation-play-state:paused" ></path>
<path d="M 0 0 M 0 588.049 Q 136.6 573.923 273.2 567.536 T 546.4 544.653 T 819.6 531.367 T 1092.8 523.365 T 1366 456.901 L 1366 171.743 Q 1229.4 179.914 1092.8 173.663 T 819.6 150.232 T 546.4 113.933 T 273.2 64.4812 T 0 69.5481 Z" fill="url(#lg-0.6975237449236797)" opacity="0.4" style="opacity:0.4;animation-play-state:paused" ></path></g></svg>