<?xml version="1.0" encoding="utf-8"?><svg xmlns="http://www.w3.org/2000/svg" xmlns:xlink="http://www.w3.org/1999/xlink" width="1366" height="600" preserveAspectRatio="xMidYMid" viewBox="0 0 1366 600" style="z-index:1;margin-right:-2px;display:block;background-repeat-y:initial;background-repeat-x:initial;background-color:rgb(255, 255, 255);animation-play-state:paused" ><g transform="translate(683,300) scale(1,1) translate(-683,-300)" style="transform:matrix(1, 0, 0, 1, 0, 0);animation-play-state:paused" ><linearGradient id="lg-0.7198395530229653" x1="0" x2="1" y1="0" y2="0" style="animation-play-state:paused" ><stop stop-color="#ff00ff" offset="0" style="animation-play-state:paused" ></stop>

  
<stop stop-color="#00ffff" offset="1" style="animation-play-state:paused" ></stop></linearGradient>
<path d="M 0 0 L 0 492.809 Q 136.6 493.156 273.2 473.686 T 546.4 463.022 T 819.6 355.305 T 1092.8 280.215 T 1366 221.414 L 1366 0 Z" fill="url(#lg-0.7198395530229653)" opacity="0.4" style="opacity:0.4;animation-play-state:paused" ></path>
<path d="M 0 0 L 0 593.316 Q 136.6 509.157 273.2 480.296 T 546.4 420.136 T 819.6 400.51 T 1092.8 280.647 T 1366 271.908 L 1366 0 Z" fill="url(#lg-0.7198395530229653)" opacity="0.4" style="opacity:0.4;animation-play-state:paused" ></path>
<path d="M 0 0 L 0 569.45 Q 136.6 517.178 273.2 476.648 T 546.4 445.204 T 819.6 327.273 T 1092.8 256.61 T 1366 265.068 L 1366 0 Z" fill="url(#lg-0.7198395530229653)" opacity="0.4" style="opacity:0.4;animation-play-state:paused" ></path>
<path d="M 0 0 L 0 530.651 Q 136.6 516.821 273.2 483.539 T 546.4 469.563 T 819.6 373.24 T 1092.8 318.127 T 1366 284.603 L 1366 0 Z" fill="url(#lg-0.7198395530229653)" opacity="0.4" style="opacity:0.4;animation-play-state:paused" ></path>
<path d="M 0 0 L 0 513.435 Q 136.6 546.208 273.2 511.569 T 546.4 440.521 T 819.6 324.995 T 1092.8 344.747 T 1366 236.148 L 1366 0 Z" fill="url(#lg-0.7198395530229653)" opacity="0.4" style="opacity:0.4;animation-play-state:paused" ></path></g></svg>